<?xml version="1.0" encoding="UTF-8"?>
<svg width="163px" height="163px" viewBox="0 0 163 163" version="1.1" xmlns="http://www.w3.org/2000/svg" xmlns:xlink="http://www.w3.org/1999/xlink">
    <!-- Generator: Sketch 50.2 (55047) - http://www.bohemiancoding.com/sketch -->
    <title>Group 34</title>
    <desc>Created with Sketch.</desc>
    <defs></defs>
    <g id="Page-1" stroke="none" stroke-width="1" fill="none" fill-rule="evenodd">
        <g id="Group-34">
            <circle id="Oval-2" fill="#F1F5F8" cx="81.5" cy="81.5" r="81.5"></circle>
            <g id="Group" transform="translate(39.000000, 61.000000)">
                <path d="M12,26 L18,26 C19.1045,26 20,26.7835625 20,27.75 L20,31.25 C20,32.2164375 19.1045,33 18,33 L12,33 C10.8955,33 10,32.2164375 10,31.25 L10,27.75 C10,26.7835625 10.8955,26 12,26" id="Fill-12" fill="#FFFFFF"></path>
                <path d="M64,26 L70,26 C71.1045,26 72,26.7835625 72,27.75 L72,31.25 C72,32.2164375 71.1045,33 70,33 L64,33 C62.8955,33 62,32.2164375 62,31.25 L62,27.75 C62,26.7835625 62.8955,26 64,26" id="Fill-13" fill="#FFFFFF"></path>
                <path d="M32,26 L52,26 C53.1045,26 54,26.7835625 54,27.75 L54,31.25 C54,32.2164375 53.1045,33 52,33 L32,33 C30.8955,33 30,32.2164375 30,31.25 L30,27.75 C30,26.7835625 30.8955,26 32,26" id="Fill-15" fill="#FFFFFF"></path>
                <path d="M64.106,4.35025 C63.42875,2.91003125 62.0435,2 60.528,2 L53,2 L37,19 L71,19 L64.106,4.35025 Z" id="Fill-17" fill="#C7D2DC"></path>
                <polygon id="Fill-18" fill="#FFFFFF" points="3 46 15 46 15 43 3 43"></polygon>
                <polygon id="Fill-19" fill="#FFFFFF" points="69 46 81 46 81 43 69 43"></polygon>
                <path d="M14.3499944,40.7407577 L4.0999984,40.7407577 L4.0999984,23.6663335 L10.7337958,20.3704115 L71.2661721,20.3704115 L77.8999695,23.6663335 L77.8999695,40.7407577 L14.3499944,40.7407577 Z M4.0999984,50.9259308 L12.2999952,50.9259308 L12.2999952,44.8148269 L4.0999984,44.8148269 L4.0999984,50.9259308 Z M19.1510925,5.20061471 C19.4960049,4.5085322 20.2065858,4.07158828 20.9837918,4.07413457 L61.0161761,4.07413457 C61.7933821,4.07158828 62.5042193,4.5085322 62.8488754,5.20061471 L68.4330732,16.2963423 L13.5668947,16.2963423 L19.1510925,5.20061471 Z M69.6999727,50.9259308 L77.8999695,50.9259308 L77.8999695,44.8148269 L69.6999727,44.8148269 L69.6999727,50.9259308 Z M69.6999727,55 L77.8999695,55 C80.1644499,55 81.9999679,53.1760901 81.9999679,50.9259308 L81.9999679,22.4074461 C82.0043242,21.6315906 81.5648556,20.9209201 80.8663184,20.574115 L73.2813213,16.8056009 L66.516324,3.36117245 C65.4759494,1.29230917 63.343694,-0.0106290963 61.0161761,6.53354181e-05 L20.9837918,6.53354181e-05 C18.6526865,-0.0075735444 16.5196623,1.30223971 15.4836439,3.37746873 L8.71864659,16.8218972 L1.13364956,20.5904112 C0.440493578,20.9346701 0.0020499992,21.6377017 0,22.4074461 L0,50.9259308 C0,53.1760901 1.83577428,55 4.0999984,55 L12.2999952,55 C14.5642193,55 16.3999936,53.1760901 16.3999936,50.9259308 L16.3999936,44.8148269 L65.5999743,44.8148269 L65.5999743,50.9259308 C65.5999743,53.1760901 67.4354924,55 69.6999727,55 Z" id="Fill-22" fill="#696969"></path>
                <path d="M13.2857143,32 L19.7142857,32 L19.7142857,28 L13.2857143,28 L13.2857143,32 Z M19.7142857,24 L13.2857143,24 C10.9189286,24 9,25.79075 9,28 L9,32 C9,34.20925 10.9189286,36 13.2857143,36 L19.7142857,36 C22.0810714,36 24,34.20925 24,32 L24,28 C24,25.79075 22.0810714,24 19.7142857,24 Z" id="Fill-23" fill="#696969"></path>
                <path d="M64.2857143,32 L70.7142857,32 L70.7142857,28 L64.2857143,28 L64.2857143,32 Z M75,32 L75,28 C75,25.79075 73.0813393,24 70.7142857,24 L64.2857143,24 C61.9186607,24 60,25.79075 60,28 L60,32 C60,34.20925 61.9186607,36 64.2857143,36 L70.7142857,36 C73.0813393,36 75,34.20925 75,32 Z" id="Fill-24" fill="#696969"></path>
                <path d="M31.1428571,32 L51.8571429,32 L51.8571429,28 L31.1428571,28 L31.1428571,32 Z M51.8571429,24 L31.1428571,24 C28.8549643,24 27,25.79075 27,28 L27,32 C27,34.20925 28.8549643,36 31.1428571,36 L51.8571429,36 C54.1452946,36 56,34.20925 56,32 L56,28 C56,25.79075 54.1452946,24 51.8571429,24 Z" id="Fill-25" fill="#696969"></path>
            </g>
        </g>
    </g>
</svg>