<?xml version="1.0" encoding="UTF-8"?>
<svg width="163px" height="163px" viewBox="0 0 163 163" version="1.1" xmlns="http://www.w3.org/2000/svg" xmlns:xlink="http://www.w3.org/1999/xlink">
    <!-- Generator: Sketch 50.2 (55047) - http://www.bohemiancoding.com/sketch -->
    <title>banking</title>
    <desc>Created with Sketch.</desc>
    <defs></defs>
    <g id="Page-1" stroke="none" stroke-width="1" fill="none" fill-rule="evenodd">
        <g id="banking">
            <circle id="Oval-2" fill="#F1F5F8" cx="81.5" cy="81.5" r="81.5"></circle>
            <g id="Group" transform="translate(38.000000, 51.000000)">
                <rect id="Rectangle-12" fill="#FFFFFF" x="22" y="12" width="46" height="49"></rect>
                <path d="M22.0766199,59.0000796 L66.9225042,59.0000796 L66.9225042,13.000565 L22.0766199,13.000565 L22.0766199,59.0000796 Z M68.9609237,9 L20.0384194,9 C18.9126794,9 18,9.89545968 18,10.9999602 L18,61.0000398 C18,62.1045403 18.9126794,63 20.0384194,63 L68.9609237,63 C70.0873206,63 71,62.1045403 71,61.0000398 L71,11.0006047 C71,9.89631905 70.0873206,9 68.9609237,9 Z" id="Fill-1" fill="#696969"></path>
                <path d="M86.0000293,0 L1.9999707,0 C0.895464378,0 0,0.895471082 0,1.99977083 L0,28.0002292 C0,29.1045289 0.895464378,30 1.9999707,30 L14.0000098,30 C15.1045161,30 15.9999805,29.1045289 15.9999805,28.0002292 C15.9999805,26.8957146 15.1045161,26.0002435 14.0000098,26.0002435 L3.99972656,26.0002435 L3.99972656,3.99975651 L83.9991992,3.99975651 L83.9991992,26.0002435 L73.9999902,26.0002435 C72.8954839,26.0002435 72.0000195,26.8957146 72.0000195,28.0002292 C72.0000195,29.1045289 72.8954839,30 73.9999902,30 L86.0000293,30 C87.1045356,30 88,29.1045289 88,28.0002292 L88,1.99977083 C88,0.895471082 87.1045356,0 86.0000293,0" id="Fill-3" fill="#696969"></path>
                <path d="M59.0000269,14 C57.8955192,14 57.0000537,14.8954775 57.0000537,15.9997852 C57.0000537,22.6163927 51.6165187,28.0002148 45,28.0002148 C38.3834813,28.0002148 32.9997314,22.6163927 32.9997314,15.9997852 C32.9997314,14.8954775 32.104266,14 30.9999731,14 C29.8954655,14 29,14.8954775 29,15.9997852 C29,24.8228596 36.1779034,32 45,32 C53.8218818,32 61,24.8228596 61,15.9997852 C61,14.8954775 60.1045345,14 59.0000269,14" id="Fill-4" fill="#696969"></path>
                <polygon id="Fill-5" fill="#696969" points="29 49 33 49 33 34 29 34"></polygon>
                <polygon id="Fill-6" fill="#696969" points="55 49 59 49 59 34 55 34"></polygon>
                <polygon id="Fill-7" fill="#696969" points="18 70 71 70 71 66 18 66"></polygon>
                <polygon id="Fill-8" fill="#696969" points="18 78 71 78 71 74 18 74"></polygon>
            </g>
        </g>
    </g>
</svg>