<?xml version="1.0" encoding="UTF-8"?>
<svg width="138px" height="138px" viewBox="0 0 138 138" version="1.1" xmlns="http://www.w3.org/2000/svg" xmlns:xlink="http://www.w3.org/1999/xlink">
    <!-- Generator: Sketch 49.3 (51167) - http://www.bohemiancoding.com/sketch -->
    <title>bank_accounts</title>
    <desc>Created with Sketch.</desc>
    <defs></defs>
    <g id="Page-1" stroke="none" stroke-width="1" fill="none" fill-rule="evenodd">
        <g id="Landing" transform="translate(-1363.000000, -1312.000000)">
            <g id="Group" transform="translate(-180.000000, -178.000000)">
                <g id="Group-10" transform="translate(1417.500000, 1490.000000)">
                    <g id="bank_accounts" transform="translate(126.000000, 0.000000)">
                        <path d="M32,86.147192 L25.958042,79.7342833 L25.958042,61.2351383 C25.1891152,56.5103437 21.8438735,52.0027494 17.1714807,52 L14.3557312,52.0013747 C14.2325935,52.0027494 14.1190331,52.0164962 14,52.026119 L14.3557312,85.3375021 L18.8995135,93 C23.8373366,92.3112825 28.3428094,89.8588433 32,86.147192" id="Fill-1" fill="#FFFFFF"></path>
                        <path d="M16.9472102,83.7683074 L20.192282,89.0613728 C23.0197127,88.3982171 25.7162824,87.0800259 28.1483461,85.177175 L23.1923377,80.0884698 L23.1923377,61.0301862 C22.577013,57.7861367 20.2479675,54.4162229 17.0335227,54.4135161 L16.6256265,54.4135161 L16.9472102,83.7683074 Z M17.3467535,95 L11.395367,85.2854453 L11,49.2300744 L13.5935516,49.0324811 C13.8149014,49.0135338 13.9736051,49.0040601 14.1392694,49.0013534 L17.0335227,49 C23.4610202,49.0040601 27.7766455,54.7180264 28.7246909,60.3629704 L28.7608865,60.797405 L28.7608865,77.932537 L36,85.3652947 L34.1039091,87.2288976 C29.8509299,91.4067787 24.6902773,94.0079732 19.1788061,94.7523316 L17.3467535,95 Z" id="Fill-3" fill="#696969"></path>
                        <path d="M28.4262494,116.402381 L3.35335159,74.8209577 L3,42.0243609 C3.11778386,42.017594 3.23145899,42.0027068 3.35335159,42.0027068 L6.17331645,42 C10.8518011,42.0027068 14.1990542,46.441812 14.9687581,51.0906921 L14.9687581,69.303204 L21.8536358,76.4937425 L41.5618895,95.96761 L43.3532999,94.185201 L31.1065171,82.1400678 C28.0646803,78.9555512 29.0850173,73.0696766 32.3103778,70.0624534 C32.3103778,70.0624534 33.0896687,69.4263621 33.1732131,69.3559861 L54.9824022,90.9032405 L56,106.559207 L56,131" id="Fill-5" fill="#FFFFFF"></path>
                        <path d="M59,132 L53.4755261,132 L53.4755261,107.301014 L52.5211732,92.5469518 L33.2573328,73.4064727 C31.8582598,75.6092885 31.4977879,78.8345951 33.1427,80.5652809 L47.3875559,94.6536946 L41.6849177,100.363174 L19.8508158,78.6657812 L12.0985978,70.5256564 L12.0985978,51.1998937 C11.4881434,47.910081 9.17615113,44.4926285 5.98852969,44.4898836 L5.58248086,44.491256 L5.90290035,74.2601496 L30.8072286,115.791119 L26.0589433,118.601939 L0.393618764,75.7986895 L0,39.1756763 L2.63517404,39.0288219 C2.8409607,39.0123522 2.99012149,39.0027449 3.14895012,39.0027449 L5.98852969,39 C12.3623914,39.0027449 16.6466209,44.800062 17.5871626,50.5218931 L17.6230717,50.9638288 L17.6230717,68.3393102 L23.8104825,74.8379599 L26.5547649,77.5650595 C26.5202369,74.0680037 28.025656,70.4844822 30.4509001,68.207553 L30.590393,68.0867756 L33.3802523,65.7686722 L57.9006297,90.1286581 L59,107.213176 L59,132 Z" id="Fill-7" fill="#696969"></path>
                        <polyline id="Fill-9" stroke="#696969" stroke-width="5" fill="#C7D2DC" points="63 138 63 123 20 123 20 138"></polyline>
                        <path d="M106,86.147192 L112.043326,79.7342833 L112.043326,61.2351383 C112.808148,56.5103437 116.15339,52.0027494 120.828519,52 L123.644269,52.0013747 C123.767407,52.0027494 123.879599,52.0164962 124,52.026119 L123.644269,85.3375021 L119.100486,93 C114.164032,92.3112825 109.654454,89.8588433 106,86.147192" id="Fill-11" fill="#FFFFFF"></path>
                        <path d="M108.860925,85.177175 C111.295429,87.0800259 113.993311,88.3982171 116.823579,89.0613728 L120.071906,83.7683074 L120.393813,54.4135161 L119.979933,54.4135161 C116.76505,54.4162229 114.436455,57.7861367 113.821906,61.0301862 L113.821906,80.0884698 L108.860925,85.177175 Z M119.671962,95 L117.840858,94.7523316 C112.32107,94.0079732 107.153846,91.4067787 102.897993,87.2288976 L101,85.3652947 L108.24777,77.9311836 L108.285396,60.3643238 C109.228818,54.7193798 113.54738,49.0027068 119.979933,49 L122.852007,49.0013534 C123.047101,49.0027068 123.203177,49.0135338 123.360647,49.0270676 L125.930323,49.246315 L126,51.7608932 L125.62932,85.2854453 L119.671962,95 Z" id="Fill-13" fill="#696969"></path>
                        <path d="M109.571669,116.402381 L134.643918,74.8209577 L135,42.0243609 C134.87948,42.017594 134.765808,42.0027068 134.643918,42.0027068 L131.824026,42 C127.147032,42.0027068 123.795757,46.441812 123.030182,51.0906921 L123.030182,69.303204 L116.145482,76.4937425 L96.4363679,95.96761 L94.6436342,94.185201 L106.89147,82.1400678 C109.934598,78.9555512 108.912918,73.0696766 105.68901,70.0624534 C105.68901,70.0624534 104.909739,69.4263621 104.823458,69.3559861 L83.016202,90.9032405 L82,106.559207 L82,131" id="Fill-15" fill="#FFFFFF"></path>
                        <path d="M84.4333825,132 L79,132 L79.0054334,107.037499 L80.0798848,90.1286581 L104.181011,65.7782795 L107.078362,68.207553 C109.105014,70.1441094 110.475585,72.9549298 110.836905,75.9277018 C110.902105,76.4725727 110.931989,77.0146987 110.926556,77.545845 L113.662264,74.7844335 L119.694677,68.3393102 L119.727277,50.5232656 C120.650952,44.800062 124.865898,39.0027449 131.133305,39 L133.931497,39.0027449 C134.082274,39.0027449 134.228975,39.0123522 134.377035,39.0247045 L136.900841,39.2305751 L137,41.7984681 L136.63868,75.7986895 L111.396543,118.601939 L106.727909,115.791119 L131.220239,74.2601496 L131.538092,44.491256 L131.131947,44.4898836 C127.999602,44.4926285 125.72709,47.910081 125.128059,51.1998937 L125.128059,70.5256564 L117.555282,78.6108824 L96.0295791,100.361801 L90.4155367,94.6550671 L104.486639,80.5035197 C105.270404,79.6663125 105.638516,78.2169832 105.442914,76.5933502 C105.304363,75.4514544 104.903651,74.3328906 104.320921,73.4023553 L85.3719993,92.5469518 L84.4333825,107.302386 L84.4333825,132 Z" id="Fill-17" fill="#696969"></path>
                        <polyline id="Fill-20" stroke="#696969" stroke-width="5" fill="#C7D2DC" points="72 138 72 123 115 123 115 138"></polyline>
                        <path d="M69.0168931,56 C53.5387456,56 41,43.4594386 41,27.9898627 C41,12.5310999 53.5387456,0 69.0168931,0 C84.486932,0 97,12.5310999 97,27.9898627 C97,43.4594386 84.486932,56 69.0168931,56" id="Fill-22" fill="#C7D2DC"></path>
                        <path d="M71.8682182,32 L63.9958595,28.9265215 C60.6931039,26.8273289 60,24.467603 60,22.8596241 L60,19.5608929 C60,15.3910035 63.3895631,12 67.5549686,12 L71.4450314,12 C75.6104369,12 79,15.3910035 79,19.5608929 L79,21.1023814 L73.5745288,21.1023814 L73.5745288,19.5608929 C73.5745288,18.3844223 72.6196459,17.4277766 71.4450314,17.4277766 L67.5549686,17.4277766 C66.3803541,17.4277766 65.4254712,18.3844223 65.4254712,19.5608929 L65.4254712,22.8596241 C65.4254712,23.0007463 65.6587664,23.5068865 66.6923187,24.2070697 L73.8078241,26.9304566 L71.8682182,32 Z" id="Fill-25" fill="#696969"></path>
                        <path d="M71.4458485,45 L67.555508,45 C63.3898051,45 60,41.6043635 60,37.429824 L60,35.8828927 L65.4258585,35.8828927 L65.4258585,37.429824 C65.4258585,38.6056549 66.3808096,39.5626317 67.555508,39.5626317 L71.4458485,39.5626317 C72.6191904,39.5626317 73.5741415,38.6056549 73.5741415,37.429824 L73.5741415,34.1211853 C73.5741415,34.0137973 73.3272649,33.440155 72.2217463,32.6897981 L65.4421361,30.0757833 L67.3927322,25 L74.9211109,27.9620064 C78.2919255,30.1070482 79,32.4967716 79,34.1211853 L79,37.429824 C79,41.6043635 75.6101949,45 71.4458485,45" id="Fill-27" fill="#696969"></path>
                        <path d="M69,20 L69,28" id="Fill-29" fill="#FFFFFF"></path>
                        <polygon id="Fill-31" fill="#696969" points="66 17 71 17 71 9 66 9"></polygon>
                        <path d="M69,52 L69,60" id="Fill-33" fill="#FFFFFF"></path>
                        <polygon id="Fill-34" fill="#696969" points="66 49 71 49 71 41 66 41"></polygon>
                    </g>
                </g>
            </g>
        </g>
    </g>
</svg>