<?xml version="1.0" encoding="UTF-8"?>
<svg width="164px" height="163px" viewBox="0 0 164 163" version="1.1" xmlns="http://www.w3.org/2000/svg" xmlns:xlink="http://www.w3.org/1999/xlink">
    <!-- Generator: Sketch 50.2 (55047) - http://www.bohemiancoding.com/sketch -->
    <title>building</title>
    <desc>Created with Sketch.</desc>
    <defs></defs>
    <g id="Page-1" stroke="none" stroke-width="1" fill="none" fill-rule="evenodd">
        <g id="building">
            <circle id="Oval-2" fill="#F1F5F8" cx="81.8333333" cy="81.5" r="81.5"></circle>
            <polyline id="Fill-1" fill="#C7D2DC" points="52.343191 65.9984719 81.8757753 49.7108315 111.409258 65.9984719"></polyline>
            <polygon id="Fill-2" fill="#FFFFFF" points="39.9869663 72.4298427 123.764944 72.4298427 123.764944 66.7606292 39.9869663 66.7606292"></polygon>
            <path d="M41.7847191,70.6320899 L121.967191,70.6320899 L121.967191,68.558382 L41.7847191,68.558382 L41.7847191,70.6320899 Z M38.1892135,74.2275955 L125.562697,74.2275955 L125.562697,64.9628764 L38.1892135,64.9628764 L38.1892135,74.2275955 Z" id="Fill-3" fill="#696969"></path>
            <polygon id="Fill-4" fill="#FFFFFF" points="39.9869663 117.670292 59.9447191 117.670292 59.9447191 106.851416 39.9869663 106.851416"></polygon>
            <path d="M38.1892135,119.467146 L61.7433708,119.467146 L61.7433708,105.053663 L38.1892135,105.053663 L38.1892135,119.467146 Z M41.785618,115.87164 L58.1469663,115.87164 L58.1469663,108.64827 L41.785618,108.64827 L41.785618,115.87164 Z" id="Fill-5" fill="#696969"></path>
            <polygon id="Fill-6" fill="#FFFFFF" points="103.807191 117.670292 123.764944 117.670292 123.764944 106.851416 103.807191 106.851416"></polygon>
            <path d="M102.009438,119.467146 L125.563596,119.467146 L125.563596,105.053663 L102.009438,105.053663 L102.009438,119.467146 Z M105.605843,115.87164 L121.967191,115.87164 L121.967191,108.64827 L105.605843,108.64827 L105.605843,115.87164 Z" id="Fill-7" fill="#696969"></path>
            <path d="M60.2325393,115.219236 L103.521528,115.219236 L60.2325393,115.219236 Z" id="Fill-8" fill="#696969"></path>
            <polygon id="Fill-9" fill="#696969" points="60.2332584 117.016809 103.521348 117.016809 103.521348 113.421303 60.2332584 113.421303"></polygon>
            <path d="M60.2325393,108.926921 L103.521528,108.926921 L60.2325393,108.926921 Z" id="Fill-10" fill="#696969"></path>
            <polygon id="Fill-11" fill="#696969" points="60.2332584 110.724674 103.521348 110.724674 103.521348 107.129169 60.2332584 107.129169"></polygon>
            <path d="M80.9800449,40.0002697 L36.9998202,65.2074607 L37.8942022,68.5638652 L125.859146,68.5638652 L126.753528,65.2074607 L82.7715056,40.0002697 L80.9800449,40.0002697 Z M81.8762247,43.6317303 L119.106787,64.9701573 L44.6465618,64.9701573 L81.8762247,43.6317303 Z" id="Fill-12" fill="#696969"></path>
            <polygon id="Fill-13" fill="#696969" points="44.011236 102.466697 47.6067416 102.466697 47.6067416 76.7741124 44.011236 76.7741124"></polygon>
            <polygon id="Fill-14" fill="#696969" points="51.2022472 102.466697 54.7977528 102.466697 54.7977528 76.7741124 51.2022472 76.7741124"></polygon>
            <polygon id="Fill-15" fill="#696969" points="65.6597753 102.466697 69.2552809 102.466697 69.2552809 76.7741124 65.6597753 76.7741124"></polygon>
            <polygon id="Fill-16" fill="#696969" points="72.8507865 102.466697 76.4462921 102.466697 76.4462921 76.7741124 72.8507865 76.7741124"></polygon>
            <polygon id="Fill-17" fill="#696969" points="87.3083146 102.466697 90.9038202 102.466697 90.9038202 76.7741124 87.3083146 76.7741124"></polygon>
            <polygon id="Fill-18" fill="#696969" points="94.4993258 102.466697 98.0948315 102.466697 98.0948315 76.7741124 94.4993258 76.7741124"></polygon>
            <polygon id="Fill-19" fill="#696969" points="108.955056 102.466697 112.550562 102.466697 112.550562 76.7741124 108.955056 76.7741124"></polygon>
            <polygon id="Fill-20" fill="#696969" points="116.146067 102.466697 119.741573 102.466697 119.741573 76.7741124 116.146067 76.7741124"></polygon>
        </g>
    </g>
</svg>