<?xml version="1.0" encoding="UTF-8"?>
<svg width="24px" height="25px" viewBox="0 0 24 25" version="1.1" xmlns="http://www.w3.org/2000/svg" xmlns:xlink="http://www.w3.org/1999/xlink">
    <!-- Generator: sketchtool 50.2 (55047) - http://www.bohemiancoding.com/sketch -->
    <title>C254245A-E00D-4624-993B-DB859B970500</title>
    <desc>Created with sketchtool.</desc>
    <defs></defs>
    <g id="Page-1" stroke="none" stroke-width="1" fill="none" fill-rule="evenodd">
        <g id="Careers-Expanded" transform="translate(-1094.000000, -638.000000)">
            <g id="calendar" transform="translate(1095.000000, 639.000000)">
                <rect id="Rectangle-2" fill="#75DEC5" x="3" y="8" width="15" height="6"></rect>
                <circle id="Oval" fill="#FFFFFF" cx="11" cy="15" r="5"></circle>
                <path d="M17.3773525,16.6659461 C17.3779116,16.6282333 17.3801482,16.5909443 17.3801482,16.5528077 C17.3801482,12.9979182 14.517797,10.1061805 11.0001398,10.1061805 C7.48206321,10.1061805 4.61985183,12.9979182 4.61985183,16.5528077 C4.61985183,16.5909443 4.62208837,16.6282333 4.62250772,16.6659461 L1.34164411,16.6659461 L1.34164411,6.8311 L20.6584957,6.8311 L20.6584957,16.6659461 L17.3773525,16.6659461 Z M11.0001398,21.643752 C8.22193842,21.643752 5.96191529,19.3600801 5.96191529,16.5528077 C5.96191529,13.7461004 8.22193842,11.4618635 11.0001398,11.4618635 C13.7779218,11.4618635 16.0379449,13.7455354 16.0379449,16.5528077 C16.0379449,19.3600801 13.7779218,21.643752 11.0001398,21.643752 Z M5.23364213,2.70232627 L5.23364213,3.31533568 C5.23364213,3.68949741 5.53445669,3.99345968 5.90474375,3.99345968 C6.27558995,3.99345968 6.57584537,3.68949741 6.57584537,3.31533568 L6.57584537,2.70232627 L10.3293177,2.70232627 L10.3293177,3.31533568 C10.3293177,3.68949741 10.6295732,3.99345968 11.0001398,3.99345968 C11.3704268,3.99345968 11.6708221,3.68949741 11.6708221,3.31533568 L11.6708221,2.70232627 L15.5907768,2.70232627 L15.5907768,3.31533568 C15.5907768,3.68949741 15.8915914,3.99345968 16.2618784,3.99345968 C16.6325849,3.99345968 16.9328403,3.68949741 16.9328403,3.31533568 L16.9328403,2.70232627 L20.6584957,2.70232627 L20.6584957,5.474852 L1.34220325,5.474852 L1.34220325,2.70232627 L5.23364213,2.70232627 Z M21.3294575,1.34678449 L16.9328403,1.34678449 L16.9328403,0.677982756 C16.9328403,0.303397283 16.6325849,0 16.2618784,0 C15.8915914,0 15.5907768,0.303397283 15.5907768,0.677982756 L15.5907768,1.34678449 L11.6708221,1.34678449 L11.6708221,0.677982756 C11.6708221,0.303397283 11.3704268,0 11.0001398,0 C10.6295732,0 10.3293177,0.303397283 10.3293177,0.677982756 L10.3293177,1.34678449 L6.57584537,1.34678449 L6.57584537,0.677982756 C6.57584537,0.303397283 6.27558995,0 5.90474375,0 C5.53445669,0 5.23364213,0.303397283 5.23364213,0.677982756 L5.23364213,1.34678449 L0.670961839,1.34678449 C0.300255423,1.34678449 0,1.65018178 0,2.0249085 L0,17.3440701 C0,17.7180906 0.300255423,18.0220529 0.670961839,18.0220529 L4.78926969,18.0220529 C5.44876927,20.8707104 7.98234913,23 11.0001398,23 C14.0176509,23 16.5512307,20.8707104 17.2108701,18.0220529 L21.3290382,18.0220529 C21.6997446,18.0220529 22,17.7180906 22,17.3440701 L22,2.0249085 C22,1.65018178 21.6997446,1.34678449 21.3294575,1.34678449 Z" id="Fill-1" stroke="#696969" stroke-width="0.5" fill="#696969"></path>
                <path d="M11.3954368,17.6673501 L11.3954368,14.6283483 C11.3954368,14.2813891 11.0831102,14 10.6979365,14 C10.3123266,14 10,14.2813891 10,14.6283483 L10,17.927406 C10,18.0942762 10.0731379,18.2540791 10.2044372,18.3718698 L11.8083825,19.8161155 C11.9446255,19.9386179 12.1230355,20 12.3018818,20 C12.4802918,20 12.659138,19.9386179 12.7955264,19.8161155 C13.0681579,19.5707181 13.0681579,19.1729779 12.7955264,18.9275805 L11.3954368,17.6673501 Z" id="Fill-4" stroke="#696969" stroke-width="0.5" fill="#696969"></path>
            </g>
        </g>
    </g>
</svg>