<?xml version="1.0" encoding="UTF-8"?>
<svg width="22px" height="22px" viewBox="0 0 22 22" version="1.1" xmlns="http://www.w3.org/2000/svg" xmlns:xlink="http://www.w3.org/1999/xlink">
    <!-- Generator: Sketch 50 (54983) - http://www.bohemiancoding.com/sketch -->
    <title>Group 18</title>
    <desc>Created with Sketch.</desc>
    <defs></defs>
    <g id="Page-1" stroke="none" stroke-width="1" fill="none" fill-rule="evenodd">
        <g id="Find-us" transform="translate(-376.000000, -877.000000)">
            <g id="Group-20" transform="translate(338.000000, 524.000000)">
                <g id="Group-19" transform="translate(19.000000, 180.000000)">
                    <g id="Group-13" transform="translate(20.000000, 174.000000)">
                        <g id="Group-18">
                            <circle id="Oval" fill="#75DEC5" fill-rule="nonzero" cx="10" cy="10" r="7"></circle>
                            <path d="M7.51173769,0.31561991 C12.0269572,-0.844526287 16.7447685,1.26943768 18.8842553,5.41143466 C21.0237421,9.55343163 20.0171592,14.6243202 16.4578375,17.6350624 C12.8985157,20.6458046 7.73097488,20.7974545 4.00122461,18.0006221 C0.271474332,15.2037897 -1.03073983,10.2006566 0.862172929,5.94032222" id="Shape" stroke="#696969" stroke-width="2" stroke-linecap="round" stroke-linejoin="round"></path>
                            <path d="M3,1.67 C3.29,1.43 3.58,1.21 3.89,1" id="Shape" stroke="#696969" stroke-width="2" stroke-linecap="round" stroke-linejoin="round"></path>
                            <path d="M10,3 L10,4" id="Shape" stroke="#696969" stroke-width="2" stroke-linecap="round" stroke-linejoin="round"></path>
                            <path d="M3,10 L4,10" id="Shape" stroke="#696969" stroke-width="2" stroke-linecap="round" stroke-linejoin="round"></path>
                            <path d="M10,17 L10,16" id="Shape" stroke="#696969" stroke-width="2" stroke-linecap="round" stroke-linejoin="round"></path>
                            <path d="M17,10 L16,10" id="Shape" stroke="#696969" stroke-width="2" stroke-linecap="round" stroke-linejoin="round"></path>
                            <polyline id="Shape" stroke="#696969" stroke-width="2" stroke-linecap="round" stroke-linejoin="round" points="15 13 10.8657048 10.8014553 10 8"></polyline>
                        </g>
                    </g>
                </g>
            </g>
        </g>
    </g>
</svg>