<?xml version="1.0" encoding="UTF-8"?>
<svg width="163px" height="163px" viewBox="0 0 163 163" version="1.1" xmlns="http://www.w3.org/2000/svg" xmlns:xlink="http://www.w3.org/1999/xlink">
    <!-- Generator: Sketch 50.2 (55047) - http://www.bohemiancoding.com/sketch -->
    <title>coins</title>
    <desc>Created with Sketch.</desc>
    <defs></defs>
    <g id="Page-1" stroke="none" stroke-width="1" fill="none" fill-rule="evenodd">
        <g id="coins">
            <circle id="Oval-2" fill="#F1F5F8" cx="81.5" cy="81.5" r="81.5"></circle>
            <g id="Group" transform="translate(56.000000, 46.000000)">
                <ellipse id="Oval-5" fill="#C7D2DC" cx="48" cy="61.5" rx="21" ry="21.5"></ellipse>
                <path d="M52.2779772,68.0709798 C52.0452767,69.6355918 50.8941939,70.9570385 49.3448119,71.4375955 C49.3432594,71.4381049 49.3415345,71.4386144 49.3398095,71.4392936 L49.3398095,64.2051282 C49.9587343,64.430124 50.5210795,64.6843267 50.9757857,64.9874342 C52.4213235,65.9526235 52.3680215,67.4652742 52.2779772,68.0709798 M53.0409383,61.9891323 C51.5001813,60.9607743 49.5995923,60.4445576 47.7616203,59.9449822 C47.3605611,59.8361352 46.960882,59.7276278 46.5693103,59.6143658 C44.3211368,58.9636611 42.8792214,57.6795721 42.7125878,56.1789778 C42.5776939,54.9650195 43.3197827,53.7943624 44.6973561,53.0470368 C44.9883611,52.8894549 45.3126584,52.7714383 45.6597255,52.6880625 L45.6597255,55.3822381 C45.6597255,56.3824079 46.483406,57.1935813 47.4997675,57.1935813 C48.5156114,57.1935813 49.339637,56.3824079 49.339637,55.3822381 L49.339637,52.8205128 C50.4137854,53.0813381 51.4603341,53.5014434 52.3173069,54.0117168 C53.1866996,54.5299711 54.3177725,54.2560706 54.8438931,53.4000679 C55.3700137,52.5440652 55.0917735,51.4306334 54.2223808,50.9125488 C52.8608498,50.1012056 51.1368993,49.4347088 49.339637,49.1134318 L49.339637,47.8113432 C49.339637,46.8111734 48.5156114,46 47.4997675,46 C46.483406,46 45.6597255,46.8111734 45.6597255,47.8113432 L45.6597255,49.0037358 C44.6944236,49.1378842 43.7656914,49.4161997 42.921656,49.8741722 C40.2387861,51.3292579 38.7570236,53.8959076 39.0542386,56.572593 C39.3878508,59.5768382 41.8093854,62.0129054 45.5317316,63.0898285 C45.5736487,63.1020547 45.6172908,63.1139412 45.659553,63.1259976 L45.659553,71.6546103 C44.1369083,71.4046527 42.8768064,70.76991 42.4733323,70.0047546 C42.0053438,69.116828 40.8949706,68.7704194 39.9929757,69.2311088 C39.0911533,69.6917983 38.7390838,70.7850229 39.2070723,71.6731194 C40.3260704,73.7964001 42.9221735,74.9925284 45.659553,75.2980132 L45.659553,77.1886568 C45.659553,78.1888266 46.4832335,79 47.4994225,79 C48.5154389,79 49.3394645,78.1888266 49.3394645,77.1886568 L49.3394645,75.1669214 C49.7212038,75.0940737 50.0934556,75.003566 50.4505276,74.8926813 C53.3367733,73.9972831 55.4833452,71.5255561 55.9189041,68.5953473 C56.3158232,65.9268127 55.2397773,63.4569536 53.0409383,61.9891323" id="Fill-1" fill="#696969"></path>
                <g id="Group-5">
                    <ellipse id="Oval-3" fill="#FFFFFF" cx="22.5909091" cy="8.78494624" rx="20.7467532" ry="6.01075269"></ellipse>
                    <path d="M47.8887518,82.2559825 C39.1507635,82.2559825 31.7360023,76.4348051 29.2594824,68.437308 C29.2293864,68.340076 29.201452,68.2423411 29.1728525,68.1446062 C29.1249649,67.9811559 29.0790726,67.8165322 29.0353419,67.6514055 C29.0060773,67.5402593 28.9778103,67.4291131 28.9502084,67.3176316 C28.9277611,67.2257641 28.9044824,67.134232 28.8831991,67.0415263 C28.8401335,66.853768 28.7998946,66.6653392 28.7619836,66.4760721 C28.7465199,66.3987895 28.7322201,66.3211715 28.7177541,66.2435536 C28.686993,66.0790975 28.6580609,65.914306 28.6317892,65.7490117 C28.6233091,65.6973782 28.6141639,65.6460799 28.6063489,65.5942788 C28.5740913,65.3838889 28.5461569,65.1728285 28.5208829,64.9610975 C28.5135667,64.8997407 28.5067494,64.8382164 28.4999321,64.7765244 C28.4773185,64.571499 28.4570328,64.3659708 28.440904,64.1602749 C28.4394075,64.1421696 28.4377447,64.1243996 28.4362482,64.1061267 C28.4192881,63.8833314 28.4071499,63.6598655 28.3976721,63.4358967 C28.3953443,63.3797368 28.3933489,63.323577 28.3913536,63.2675848 C28.3835386,63.0411014 28.3783841,62.8139474 28.3783841,62.5866257 C28.3783841,62.3138733 28.3857002,62.0429649 28.3965082,61.7725595 C28.3983372,61.7284698 28.3995012,61.6838772 28.4014965,61.6399552 C28.4128033,61.3963723 28.4297635,61.153963 28.4497166,60.9127271 C28.4560351,60.8366179 28.4625199,60.7608441 28.4696698,60.6852378 C28.4899555,60.4709922 28.5138993,60.2575848 28.5406698,60.0456862 C28.5554684,59.9308519 28.5719297,59.8166881 28.5885574,59.702692 C28.6036885,59.5979162 28.6206487,59.4936433 28.6374426,59.3893704 C28.6786792,59.1355614 28.7234075,58.8830936 28.7744543,58.6328051 C28.7749532,58.6296199 28.7757845,58.62677 28.7764496,58.6235848 C30.2386838,51.444848 35.5926159,45.680501 42.5088806,43.6773548 C42.5369813,43.669308 42.565082,43.6609259 42.5933489,43.6530468 C42.7533068,43.6074483 42.9145948,43.5640292 43.0763817,43.5222865 C43.2609485,43.4755146 43.4466792,43.4304191 43.6335738,43.3888441 C43.7049063,43.3727505 43.7767377,43.3568246 43.8487354,43.3414016 C44.0933279,43.289768 44.3395831,43.241655 44.5878337,43.1990741 C45.6613138,43.0139981 46.763726,42.9162632 47.888918,42.9162632 C58.6461663,42.9162632 67.3984543,51.7403996 67.3984543,62.5864581 C67.3982881,73.4323489 58.646,82.2559825 47.8887518,82.2559825 Z M25.3410141,67.4643177 C24.5832927,67.4906374 23.8202506,67.5040487 23.0573747,67.5040487 C17.5469766,67.5040487 12.3899157,66.8354951 8.53662763,65.621269 C4.4638548,64.3381423 3.54733958,62.9661657 3.54733958,62.5866257 L3.54733958,58.3637407 C4.56345433,58.9454561 5.84993443,59.5067193 7.47844496,60.0195341 C11.6649508,61.3387037 17.1977963,62.0652612 23.0573747,62.0652612 C23.650815,62.0652612 24.2450867,62.0568791 24.8375293,62.0416238 C24.8335386,62.223347 24.8310445,62.4047349 24.8310445,62.5867934 C24.8310445,62.7903099 24.8338712,62.9929883 24.8388595,63.1951637 C24.8405222,63.2581969 24.8436815,63.32123 24.8460094,63.3844308 C24.8506651,63.5235731 24.8553208,63.6627154 24.8624707,63.8011871 C24.8662951,63.8774639 24.8721148,63.9537407 24.8767705,64.0296823 C24.8844192,64.1542398 24.8915691,64.2794678 24.9010468,64.4035224 C24.9076979,64.4876784 24.9158454,64.571499 24.9233279,64.6554873 C24.933637,64.7709922 24.943281,64.887 24.9550867,65.0021696 C24.9645644,65.0928635 24.9757049,65.1835575 24.9861803,65.2740838 C24.9983185,65.3812066 25.0102904,65.4884971 25.0239251,65.5952846 C25.0365621,65.694193 25.0510281,65.7929337 25.0651616,65.8913392 C25.0787963,65.9880682 25.0920984,66.0851326 25.106897,66.1815263 C25.1238571,66.289655 25.1421475,66.3971131 25.1604379,66.5049064 C25.1747377,66.5904035 25.1888712,66.6759006 25.2041686,66.76123 C25.225452,66.8790819 25.2483981,66.9967661 25.2715105,67.1144503 C25.285644,67.1868713 25.2997775,67.2597953 25.3145761,67.3320487 C25.323555,67.3756355 25.3315363,67.4200604 25.3410141,67.4643177 Z M8.53662763,5.4589883 C12.390082,4.24492982 17.5468103,3.57637622 23.0573747,3.57637622 C28.5676066,3.57637622 33.7246674,4.24492982 37.5779555,5.4589883 C41.6503958,6.74211501 42.5670773,8.1144269 42.5670773,8.49379922 C42.5670773,8.87350682 41.6503958,10.2458187 37.5779555,11.5289454 C33.7246674,12.7428363 28.5677728,13.4113899 23.0573747,13.4113899 C17.5468103,13.4113899 12.3899157,12.7428363 8.53662763,11.5287778 C4.4638548,10.2458187 3.54733958,8.87350682 3.54733958,8.49379922 C3.54733958,8.1144269 4.4638548,6.74211501 8.53662763,5.4589883 Z M3.54733958,40.333078 C4.56345433,40.9147934 5.84993443,41.4757212 7.47844496,41.9888713 C11.6649508,43.3077057 17.19763,44.0340955 23.0573747,44.0340955 C27.7267471,44.0340955 32.1859461,43.5715731 35.9243372,42.7169376 C33.8423911,43.9925205 31.9553208,45.6013743 30.3492576,47.4965595 C29.8853466,48.0444113 29.44937,48.6120448 29.0403302,49.1969454 C27.1115246,49.3800097 25.0987494,49.4732183 23.0573747,49.4732183 C20.4998782,49.4732183 18.0032389,49.3280409 15.6362951,49.0422125 C14.6642436,48.9245283 13.7808173,49.6240955 13.6642576,50.6046296 C13.5476979,51.5851637 14.2415691,52.4753392 15.2139532,52.5930234 C17.7204028,52.8957836 20.3593747,53.0496784 23.0573747,53.0496784 C24.3573232,53.0496784 25.6448009,53.0092768 26.9121593,52.9381969 C26.8990234,52.9671988 26.885555,52.9962008 26.8724192,53.0252027 C26.8717541,53.0270468 26.8709227,53.0283879 26.8700913,53.030232 C26.8077377,53.1698772 26.7470468,53.3100253 26.6871874,53.4510117 C26.6702272,53.4909103 26.6526019,53.5306413 26.6359742,53.5710429 C26.6083724,53.6369259 26.5821007,53.7034795 26.5551639,53.7696979 C25.9469251,55.2600292 25.4870047,56.8269727 25.1963536,58.4527583 C24.4858548,58.4757251 23.7708665,58.4888012 23.0572084,58.4888012 C17.546644,58.4888012 12.3895831,57.8200799 8.53646136,56.6061891 C4.46368852,55.3230624 3.54700703,53.9507505 3.54700703,53.5713782 L3.54700703,40.333078 L3.54733958,40.333078 Z M34.46626,32.2207466 C34.3121218,31.2452417 33.4005948,30.5808791 32.4355269,30.736115 C29.558281,31.1981345 26.3153934,31.4425556 23.0573747,31.4425556 C17.5469766,31.4425556 12.3899157,30.7738343 8.53662763,29.5599435 C4.4638548,28.2766491 3.54733958,26.9045049 3.54733958,26.5251326 L3.54733958,13.2866647 C4.56345433,13.8685478 5.84993443,14.4294756 7.47844496,14.9424581 C11.6651171,16.26146 17.1977963,16.9876823 23.0573747,16.9876823 C28.9169532,16.9876823 34.449466,16.2612924 38.6361382,14.9424581 C40.2644824,14.4294756 41.5509625,13.8685478 42.5670773,13.2866647 L42.5670773,17.5095497 C42.5670773,17.8890897 41.6503958,19.2612339 37.5779555,20.5445283 C33.7245012,21.7584191 28.5677728,22.4269727 23.0573747,22.4269727 C20.4998782,22.4269727 18.0032389,22.2817953 15.6362951,21.9957992 C14.6642436,21.8772768 13.7808173,22.5778499 13.6642576,23.558384 C13.5476979,24.5387505 14.2415691,25.4290936 15.2139532,25.5466101 C17.7204028,25.849538 20.3593747,26.0032651 23.0573747,26.0032651 C28.9169532,26.0032651 34.449466,25.2767076 38.6361382,23.9580409 C40.2644824,23.4450585 41.5509625,22.883963 42.5670773,22.3022476 L42.5670773,35.5400448 C42.5670773,35.9197524 41.6503958,37.2920643 37.5779555,38.575191 C33.7246674,39.7892495 28.5677728,40.4576355 23.0573747,40.4576355 C17.5468103,40.4576355 12.3897494,39.7892495 8.53662763,38.575191 C4.4638548,37.2920643 3.54733958,35.9197524 3.54733958,35.5400448 L3.54733958,31.3176628 C4.56345433,31.8993782 5.84993443,32.4604737 7.47844496,32.9734561 C11.6651171,34.2924581 17.1977963,35.018848 23.0573747,35.018848 C26.5481803,35.018848 29.8911663,34.7662125 32.9935504,34.2678148 C33.9611124,34.1125789 34.6203981,33.1959162 34.46626,32.2207466 Z M47.8887518,39.3399708 C47.2918197,39.3399708 46.6998759,39.3631053 46.1144169,39.4082008 L46.1144169,8.49379922 C46.1144169,6.62711306 44.81663,3.99279727 38.6361382,2.04530799 C34.449466,0.726473684 28.9169532,-8.38206628e-05 23.0573747,-8.38206628e-05 C17.1977963,-8.38206628e-05 11.6651171,0.726473684 7.47844496,2.04530799 C1.29762061,3.99279727 0,6.62711306 0,8.49379922 L0,62.5866257 C0,64.4533119 1.29745433,67.0876277 7.47844496,69.0349493 C11.6651171,70.3537836 17.1977963,71.0803411 23.0573747,71.0803411 C24.1742529,71.0803411 25.2911311,71.0520097 26.3937096,70.9985322 C29.7445105,79.6704503 38.1156932,85.8324425 47.8885855,85.8324425 C60.6022412,85.8324425 70.9452951,75.4043138 70.9452951,62.5866257 C70.9454614,49.7682671 60.6024075,39.3399708 47.8887518,39.3399708 Z" id="Fill-3" fill="#696969"></path>
                </g>
                <path d="M10.7459286,21.2658972 C10.5085702,21.200424 10.2756471,21.1328216 10.0479237,21.0630899 C9.17587645,20.7964063 8.28379441,21.3996826 8.05438878,22.4103478 C7.82452434,23.4211905 8.3443575,24.4566965 9.21579303,24.7232026 C9.46859804,24.800564 9.72721466,24.8757961 9.99072526,24.9483666 C10.117663,24.9836761 10.2447538,25 10.3697034,25 C11.1077778,25 11.7770305,24.4146446 11.9553551,23.5450395 C12.1638084,22.5283416 11.6224111,21.50774 10.7459286,21.2658972" id="Fill-6" fill="#696969"></path>
                <path d="M37.9575406,33 C38.1425328,33 38.3310121,32.9750204 38.517289,32.9229941 C38.902139,32.8153236 39.2902925,32.699384 39.6703709,32.5784486 C40.6942517,32.2526808 41.2428052,31.2092246 40.8959447,30.2479426 C40.5487171,29.2870052 39.4372953,28.7720819 38.4132309,29.0976774 C38.0790335,29.2039697 37.7380458,29.3061275 37.3992603,29.4005329 C36.3630833,29.6902957 35.7734204,30.7135959 36.0819244,31.6862479 C36.3357382,32.4843876 37.1138803,33 37.9575406,33" id="Fill-8" fill="#696969"></path>
                <path d="M9.21772922,51.7242171 C9.47037701,51.8012376 9.72868339,51.8757735 9.99173073,51.9485347 C10.1183605,51.9831407 10.2451432,52 10.3697848,52 C11.1083055,52 11.7775469,51.4138283 11.9555627,50.5437102 C12.1635536,49.526295 11.6215537,48.5058629 10.7449331,48.2648635 C10.5072729,48.1993783 10.2738949,48.1317636 10.0458695,48.0621968 C9.1755193,47.7975943 8.28253474,48.4015126 8.05374473,49.4130714 C7.82526058,50.4239204 8.34630843,51.4589048 9.21772922,51.7242171" id="Fill-10" fill="#696969"></path>
            </g>
        </g>
    </g>
</svg>