<?xml version="1.0" encoding="UTF-8"?>
<svg width="64px" height="65px" viewBox="0 0 64 65" version="1.1" xmlns="http://www.w3.org/2000/svg" xmlns:xlink="http://www.w3.org/1999/xlink">
    <!-- Generator: Sketch 50 (54983) - http://www.bohemiancoding.com/sketch -->
    <title>Group 23</title>
    <desc>Created with Sketch.</desc>
    <defs>
        <polygon id="path-1" points="0.00699931552 0.0622979042 17.056754 0.0622979042 17.056754 18.0305336 0.00699931552 18.0305336"></polygon>
    </defs>
    <g id="Page-1" stroke="none" stroke-width="1" fill="none" fill-rule="evenodd">
        <g id="Group-23">
            <ellipse id="Oval-2" fill="#F1F5F8" cx="32.0124309" cy="32.3158683" rx="31.8439227" ry="31.9086826"></ellipse>
            <ellipse id="Oval-2" fill="#F1F5F8" cx="31.9838142" cy="32.3158683" rx="31.8325336" ry="31.9086826"></ellipse>
            <path d="M46.7712056,47.0185082 C46.4972144,47.7508464 46.0868009,48.4188166 45.5548683,48.9823406 C44.2800642,50.3316405 42.4124534,50.812579 40.0028216,50.4107038 C35.2509667,49.6187341 28.657983,47.173963 24.4048149,42.6852031 C20.1080833,38.1150723 17.8003671,31.1317472 17.05291,26.0976807 C16.6734495,23.54482 17.1274264,21.5651991 18.4010841,20.2158993 C18.9330167,19.6523753 19.5635402,19.2163729 20.2548234,18.927324 L23.121986,30.6702405 C23.1449141,30.74311 23.1540854,30.7722578 23.1655494,30.8001911 C26.0338585,37.6098439 29.3939759,41.1659959 35.5662285,43.9373437 C35.6063527,43.9555611 35.6476233,43.9690419 35.6900404,43.9810654 L46.7712056,47.0185082 Z" id="Fill-8" fill="#C7D2DC"></path>
            <path d="M44.2305405,48.4446779 C43.030757,49.6462499 41.2731606,50.074533 39.0052247,49.716657 C34.5330103,49.0113959 28.3280152,46.8342902 24.3251406,42.8369813 L24.2690357,42.7807421 C20.2812662,38.7673186 18.1093561,32.5485615 17.405886,28.0655407 C17.0487562,25.7921794 17.4760172,24.029297 18.6747217,22.827725 C19.1753508,22.3258984 19.7687688,21.9376316 20.4194787,21.6802291 L23.1178046,32.1374747 C23.1188835,32.1385562 23.1188835,32.1407192 23.1199625,32.1418007 C23.1231993,32.1536975 23.1275151,32.1645127 23.1307519,32.1764095 C23.1394913,32.202366 23.148015,32.2284307 23.1588044,32.2531976 C23.1598833,32.2575237 23.1609623,32.2607683 23.1631202,32.2650944 C25.8583171,38.3172969 29.020696,41.4841042 34.8297194,43.9520315 C34.8675902,43.9682543 34.9063242,43.9802592 34.9462451,43.9909663 L45.3752979,46.6958552 C45.1175387,47.3480136 44.7312774,47.9428512 44.2305405,48.4446779 Z M25.1440576,22.2480287 L26.3567883,28.3251062 L24.3326932,30.3540433 L22.0949676,21.6835819 L25.1440576,22.2480287 Z M38.7462786,40.7442344 L44.8088534,41.9598662 L44.8811425,42.350296 L45.3720611,45.0162501 L36.7221835,42.7732796 L38.7462786,40.7442344 Z M47.1976308,45.9744794 L46.3043748,41.1227674 C46.2438461,40.7961475 45.9904027,40.538745 45.6655333,40.4738536 L38.6383844,39.0647374 C38.3729647,39.0116346 38.0978345,39.0949119 37.9069697,39.287423 L34.9625371,42.2378176 C29.9971384,40.0327004 27.2749679,37.2995837 24.8743221,32.1093551 L27.810231,29.1665311 C28.0010958,28.97402 28.0852533,28.6993132 28.0313062,28.432177 L26.6265238,21.3892995 C26.5617873,21.0626795 26.3049991,20.8096032 25.9780797,20.7490379 L21.1390251,19.8535369 C21.0322098,19.8340695 20.917842,19.8362325 20.8121057,19.860026 C19.5680856,20.143385 18.4319598,20.7717499 17.5289933,21.6780661 C15.9645274,23.2451929 15.3677647,25.5412661 15.8036572,28.3175356 C16.5470482,33.0524431 18.8592208,39.6389179 23.1253572,43.9336456 L23.1803832,43.9888033 C27.458388,48.2597374 34.0302234,50.5775493 38.7527523,51.3226105 C39.3418546,51.4145399 39.9082991,51.4611536 40.4511148,51.4611536 C42.4632336,51.4611536 44.1453041,50.8283545 45.3774558,49.5932552 C46.2805302,48.6880205 46.9084744,47.549285 47.1911572,46.3021809 C47.1988177,46.2675721 47.2030255,46.2318819 47.2062624,46.1961916 C47.213815,46.1226481 47.2105781,46.0469415 47.1976308,45.9744794 Z" id="Fill-1" fill="#696969"></path>
            <polygon id="Fill-4" fill="#FFFFFF" points="45.5217882 44.4191617 36.7403997 42.3394454 38.7952687 40.4580838 44.9500176 41.5852361 45.0234058 41.9473488"></polygon>
            <polygon id="Fill-6" fill="#FFFFFF" points="26.2027334 28.2755447 24.3259617 30.3353293 22.2511085 21.5329341 25.078271 22.1060725"></polygon>
            <g id="Group-12" transform="translate(30.154358, 17.131737)">
                <mask id="mask-2" fill="white">
                    <use xlink:href="#path-1"></use>
                </mask>
                <g id="Clip-11"></g>
                <path d="M15.4481957,12.9762131 L10.2479397,12.9762131 C10.0649301,12.9762131 9.88844889,13.038511 9.74493082,13.1534399 L6.76337224,15.5486869 L6.76337224,13.7839376 C6.76337224,13.3381854 6.40259712,12.9762131 5.95845095,12.9762131 L1.61545058,12.9762131 L1.61545058,1.67666216 L15.4481957,1.67666216 L15.4481957,12.9762131 Z M16.253117,0.0622871632 L0.811706554,0.0622871632 C0.367667409,0.0622871632 0.00699931552,0.423185367 0.00699931552,0.868937612 L0.00699931552,13.7839376 C0.00699931552,14.2296899 0.367667409,14.5905881 0.811706554,14.5905881 L5.15470692,14.5905881 L5.15470692,17.227508 C5.15470692,17.8891547 5.94346771,18.2736831 6.46145987,17.8580057 L10.5305879,14.5905881 L16.253117,14.5905881 C16.6972632,14.5905881 17.056754,14.2296899 17.056754,13.7839376 L17.056754,0.868937612 C17.056754,0.423185367 16.6972632,0.0622871632 16.253117,0.0622871632 Z" id="Fill-10" fill="#696969" mask="url(#mask-2)"></path>
            </g>
            <path d="M41.9823281,23.2629473 L35.0121137,23.2629473 C34.5598977,23.2629473 34.1946462,22.8954481 34.1946462,22.4428898 C34.1946462,21.9903315 34.5598977,21.6239229 35.0121137,21.6239229 L41.9823281,21.6239229 C42.4334571,21.6239229 42.7997956,21.9903315 42.7997956,22.4428898 C42.7997956,22.8954481 42.4334571,23.2629473 41.9823281,23.2629473 Z M41.9823281,27.6325885 L41.1105078,27.6325885 C40.6593788,27.6325885 40.2941274,27.2661798 40.2941274,26.8136215 C40.2941274,26.3610632 40.6593788,25.9935641 41.1105078,25.9935641 L41.9823281,25.9935641 C42.4334571,25.9935641 42.7997956,26.3610632 42.7997956,26.8136215 C42.7997956,27.2661798 42.4334571,27.6325885 41.9823281,27.6325885 Z M38.4972209,27.6325885 L35.0121137,27.6325885 C34.5598977,27.6325885 34.1946462,27.2661798 34.1946462,26.8136215 C34.1946462,26.3610632 34.5598977,25.9935641 35.0121137,25.9935641 L38.4972209,25.9935641 C38.9483499,25.9935641 39.3136013,26.3610632 39.3136013,26.8136215 C39.3136013,27.2661798 38.9483499,27.6325885 38.4972209,27.6325885 Z M31.4715665,18.8922156 L31.4715665,30.3642958 L35.882847,30.3642958 C36.3339759,30.3642958 36.7003144,30.7317949 36.7003144,31.1843532 L36.7003144,32.9760479 L39.7288574,30.5442286 C39.8745231,30.4275449 40.0538876,30.3642958 40.2397745,30.3642958 L45.5217882,30.3642958 L45.5217882,18.8922156 L31.4715665,18.8922156 Z" id="Fill-13" fill="#FFFFFF"></path>
            <path d="M42.4483022,22.412588 C42.4483022,22.8986817 42.0932539,23.2934132 41.655793,23.2934132 L34.898387,23.2934132 C34.4599776,23.2934132 34.1059831,22.8986817 34.1059831,22.412588 C34.1059831,21.9264943 34.4599776,21.5329341 34.898387,21.5329341 L41.655793,21.5329341 C42.0932539,21.5329341 42.4483022,21.9264943 42.4483022,22.412588" id="Fill-15" fill="#696969"></path>
            <path d="M38.9357468,26.8149569 C38.9357468,27.3010506 38.59113,27.6946108 38.1654872,27.6946108 L34.8772684,27.6946108 C34.4505999,27.6946108 34.1059831,27.3010506 34.1059831,26.8149569 C34.1059831,26.3288632 34.4505999,25.9341317 34.8772684,25.9341317 L38.1654872,25.9341317 C38.59113,25.9341317 38.9357468,26.3288632 38.9357468,26.8149569" id="Fill-17" fill="#696969"></path>
            <path d="M42.8873717,26.8149569 C42.8873717,27.3010506 42.502324,27.6946108 42.0279004,27.6946108 L41.1113977,27.6946108 C40.6370885,27.6946108 40.2529551,27.3010506 40.2529551,26.8149569 C40.2529551,26.3288632 40.6370885,25.9341317 41.1113977,25.9341317 L42.0279004,25.9341317 C42.502324,25.9341317 42.8873717,26.3288632 42.8873717,26.8149569" id="Fill-19" fill="#696969"></path>
        </g>
    </g>
</svg>