<?xml version="1.0" encoding="UTF-8"?>
<svg width="22px" height="22px" viewBox="0 0 22 22" version="1.1" xmlns="http://www.w3.org/2000/svg" xmlns:xlink="http://www.w3.org/1999/xlink">
    <!-- Generator: Sketch 50 (54983) - http://www.bohemiancoding.com/sketch -->
    <title>Page 1</title>
    <desc>Created with Sketch.</desc>
    <defs></defs>
    <g id="Page-1" stroke="none" stroke-width="1" fill="none" fill-rule="evenodd">
        <g id="Find-us" transform="translate(-376.000000, -838.000000)">
            <g id="Group-20" transform="translate(338.000000, 524.000000)">
                <g id="Group-19" transform="translate(19.000000, 180.000000)">
                    <g id="Group-14" transform="translate(20.000000, 134.000000)">
                        <g id="Page-1" transform="translate(0.000000, 1.000000)">
                            <path d="M20,16.8336819 C19.2581793,17.2593514 18.4739608,17.4749214 17.6550246,17.4749214 L17.6536787,17.4749214 C15.8491845,17.4749214 14.1586218,16.1664376 12.1064319,14.1118629 L6.65241245,8.65165486 C5.03267086,7.02794264 3.97423331,5.92420681 3.63279546,4.44748494 C3.34575014,3.20591593 3.5154596,2.03550324 4.13535239,0.952380952 C3.860104,1.03515222 3.60742019,1.1852346 3.39820291,1.39473947 L2.49170025,2.30070429 C1.05849259,3.73580268 0.701378289,5.2005132 1.11110371,6.97264287 C1.45258115,8.44936474 2.4483129,10.0226134 4.06797532,11.646286 L9.31899261,16.9032129 C11.3712221,18.9577876 13.3274532,20 15.1319473,20 L15.1333329,20 C16.4620704,20 17.5372929,19.5972829 18.6499646,18.4830025 L19.5564673,17.5752934 C19.7698016,17.3623794 19.9182924,17.1067716 20,16.8336819" id="Fill-1" fill="#75DEC5"></path>
                            <g id="Group-5" fill="#696969" stroke="#696969" stroke-width="0.5">
                                <path d="M5.78898828,8.65165625 L11.170707,14.032125 C13.2598477,16.1207578 15.0583242,17.5118516 17.0461758,17.5118516 C17.2647695,17.5118516 17.4814883,17.4979062 17.6961758,17.4702109 L17.6276602,17.5387266 C16.6836367,18.4826719 15.7943398,18.86775 14.5578945,18.86775 L14.5565664,18.86775 C12.9314492,18.86775 11.1362539,17.8968125 9.22094141,15.9819297 L4.03973047,10.8019687 C2.51656641,9.27716406 1.58570703,7.81935156 1.27301172,6.46903906 C0.895550781,4.83864844 1.25766016,3.61970313 2.48367578,2.39376563 L2.55031641,2.32732031 C2.47129297,2.94583594 2.50699609,3.58349219 2.65816797,4.23622656 C3.02558984,5.82341406 4.08715234,6.94798437 5.78898828,8.65165625 M13.3477773,13.9472422 C13.3517227,13.9445859 13.355707,13.9418125 13.3596133,13.9390391 C13.5735195,13.7859922 14.1931289,13.0529062 14.3778945,12.8318906 C14.3972695,12.8086875 14.4147695,12.7840391 14.4302383,12.7580234 C14.5562539,12.5459922 14.743832,12.4429453 15.0036367,12.4429453 C15.2132461,12.4429453 15.4447695,12.5116172 15.6735195,12.6415391 C16.5758633,13.1763828 18.2323477,14.3297031 18.728207,15.2673203 C18.8411758,15.4806406 18.8828555,15.7143125 18.8591836,15.9400937 C18.2793398,16.2316172 17.6704727,16.3795469 17.0448086,16.3795469 C15.7322695,16.3795469 14.4272305,15.5293906 12.955082,14.1780625 C13.0845352,14.1136875 13.2153555,14.0370469 13.3477773,13.9472422 M19.4264102,17.334 C20.0572695,16.6178672 20.1821914,15.5935703 19.7290273,14.7377109 C18.988832,13.3379844 16.6998477,11.9334141 16.2466836,11.6649766 C16.2440664,11.6634531 16.2414883,11.6619297 16.238832,11.6604062 C15.838168,11.4315781 15.4110195,11.3106406 15.0036758,11.3106406 C14.3658242,11.3106406 13.8143398,11.6111484 13.4828555,12.137125 C13.0944961,12.6002109 12.7793008,12.9440391 12.692543,13.0234141 C12.4379727,13.1934531 12.2289102,13.2834141 12.0324648,13.2920469 C12.0121133,13.2717734 11.9918398,13.2518125 11.9714102,13.2313437 L6.58984766,7.85114844 C5.03027734,6.28985937 4.05930078,5.26767187 3.76133203,3.98083594 C3.53156641,2.98853125 3.63957422,2.04247656 4.08031641,1.16458594 C4.12199609,1.16013281 4.16402734,1.1574375 4.20656641,1.1574375 C4.39652734,1.1574375 4.58707422,1.20466406 4.75578516,1.2930625 C5.58832422,1.73329687 6.54422266,3.03915625 7.16129297,4.11439062 C7.16851953,4.12700781 7.17418359,4.1368125 7.17816797,4.14372656 C7.35691797,4.45946875 7.42043359,4.77970312 7.35226953,5.02353125 C7.30859766,5.18040625 7.21156641,5.304625 7.06379297,5.39275 C6.79527734,5.55294531 6.70742578,5.90044531 6.86758203,6.169 C7.02777734,6.43759375 7.37531641,6.52540625 7.64383203,6.36521094 C8.04426172,6.12638281 8.32070703,5.76732031 8.44289453,5.32767187 C8.59402734,4.78732031 8.49387109,4.16704687 8.16090234,3.58126562 C8.15961328,3.57892187 8.15699609,3.57450781 8.15570703,3.57224219 L8.14336328,3.55083594 C7.71051172,2.79661719 6.56562891,0.969273437 5.28312891,0.291070312 C4.95101953,0.117085937 4.57875391,0.0251328125 4.20648828,0.0251328125 C3.69078516,0.0251328125 3.20121484,0.194234375 2.80000391,0.505054687 C2.79426172,0.509507813 2.78859766,0.513960937 2.78293359,0.518375 C2.75391016,0.541304687 2.72543359,0.564976562 2.69734766,0.589351562 C2.69004297,0.59571875 2.68262109,0.601890625 2.67539453,0.608335937 C2.64230859,0.637828125 2.60976953,0.6680625 2.57824609,0.699664062 L1.68340234,1.59275 C0.186722656,3.08935156 -0.294175781,4.72001562 0.169886719,6.72450781 C0.192464844,6.82200781 0.217699219,6.91978125 0.245472656,7.01790625 C0.262738281,7.07888281 0.281410156,7.14005469 0.300746094,7.20126562 C0.632777344,8.25411719 1.26328516,9.3411875 2.18363672,10.4490391 C2.22023828,10.4931016 2.25730859,10.5372031 2.29484766,10.5813828 C2.33476953,10.6282969 2.37516016,10.6752891 2.41609766,10.7222812 C2.47547266,10.7904453 2.53590234,10.8586875 2.59742578,10.9269687 C2.75277734,11.0993516 2.91461328,11.272125 3.08375391,11.4453672 C3.13488672,11.4977109 3.18656641,11.5501328 3.23894922,11.6025156 L8.42039453,16.7826328 C8.62058984,16.98275 8.82016016,17.1736875 9.01902734,17.3552891 C10.9417227,19.1109531 12.8017617,20.0000156 14.5565664,20.0000156 L14.5578945,20.0000156 C16.0860977,20.0000156 17.2798086,19.4878672 18.4283242,18.3393125 L19.3221133,17.4455625 C19.3534805,17.4143125 19.3834023,17.3820859 19.4126602,17.3494687 C19.4173086,17.3443906 19.4218789,17.3392344 19.4264102,17.334" id="Fill-3"></path>
                            </g>
                        </g>
                    </g>
                </g>
            </g>
        </g>
    </g>
</svg>