<?xml version="1.0" encoding="UTF-8"?>
<svg width="23px" height="23px" viewBox="0 0 23 23" version="1.1" xmlns="http://www.w3.org/2000/svg" xmlns:xlink="http://www.w3.org/1999/xlink">
    <!-- Generator: Sketch 51.1 (57501) - http://www.bohemiancoding.com/sketch -->
    <title>contact_green</title>
    <desc>Created with Sketch.</desc>
    <defs></defs>
    <g id="Symbols" stroke="none" stroke-width="1" fill="none" fill-rule="evenodd">
        <g id="navigation/footer" transform="translate(-103.000000, -214.000000)">
            <g id="Group-6" transform="translate(103.000000, 91.000000)">
                <g id="Group-22" transform="translate(1.000000, 124.000000)">
                    <g id="contact_green">
                        <path d="M21,17.675366 C20.2210882,18.1223189 19.3976589,18.3486674 18.5377758,18.3486674 L18.5363626,18.3486674 C16.6416438,18.3486674 14.8665529,16.9747595 12.7117535,14.8174561 L6.98503308,9.0842376 C5.28430441,7.37933977 4.17294498,6.22041715 3.81443523,4.66985919 C3.51303764,3.36621172 3.69123258,2.13727841 4.34212001,1 C4.0531092,1.08690983 3.7877912,1.24449634 3.56811305,1.46447644 L2.61628527,2.4157395 C1.11141722,3.92259281 0.736447204,5.46053886 1.1666589,7.32127501 C1.52521021,8.87183297 2.57072855,10.5237441 4.27137409,12.2286003 L9.78494224,17.7483736 C11.9397833,19.905677 13.9938259,21 15.8885447,21 L15.8899995,21 C17.285174,21 18.4141575,20.577147 19.5824629,19.4071526 L20.5342906,18.4540581 C20.7582917,18.2304984 20.9142071,17.9621101 21,17.675366" id="Fill-1" fill="#75DEC5"></path>
                        <g id="Group-5" fill="#FFFFFF" stroke="#FFFFFF" stroke-width="0.5">
                            <path d="M6.0784377,9.08423906 L11.7292424,14.7337312 C13.92284,16.9267957 15.8112404,18.3874441 17.8984846,18.3874441 C18.128008,18.3874441 18.3555627,18.3728016 18.5809846,18.3437215 L18.5090432,18.4156629 C17.5178186,19.4068055 16.5840568,19.8111375 15.2857893,19.8111375 L15.2843947,19.8111375 C13.5780217,19.8111375 11.6930666,18.7916531 9.68198848,16.7810262 L4.24171699,11.3420672 C2.64239473,9.74102227 1.66499238,8.21031914 1.3366623,6.79249102 C0.94032832,5.08058086 1.32054316,3.80068828 2.60785957,2.51345391 L2.67783223,2.44368633 C2.59485762,3.09312773 2.6323459,3.7626668 2.79107637,4.44803789 C3.17686934,6.11458477 4.29150996,7.29538359 6.0784377,9.08423906 M14.0151662,14.6446043 C14.0193088,14.6418152 14.0234924,14.6389031 14.0275939,14.635991 C14.2521955,14.4752918 14.9027854,13.7055516 15.0967893,13.4734852 C15.117133,13.4491219 15.135508,13.423241 15.1517502,13.3959246 C15.2840666,13.1732918 15.4810236,13.0650926 15.7538186,13.0650926 C15.9739084,13.0650926 16.217008,13.137198 16.4571955,13.273616 C17.4046564,13.835202 19.143965,15.0461883 19.6646174,16.0306863 C19.7832346,16.2546727 19.8269982,16.5000281 19.8021428,16.7370984 C19.1933068,17.043198 18.5539963,17.1985242 17.897049,17.1985242 C16.518883,17.1985242 15.148592,16.3058602 13.6028361,14.8869656 C13.7387619,14.8193719 13.8761232,14.7388992 14.0151662,14.6446043 M20.3977307,18.2007 C21.060133,17.4487605 21.191301,16.3732488 20.7154787,15.4745965 C19.9382736,14.0048836 17.53484,12.5300848 17.0590178,12.2482254 C17.0562697,12.2466258 17.0535627,12.2450262 17.0507736,12.2434266 C16.6300764,12.003157 16.1815705,11.8761727 15.7538596,11.8761727 C15.0841154,11.8761727 14.5050568,12.1917059 14.1569982,12.7439812 C13.7492209,13.2302215 13.4182658,13.591241 13.3271701,13.6745848 C13.0598713,13.8531258 12.8403557,13.9475848 12.6340881,13.9566492 C12.6127189,13.9353621 12.5914318,13.9144031 12.5699807,13.8929109 L6.91934004,8.24370586 C5.28179121,6.60435234 4.26226582,5.53105547 3.94939863,4.17987773 C3.70814473,3.13795781 3.82155293,2.14460039 4.28433223,1.22281523 C4.3280959,1.21813945 4.37222871,1.21530937 4.41689473,1.21530937 C4.61635371,1.21530937 4.81642793,1.26489727 4.99357441,1.35771562 C5.86774043,1.81996172 6.87143379,3.19111406 7.51935762,4.32011016 C7.52694551,4.3333582 7.53289277,4.34365312 7.53707637,4.35091289 C7.72476387,4.68244219 7.79145527,5.01868828 7.71988301,5.27470781 C7.67402754,5.43942656 7.57214473,5.56985625 7.41698262,5.6623875 C7.13504121,5.83059258 7.04279707,6.19546758 7.21096113,6.47745 C7.37916621,6.75947344 7.74408223,6.85167656 8.02602363,6.68347148 C8.4464748,6.43270195 8.73674238,6.05568633 8.86503926,5.59405547 C9.02372871,5.02668633 8.91856465,4.37539922 8.56894746,3.76032891 C8.56759395,3.75786797 8.5648459,3.7532332 8.56349238,3.7508543 L8.55053145,3.72837773 C8.0960373,2.93644805 6.89391035,1.01773711 5.54728535,0.305623828 C5.19857051,0.122940234 4.8076916,0.0263894531 4.4168127,0.0263894531 C3.87532441,0.0263894531 3.36127559,0.203946094 2.9400041,0.530307422 C2.9339748,0.534983203 2.92802754,0.539658984 2.92208027,0.54429375 C2.89160566,0.568369922 2.86170527,0.593225391 2.83221504,0.618819141 C2.82454512,0.625504687 2.81675215,0.631985156 2.80916426,0.638752734 C2.77442402,0.669719531 2.74025801,0.701465625 2.7071584,0.734647266 L1.76757246,1.6723875 C0.196058789,3.24381914 -0.30888457,4.95601641 0.178381055,7.0607332 C0.202088086,7.1631082 0.22858418,7.26577031 0.257746289,7.36880156 C0.275875195,7.43282695 0.295480664,7.49705742 0.315783398,7.56132891 C0.664416211,8.66682305 1.32644941,9.80824687 2.29281855,10.971491 C2.3312502,11.0177566 2.37017402,11.0640633 2.40959004,11.110452 C2.45150801,11.1597117 2.49391816,11.2090535 2.53690254,11.2583953 C2.59924629,11.3299676 2.66269746,11.4016219 2.72729707,11.4733172 C2.89041621,11.6543191 3.06034395,11.8357312 3.2379416,12.0176355 C3.29163105,12.0725965 3.34589473,12.1276395 3.40089668,12.1826414 L8.84141426,17.6217645 C9.05161934,17.8318875 9.26116816,18.0323719 9.46997871,18.2230535 C11.4888088,20.0665008 13.4418498,21.0000164 15.2843947,21.0000164 L15.2857893,21.0000164 C16.8904025,21.0000164 18.143799,20.4622605 19.3497404,19.2562781 L20.2882189,18.3178406 C20.3211545,18.2850281 20.3525725,18.2511902 20.3832932,18.2169422 C20.388174,18.2116102 20.3929729,18.2061961 20.3977307,18.2007" id="Fill-3"></path>
                        </g>
                    </g>
                </g>
            </g>
        </g>
    </g>
</svg>