<?xml version="1.0" encoding="UTF-8"?>
<svg width="50px" height="50px" viewBox="0 0 50 50" version="1.1" xmlns="http://www.w3.org/2000/svg" xmlns:xlink="http://www.w3.org/1999/xlink">
    <!-- Generator: Sketch 50 (54983) - http://www.bohemiancoding.com/sketch -->
    <title>Crosshair</title>
    <desc>Created with Sketch.</desc>
    <defs></defs>
    <g id="Page-1" stroke="none" stroke-width="1" fill="none" fill-rule="evenodd">
        <g id="Find-us" transform="translate(-1276.000000, -1049.000000)">
            <g id="Group-20" transform="translate(338.000000, 524.000000)">
                <g id="Map-buttons" transform="translate(938.000000, 180.000000)">
                    <g id="Crosshair" transform="translate(0.000000, 345.000000)">
                        <rect id="Background" fill-opacity="0.66" fill="#FFFFFF" x="0" y="0" width="50" height="50" rx="12"></rect>
                        <path d="M26.0869565,35.2703804 L26.0869565,32.4774457 C26.0869565,31.8771739 25.6002717,31.3904891 25,31.3904891 C24.3997283,31.3904891 23.9130435,31.8771739 23.9130435,32.4774457 L23.9130435,35.2668478 C19.0217391,34.7535326 15.2383152,30.9097826 14.7315217,26.0869565 L17.5225543,26.0869565 C18.1228261,26.0869565 18.6095109,25.6002717 18.6095109,25 C18.6095109,24.3997283 18.1228261,23.9130435 17.5225543,23.9130435 L14.7315217,23.9130435 C15.2394022,19.0809783 19.0217391,15.23125 23.9130435,14.7298913 L23.9130435,17.5225543 C23.9130435,18.1228261 24.3997283,18.6095109 25,18.6095109 C25.6002717,18.6095109 26.0869565,18.1228261 26.0869565,17.5225543 L26.0869565,14.7334239 C30.9782609,15.2467391 34.7616848,19.0904891 35.2684783,23.9130435 L32.4774457,23.9130435 C31.8771739,23.9130435 31.3904891,24.3997283 31.3904891,25 C31.3904891,25.6002717 31.8771739,26.0869565 32.4774457,26.0869565 L35.2684783,26.0869565 C34.7605978,30.9190217 30.9782609,34.7690217 26.0869565,35.2703804 M25.01875,12.5005435 C25.0171196,12.5005435 25.0154891,12.5 25.0138587,12.5 L25.0111413,12.5 L25,12.5 C18.1076087,12.5 12.5,18.1076087 12.5,25 C12.5,31.886413 18.0975543,37.4894022 24.98125,37.4997283 C24.9828804,37.4997283 24.9845109,37.5 24.9861413,37.5 L24.9888587,37.5 L25,37.5 C31.8923913,37.5 37.5,31.892663 37.5,25 C37.5,18.1138587 31.9024457,12.5105978 25.01875,12.5005435" fill="#8E8E93"></path>
                    </g>
                </g>
            </g>
        </g>
    </g>
</svg>