<?xml version="1.0" encoding="UTF-8"?>
<svg width="22px" height="22px" viewBox="0 0 22 22" version="1.1" xmlns="http://www.w3.org/2000/svg" xmlns:xlink="http://www.w3.org/1999/xlink">
    <!-- Generator: Sketch 50 (54983) - http://www.bohemiancoding.com/sketch -->
    <title>Page 1</title>
    <desc>Created with Sketch.</desc>
    <defs></defs>
    <g id="Page-1" stroke="none" stroke-width="1" fill="none" fill-rule="evenodd">
        <g id="Find-us" transform="translate(-616.000000, -739.000000)">
            <g id="Group-20" transform="translate(338.000000, 524.000000)">
                <g id="Group-19" transform="translate(19.000000, 180.000000)">
                    <g id="Group-17" transform="translate(260.000000, 36.000000)">
                        <g id="Page-1">
                            <path d="M4.00882759,2.74806897 C4.17365517,2.61151724 4.344,2.48048276 4.51848276,2.35565517" id="Stroke-1" stroke="#696969" stroke-width="1.697" stroke-linecap="round" stroke-linejoin="round"></path>
                            <path d="M7.34027586,0.980137931 C8.17406897,0.736 9.05613793,0.606344828 9.96924138,0.606344828 C15.1395862,0.606344828 19.3313103,4.79806897 19.3313103,9.96841379 C19.3313103,15.1394483 15.1395862,19.3311724 9.96924138,19.3311724 C4.79751724,19.3311724 0.605793103,15.1394483 0.605793103,9.96841379 C0.605793103,8.66565517 0.872689655,7.42427586 1.35406897,6.296" id="Stroke-3" stroke="#696969" stroke-width="1.697" stroke-linecap="round" stroke-linejoin="round"></path>
                            <path d="M9.96889655,12.3096552 L6.21441379,14.4544828 C7.23027586,15.3068966 8.53924138,15.8206897 9.96889655,15.8206897 C11.3985517,15.8206897 12.7068276,15.3068966 13.7233793,14.4544828 L9.96889655,12.3096552 Z" id="Fill-5" fill="#75DEC5"></path>
                            <path d="M4.11696552,9.96855172 C4.11696552,11.6761379 4.85213793,13.2064828 6.01765517,14.2761379 L9.96868966,4.11751724 C6.73696552,4.11751724 4.11696552,6.73682759 4.11696552,9.96855172" id="Fill-7" fill="#75DEC5"></path>
                            <path d="M9.96889655,4.11731034 L13.919931,14.275931 C15.0854483,13.2069655 15.8206207,11.675931 15.8206207,9.96834483 C15.8206207,6.73731034 13.2006207,4.11731034 9.96889655,4.11731034" id="Fill-9" fill="#75DEC5"></path>
                            <polygon id="Stroke-11" stroke="#696969" stroke-width="1.697" stroke-linecap="round" stroke-linejoin="round" points="9.96889655 4.11731034 5.87303448 14.6497241 9.96889655 12.3097241 14.0647586 14.6497241"></polygon>
                        </g>
                    </g>
                </g>
            </g>
        </g>
    </g>
</svg>