<?xml version="1.0" encoding="UTF-8"?>
<svg width="77px" height="138px" viewBox="0 0 77 138" version="1.1" xmlns="http://www.w3.org/2000/svg" xmlns:xlink="http://www.w3.org/1999/xlink">
    <!-- Generator: Sketch 49.3 (51167) - http://www.bohemiancoding.com/sketch -->
    <title>education</title>
    <desc>Created with Sketch.</desc>
    <defs>
        <polygon id="path-1" points="0.106915254 0.000526366292 75.676678 0.000526366292 75.676678 14.475073 0.106915254 14.475073"></polygon>
        <polygon id="path-3" points="0.158404494 0.197116436 17.902839 0.197116436 17.902839 16.9601451 0.158404494 16.9601451"></polygon>
    </defs>
    <g id="Page-1" stroke="none" stroke-width="1" fill="none" fill-rule="evenodd">
        <g id="Landing" transform="translate(-449.000000, -1313.000000)">
            <g id="Group" transform="translate(-180.000000, -178.000000)">
                <g id="Group-6" transform="translate(472.500000, 1491.000000)">
                    <g id="education" transform="translate(157.000000, 0.000000)">
                        <path d="M51.8046381,63.2990589 C51.8046381,58.0833463 52.4244191,53.1084612 53.5423539,48.5340684 L48.3926079,48.5340684 L29.3139634,48.5340684 L24.1668052,48.5340684 C25.2834461,53.1084612 25.9006392,58.0833463 25.9006392,63.2990589 C25.9006392,77.4692985 21.3616169,89.9045153 14.5168539,97.0681368 L29.3139634,97.0681368 L48.3926079,97.0681368 L63.1910112,97.0681368 C56.3462483,89.9045153 51.8046381,77.4692985 51.8046381,63.2990589" id="Fill-3" fill="#C7D2DC"></path>
                        <path d="M19.10791,93.5541542 L56.0381574,93.5541542 C50.7615035,85.7052795 47.7129952,74.735375 47.7129952,63.0611846 C47.7129952,59.0193662 48.0750689,55.0427595 48.7916202,51.1965761 L26.3557132,51.1965761 C27.0709985,55.0375426 27.4318062,59.0141493 27.4318062,63.0611846 C27.4318062,74.735375 24.3845639,85.7052795 19.10791,93.5541542 Z M61.3857069,98.7710866 L13.7603605,98.7710866 L11.9550562,94.3353899 C18.4749141,87.4972958 22.3678389,75.8074546 22.3678389,63.0611846 C22.3678389,58.2916041 21.8234624,53.635492 20.7461034,49.2258799 L23.2021275,45.9796438 L51.9439399,45.9796438 L54.399964,49.2258799 C53.322605,53.6420132 52.7769625,58.2981253 52.7769625,63.0611846 C52.7769625,75.8061503 56.6698874,87.4959915 63.1910112,94.3353899 L61.3857069,98.7710866 Z" id="Fill-5" fill="#696969"></path>
                        <path d="M55.1183232,99.6225615 L19.1776238,99.6225615 C10.8684655,104.048568 5.12359551,113.516102 5.12359551,124.485922 C5.12359551,125.290531 5.16679957,126.080797 5.22906425,126.869758 L69.0668827,126.869758 C69.126606,126.080797 69.1685393,125.290531 69.1685393,124.485922 C69.1685393,113.516102 63.4262108,104.048568 55.1183232,99.6225615" id="Fill-7" fill="#FFFFFF"></path>
                        <path d="M7.64899124,123.373696 L66.6431436,123.373696 C66.5681262,114.116857 61.8331328,105.587879 54.4903329,101.415673 L19.8068878,101.415673 C12.4602735,105.587879 7.72528007,114.116857 7.64899124,123.373696 Z M71.4353536,128.572708 L2.86441011,128.572708 L2.676231,126.182462 C2.59739921,125.199849 2.56179775,124.379705 2.56179775,123.598554 C2.56179775,112.115238 8.62040235,101.48196 17.9962996,96.5091063 L18.5455791,96.216662 L55.7503701,96.216662 L56.3009212,96.5091063 C65.6742754,101.48196 71.7303371,112.115238 71.7303371,123.598554 C71.7303371,124.382305 71.6947356,125.225844 71.6209898,126.177263 L71.4353536,128.572708 Z" id="Fill-9" fill="#696969"></path>
                        <path d="M73.4382022,133.559918 C73.4382022,135.037105 72.2765065,136.235982 70.8451314,136.235982 L5.15486856,136.235982 C3.72219694,136.235982 2.56179775,135.037105 2.56179775,133.559918 L2.56179775,129.545822 C2.56179775,128.068634 3.72219694,126.869758 5.15486856,126.869758 L70.8451314,126.869758 C72.2765065,126.869758 73.4382022,128.068634 73.4382022,129.545822 L73.4382022,133.559918 Z" id="Fill-11" fill="#FFFFFF"></path>
                        <g id="Group-15" transform="translate(0.000000, 123.463858)">
                            <mask id="mask-2" fill="white">
                                <use xlink:href="#path-1"></use>
                            </mask>
                            <g id="Clip-14"></g>
                            <path d="M5.25945763,5.26418929 L5.25945763,9.21193648 L70.528,9.21193648 L70.5241356,5.26418929 L5.25945763,5.26418929 Z M70.5241356,14.4755994 L5.25945763,14.4755994 C2.41783051,14.4755994 0.106915254,12.1135307 0.106915254,9.21193648 L0.106915254,5.26418929 C0.106915254,2.36127919 2.41783051,0.000526366292 5.25945763,0.000526366292 L70.5241356,0.000526366292 C73.3657627,0.000526366292 75.676678,2.36127919 75.676678,5.26418929 L75.676678,9.21193648 C75.676678,12.1135307 73.3657627,14.4755994 70.5241356,14.4755994 Z" id="Fill-13" fill="#696969" mask="url(#mask-2)"></path>
                        </g>
                        <path d="M51.2359551,39.5959672 C51.2359551,40.7670433 50.1927716,41.7222693 48.908352,41.7222693 L27.9442766,41.7222693 C26.657249,41.7222693 25.6179775,40.7670433 25.6179775,39.5959672 C25.6179775,38.4141582 26.657249,37.4648949 27.9442766,37.4648949 L48.908352,37.4648949 C50.1927716,37.4648949 51.2359551,38.4141582 51.2359551,39.5959672" id="Fill-16" fill="#FFFFFF"></path>
                        <path d="M49.5942131,44.276694 L28.1123158,44.276694 C25.3236911,44.276694 23.0561798,41.9861478 23.0561798,39.1705442 C23.0561798,36.3508913 25.3236911,34.0589954 28.1123158,34.0589954 L49.5942131,34.0589954 C52.3828379,34.0589954 54.6516854,36.3508913 54.6516854,39.1705442 C54.6516854,41.9861478 52.3828379,44.276694 49.5942131,44.276694" id="Fill-18" fill="#282D33"></path>
                        <path d="M44.4044944,9.36818329 C44.4044944,12.6589354 41.7252517,15.3265479 38.4276214,15.3265479 C35.1286809,15.3265479 32.4494382,12.6589354 32.4494382,9.36818329 C32.4494382,6.07743115 35.1286809,3.40589954 38.4276214,3.40589954 C41.7252517,3.40589954 44.4044944,6.07743115 44.4044944,9.36818329" id="Fill-20" fill="#FFFFFF"></path>
                        <g id="Group-24" transform="translate(29.033708, 0.000000)">
                            <mask id="mask-4" fill="white">
                                <use xlink:href="#path-3"></use>
                            </mask>
                            <g id="Clip-23"></g>
                            <path d="M9.03062172,5.30558258 C7.12016105,5.30558258 5.56529213,6.77437676 5.56529213,8.58035499 C5.56529213,10.385056 7.12016105,11.8512958 9.03062172,11.8512958 C10.9410824,11.8512958 12.4959513,10.385056 12.4959513,8.58035499 C12.4959513,6.77437676 10.9410824,5.30558258 9.03062172,5.30558258 M9.03062172,16.9601451 C4.13886891,16.9601451 0.158404494,13.2025864 0.158404494,8.58035499 C0.158404494,3.95812357 4.13886891,0.196733272 9.03062172,0.196733272 C13.9237266,0.196733272 17.902839,3.95812357 17.902839,8.58035499 C17.902839,13.2025864 13.9237266,16.9601451 9.03062172,16.9601451" id="Fill-22" fill="#696969" mask="url(#mask-4)"></path>
                        </g>
                        <path d="M59.7746966,27.0185204 C59.8625213,29.7433095 50.0390666,32.795175 38.0006206,33.2075205 C25.9673407,32.795175 16.1413029,29.7458548 16.2252531,27.0185204 C16.2252531,24.3980904 25.3796899,14.7919682 38.0006206,14.475073 C50.6215513,14.7919682 59.7759881,24.3980904 59.7746966,27.0185204" id="Fill-25" fill="#FFFFFF"></path>
                        <path d="M19.8659935,28.153338 C21.6828408,29.5619418 28.6947358,31.8133338 38.8538542,32.1865875 C49.0116823,31.8133338 56.0235773,29.5619418 57.841715,28.153338 C56.4584335,25.5933194 49.0994278,18.3445493 38.8538542,18.0504307 C28.6095711,18.3445493 21.2492749,25.5906815 19.8659935,28.153338 Z M38.8538542,37.4648949 L38.7648184,37.463576 C38.5196472,37.4530247 14.2748008,36.4954906 14.5186816,28.3313919 C14.5173912,23.4698623 25.7526819,13.112404 38.7880451,12.7747611 L38.8538542,12.7721233 L38.9196633,12.7747611 C51.9588977,13.112404 63.1916077,23.4698623 63.1890269,28.4118459 C63.4432307,36.4954906 39.1893516,37.4530247 38.9428901,37.463576 L38.8538542,37.4648949 Z" id="Fill-27" fill="#696969"></path>
                        <path d="M59.7515873,29.4354112 C59.7631989,30.4508606 54.0503219,46.2109969 38.0005953,46.8311187 C21.9521589,46.2109969 16.239282,30.4508606 16.2483132,29.4354112 C15.6664461,28.1951677 25.9284658,25.5234764 38.0005953,24.6927717 C50.0714347,25.5234764 60.3347446,28.1951677 59.7515873,29.4354112" id="Fill-29" fill="#FFFFFF"></path>
                        <path d="M20.1910629,31.5506062 C21.7743751,35.2641338 27.1290131,45.2483927 38.8542907,45.7694031 C50.5885938,45.2483927 55.9393638,35.2614756 57.5188079,31.5506062 C54.6177881,30.5218766 47.5264061,28.9482128 38.8542907,28.3182157 C30.1821753,28.9482128 23.0920828,30.5218766 20.1910629,31.5506062 Z M38.8542907,51.0884931 L38.7537221,51.0858349 C22.4873813,50.4398884 15.4192076,35.3824244 14.6159474,31.1944053 C14.4160993,30.4368137 14.5192467,29.6127668 14.9189428,28.9109978 C17.3622462,24.6259538 38.4649094,23.0177331 38.6776509,23.0017839 L38.8542907,22.9898219 L39.0296413,23.0017839 C39.2423827,23.0177331 60.348914,24.6259538 62.7883494,28.9123269 C63.1880454,29.6127668 63.2924821,30.4354846 63.0913448,31.1930762 C62.2945313,35.3877408 55.2495657,50.4385593 38.9535701,51.0858349 L38.8542907,51.0884931 Z" id="Fill-31" fill="#696969"></path>
                        <path d="M66.6067416,102.055347 C66.6067416,103.532534 65.4411054,104.731411 64.0048751,104.731411 L13.7029901,104.731411 C12.2654589,104.731411 11.1011236,103.532534 11.1011236,102.055347 L11.1011236,98.041251 C11.1011236,96.5627257 12.2654589,95.3651871 13.7029901,95.3651871 L64.0048751,95.3651871 C65.4411054,95.3651871 66.6067416,96.5627257 66.6067416,98.041251 L66.6067416,102.055347 Z" id="Fill-33" fill="#FFFFFF"></path>
                        <path d="M12.8822572,98.0744253 L12.8822572,102.022173 L63.1216404,102.022173 L63.1177428,98.0744253 L12.8822572,98.0744253 Z M63.1177428,107.285835 L12.8822572,107.285835 C10.0161867,107.285835 7.68539326,104.922451 7.68539326,102.022173 L7.68539326,98.0744253 C7.68539326,95.1715152 10.0161867,92.8107624 12.8822572,92.8107624 L63.1177428,92.8107624 C65.9838133,92.8107624 68.3146067,95.1715152 68.3146067,98.0744253 L68.3146067,102.022173 C68.3146067,104.922451 65.9838133,107.285835 63.1177428,107.285835 Z" id="Fill-35" fill="#696969"></path>
                        <path d="M53.7977528,51.8183287 C53.7977528,53.295516 52.619017,54.4943926 51.1666462,54.4943926 L23.9794212,54.4943926 C22.5257348,54.4943926 21.3483146,53.295516 21.3483146,51.8183287 L21.3483146,47.8042328 C21.3483146,46.3270455 22.5257348,45.1281689 23.9794212,45.1281689 L51.1666462,45.1281689 C52.619017,45.1281689 53.7977528,46.3270455 53.7977528,47.8042328 L53.7977528,51.8183287 Z" id="Fill-37" fill="#FFFFFF"></path>
                        <path d="M24.7641641,46.9859323 L24.7641641,50.9336795 L51.2396787,50.9336795 L51.2358359,46.9859323 L24.7641641,46.9859323 Z M51.2358359,56.1973424 L24.7641641,56.1973424 C21.9384355,56.1973424 19.6404494,53.8352736 19.6404494,50.9336795 L19.6404494,46.9859323 C19.6404494,44.0843381 21.9384355,41.7222693 24.7641641,41.7222693 L51.2358359,41.7222693 C54.0615645,41.7222693 56.3595506,44.0843381 56.3595506,46.9859323 L56.3595506,50.9336795 C56.3595506,53.8352736 54.0615645,56.1973424 51.2358359,56.1973424 Z" id="Fill-39" fill="#696969"></path>
                    </g>
                </g>
            </g>
        </g>
    </g>
</svg>