<?xml version="1.0" encoding="utf-8"?>
<!-- Generator: Adobe Illustrator 22.1.0, SVG Export Plug-In . SVG Version: 6.00 Build 0)  -->
<svg version="1.1" id="Layer_1" xmlns="http://www.w3.org/2000/svg" xmlns:xlink="http://www.w3.org/1999/xlink" x="0px" y="0px"
	 viewBox="0 0 27 21" style="enable-background:new 0 0 27 21;" xml:space="preserve">
<style type="text/css">
	.st0{fill:#75DEC5;}
	.st1{fill:#696969;stroke:#696969;stroke-width:0.5;}
</style>
<title>email_green</title>
<desc>Created with Sketch.</desc>
<g id="Symbols">
	<g id="navigation_x2F_footer" transform="translate(-102.000000, -294.000000)">
		<g id="Group-6" transform="translate(103.000000, 91.000000)">
			<g id="Group-23" transform="translate(0.000000, 204.000000)">
				<g id="email_green">
					<polygon id="Fill-3" class="st0" points="23.5,1.5 12.6,12 1.5,1.5 					"/>
					<path id="Fill-1" class="st1" d="M23.6,16.5l-7-7l7-7V16.5z M2.5,17.5l7.1-7l2.5,2.4c0.3,0.3,0.7,0.3,1,0l2.4-2.4l7,7H2.5z
						 M1.5,16.5v-14l7.1,7L1.5,16.5z M22.5,1.5l-10,9.9L2.5,1.5H22.5z M22.8,0H2.2C1,0,0,1,0,2.2v14.6C0,18,1,19,2.2,19h20.6
						c1.2,0,2.2-1,2.2-2.2V2.2C25,1,24.1,0,22.8,0z"/>
				</g>
			</g>
		</g>
	</g>
</g>
</svg>
