<?xml version="1.0" encoding="UTF-8"?>
<svg width="27px" height="21px" viewBox="0 0 27 21" version="1.1" xmlns="http://www.w3.org/2000/svg" xmlns:xlink="http://www.w3.org/1999/xlink">
    <!-- Generator: Sketch 49.3 (51167) - http://www.bohemiancoding.com/sketch -->
    <title>email_green</title>
    <desc>Created with Sketch.</desc>
    <defs></defs>
    <g id="Symbols" stroke="none" stroke-width="1" fill="none" fill-rule="evenodd">
        <g id="navigation/footer" transform="translate(-102.000000, -294.000000)">
            <g id="Group-6" transform="translate(103.000000, 91.000000)">
                <g id="Group-23" transform="translate(0.000000, 204.000000)">
                    <g id="email_green">
                        <polygon id="Fill-3" fill="#75DEC5" points="24.8181818 1.90909091 13.8878285 12.4090909 2.86363636 1.90909091"></polygon>
                        <path d="M23.5779474,16.5051538 L16.5441859,9.5 L23.5779474,2.49484615 L23.5779474,16.5051538 Z M2.50503462,17.5384615 L9.57695135,10.4953077 L12.0550817,12.9419231 C12.3417347,13.2254615 12.8049778,13.2244872 13.0906525,12.9399744 L15.5066584,10.5333077 L22.5404199,17.5384615 L2.50503462,17.5384615 Z M1.4675071,16.5051538 L1.4675071,2.48802564 L8.53502131,9.46638462 L1.4675071,16.5051538 Z M22.5404199,1.46153846 L12.5691983,11.3917179 L2.51237216,1.46153846 L22.5404199,1.46153846 Z M22.8441939,0 L2.20126065,0 C0.989099787,0 0,0.984102564 0,2.19230769 L0,16.8076923 C0,18.012 0.984697266,19 2.20126065,19 L22.8441939,19 C24.0534197,19 25.0454545,18.0193077 25.0454545,16.8076923 L25.0454545,2.19230769 C25.0454545,0.988 24.0607573,0 22.8441939,0 Z" id="Fill-1" stroke="#FFFFFF" stroke-width="0.5" fill="#FFFFFF"></path>
                    </g>
                </g>
            </g>
        </g>
    </g>
</svg>