<?xml version="1.0" encoding="UTF-8"?>
<svg width="50px" height="50px" viewBox="0 0 50 50" version="1.1" xmlns="http://www.w3.org/2000/svg" xmlns:xlink="http://www.w3.org/1999/xlink">
    <!-- Generator: Sketch 50 (54983) - http://www.bohemiancoding.com/sketch -->
    <title>Expand</title>
    <desc>Created with Sketch.</desc>
    <defs></defs>
    <g id="Page-1" stroke="none" stroke-width="1" fill="none" fill-rule="evenodd">
        <g id="Find-us" transform="translate(-1276.000000, -704.000000)">
            <g id="Group-20" transform="translate(338.000000, 524.000000)">
                <g id="Map-buttons" transform="translate(938.000000, 180.000000)">
                    <g id="Expand">
                        <rect id="Background" fill-opacity="0.66" fill="#FFFFFF" x="0" y="0" width="50" height="50" rx="12"></rect>
                        <path d="M21.8355114,26.5576705 L14.7727273,33.6204545 L14.7727273,30.39375 C14.7727273,29.7659091 14.2644886,29.2571023 13.6369318,29.2571023 C13.009375,29.2571023 12.5005682,29.7659091 12.5005682,30.3934659 L12.5,36.3633523 C12.5,36.6647727 12.6198864,36.9539773 12.8329545,37.1670455 C13.0460227,37.3801136 13.3349432,37.5 13.6363636,37.5 L19.6065341,37.4997159 C20.2340909,37.4997159 20.7428977,36.9909091 20.7428977,36.3633523 C20.7428977,35.7357955 20.2340909,35.2272727 19.6065341,35.2272727 L16.3806818,35.2272727 L23.4428977,28.1647727 C23.8866477,27.7210227 23.8863636,27.0014205 23.4426136,26.5576705 C22.9988636,26.1142045 22.2792614,26.1139205 21.8355114,26.5576705 M37.5,13.6363636 L37.4994318,19.60625 C37.4994318,20.2338068 36.9909091,20.7426136 36.3633523,20.7426136 C35.7357955,20.7426136 35.2272727,20.2338068 35.2272727,19.6059659 L35.2272727,16.3798295 L28.04375,23.5639205 C27.8215909,23.7857955 27.5306818,23.896875 27.2397727,23.896875 C26.9491477,23.896875 26.6582386,23.7857955 26.4363636,23.5639205 C25.9926136,23.1201705 25.9926136,22.4008523 26.4363636,21.9571023 L33.6201705,14.7727273 L30.3934659,14.7727273 C29.7659091,14.7727273 29.2571023,14.2639205 29.2571023,13.6363636 C29.2571023,13.0088068 29.7659091,12.5 30.3934659,12.5 L36.3636364,12.5 C36.6650568,12.5 36.9539773,12.6196023 37.1673295,12.8326705 C37.3803977,13.0457386 37.5,13.3349432 37.5,13.6363636" fill="#8E8E93"></path>
                    </g>
                </g>
            </g>
        </g>
    </g>
</svg>