<?xml version="1.0" encoding="UTF-8"?>
<svg width="25px" height="24px" viewBox="0 0 25 24" version="1.1" xmlns="http://www.w3.org/2000/svg" xmlns:xlink="http://www.w3.org/1999/xlink">
    <!-- Generator: Sketch 49.3 (51167) - http://www.bohemiancoding.com/sketch -->
    <title>icons/social media/facebook</title>
    <desc>Created with Sketch.</desc>
    <defs>
        <polygon id="path-1" points="0 0 24.3304267 0 24.3304267 24.0383654 0 24.0383654"></polygon>
    </defs>
    <g id="Symbols" stroke="none" stroke-width="1" fill="none" fill-rule="evenodd">
        <g id="navigation/footer" transform="translate(-158.000000, -424.000000)">
            <g id="Group-10" transform="translate(158.000000, 423.000000)">
                <g id="-Icons/facebook">
                    <g id="Page-1" transform="translate(0.000000, 0.961538)">
                        <g id="Group-3">
                            <mask id="mask-2" fill="white">
                                <use xlink:href="#path-1"></use>
                            </mask>
                            <g id="Clip-2"></g>
                            <path d="M12.1652133,-9.61538462e-05 C18.8838173,-9.61538462e-05 24.3304267,5.38115385 24.3304267,12.0191346 C24.3304267,18.6571154 18.8838173,24.0383654 12.1652133,24.0383654 C5.44660931,24.0383654 0,18.6571154 0,12.0191346 C0,5.38115385 5.44660931,-9.61538462e-05 12.1652133,-9.61538462e-05" id="Fill-1" fill="#3A5A99" mask="url(#mask-2)"></path>
                        </g>
                        <path d="M6.24688571,5.44610577 C5.84105419,5.44610577 5.51259343,5.77110577 5.51259343,6.17158654 L5.51259343,17.8667788 C5.51259343,18.2672596 5.84105419,18.5922596 6.24688571,18.5922596 L12.6195111,18.5922596 L12.6195111,13.5013942 L10.8852382,13.5013942 L10.8852382,11.5172596 L12.6195111,11.5172596 L12.6195111,10.0542788 C12.6195111,8.35620192 13.6691257,7.43168269 15.2024291,7.43168269 C15.9362348,7.43168269 16.5673661,7.48552885 16.7513041,7.50956731 L16.7513041,9.28408654 L15.6885511,9.28456731 C14.854504,9.28456731 14.69295,9.67639423 14.69295,10.2509135 L14.69295,11.5172596 L16.6817191,11.5172596 L16.4223567,13.5013942 L14.69295,13.5013942 L14.69295,18.5922596 L18.0836383,18.5922596 C18.4889832,18.5922596 18.8179306,18.2672596 18.8179306,17.8667788 L18.8179306,6.17158654 C18.8179306,5.77110577 18.4889832,5.44610577 18.0836383,5.44610577 L6.24688571,5.44610577 Z" id="Fill-4" fill="#FFFFFF"></path>
                    </g>
                </g>
            </g>
        </g>
    </g>
</svg>