<?xml version="1.0" encoding="UTF-8"?>
<svg width="66px" height="66px" viewBox="0 0 66 66" version="1.1" xmlns="http://www.w3.org/2000/svg" xmlns:xlink="http://www.w3.org/1999/xlink">
    <!-- Generator: Sketch 50 (54983) - http://www.bohemiancoding.com/sketch -->
    <title>Group 23</title>
    <desc>Created with Sketch.</desc>
    <defs></defs>
    <g id="Page-1" stroke="none" stroke-width="1" fill="none" fill-rule="evenodd">
        <g id="Group-23">
            <ellipse id="Oval-2" fill="#F1F5F8" cx="32.6319366" cy="33.1092814" rx="32.3867889" ry="32.3428144"></ellipse>
            <path d="M45.0536841,20.0473752 L17.1053902,20.0473752 C15.3926839,20.0473752 14,21.4068908 14,23.0788072 L14,50.361482 C14,52.0333274 15.3926839,53.3928429 17.1053902,53.3928429 L45.0536841,53.3928429 C46.7663177,53.3928429 48.1590016,52.0333274 48.1590016,50.361482 L48.1590016,23.0788072 C48.1590016,21.4068908 46.7663177,20.0473752 45.0536841,20.0473752" id="Fill-1" fill="#696969"></path>
            <path d="M17.6301671,22.0816327 L45.2754933,22.0816327 C46.1221314,22.0816327 46.8113208,22.808155 46.8113208,23.700655 L46.8113208,26.9387755 L16.0943396,26.9387755 L16.0943396,23.700655 C16.0943396,22.808155 16.783529,22.0816327 17.6301671,22.0816327" id="Fill-4" fill="#C7D2DC"></path>
            <path d="M44.6122853,51.2244898 L17.5952619,51.2244898 C16.7677952,51.2244898 16.0943396,50.5823624 16.0943396,49.7933883 L16.0943396,28.3265306 L46.1132075,28.3265306 L46.1132075,49.7933883 C46.1132075,50.5823624 45.4396816,51.2244898 44.6122853,51.2244898" id="Fill-6" fill="#F1F5F8"></path>
            <path d="M18.5377358,23.4693878 C19.11605,23.4693878 19.5849057,23.935323 19.5849057,24.5102529 C19.5849057,25.0850852 19.11605,25.5510204 18.5377358,25.5510204 C17.9594217,25.5510204 17.490566,25.0850852 17.490566,24.5102529 C17.490566,23.935323 17.9594217,23.4693878 18.5377358,23.4693878" id="Fill-8" fill="#696969"></path>
            <path d="M22.0283019,23.4693878 C22.6066161,23.4693878 23.0754717,23.935323 23.0754717,24.5102529 C23.0754717,25.0850852 22.6066161,25.5510204 22.0283019,25.5510204 C21.4499877,25.5510204 20.9811321,25.0850852 20.9811321,24.5102529 C20.9811321,23.935323 21.4499877,23.4693878 22.0283019,23.4693878" id="Fill-10" fill="#696969"></path>
            <path d="M25.5188679,23.4693878 C26.0971821,23.4693878 26.5660377,23.935323 26.5660377,24.5102529 C26.5660377,25.0850852 26.0971821,25.5510204 25.5188679,25.5510204 C24.9405537,25.5510204 24.4716981,25.0850852 24.4716981,24.5102529 C24.4716981,23.935323 24.9405537,23.4693878 25.5188679,23.4693878" id="Fill-12" fill="#696969"></path>
            <path d="M39.0738757,35.9591837 L22.4354873,35.9591837 C22.0175193,35.9591837 21.6792453,35.4936388 21.6792453,34.9183186 C21.6792453,34.3430959 22.0175193,33.877551 22.4354873,33.877551 L39.0738757,33.877551 C39.4919147,33.877551 39.8301887,34.3430959 39.8301887,34.9183186 C39.8301887,35.4936388 39.4919147,35.9591837 39.0738757,35.9591837" id="Fill-14" fill="#696969"></path>
            <path d="M38.3386703,39.4285714 L22.4726504,39.4285714 C22.0341094,39.4285714 21.6792453,38.9630483 21.6792453,38.3877551 C21.6792453,37.8125594 22.0341094,37.3469388 22.4726504,37.3469388 L38.3386703,37.3469388 C38.7772113,37.3469388 39.1320755,37.8125594 39.1320755,38.3877551 C39.1320755,38.9630483 38.7772113,39.4285714 38.3386703,39.4285714" id="Fill-16" fill="#696969"></path>
            <path d="M31.4029449,44.9795918 L22.4272438,44.9795918 C22.0138005,44.9795918 21.6792453,44.5140688 21.6792453,43.9387755 C21.6792453,43.3635798 22.0138005,42.8979592 22.4272438,42.8979592 L31.4029449,42.8979592 C31.8163882,42.8979592 32.1509434,43.3635798 32.1509434,43.9387755 C32.1509434,44.5140688 31.8163882,44.9795918 31.4029449,44.9795918" id="Fill-18" fill="#696969"></path>
            <path d="M48.0603431,29.0204082 C47.2849152,29.0204082 46.5274854,29.3468737 45.9815687,29.9149717 L36.6345351,39.6261252 C36.5265468,39.7375155 36.4545547,39.8793529 36.4246059,40.0336087 L35.6566653,44.0250317 C35.6056948,44.2868624 35.6851742,44.5572214 35.8666665,44.7458144 C36.0121627,44.8970029 36.2086294,44.9795918 36.4095595,44.9795918 C36.4590902,44.9795918 36.5101326,44.9741308 36.5595913,44.9640316 L40.3976387,44.1660462 C40.5476704,44.1349258 40.6840956,44.0592941 40.7906441,43.9479038 L48.4704105,35.968873 C48.4704105,35.968873 48.4709865,35.9685738 48.4712745,35.9682746 C48.4715624,35.9679753 48.4715624,35.9677509 48.4715624,35.9677509 L50.1391174,34.2351793 L50.1391174,34.2344312 C50.686546,33.6655852 51,32.8785219 51,32.0750755 C51,30.3903067 49.6816791,29.0204082 48.0603431,29.0204082" id="Fill-20" fill="#696969"></path>
            <polygon id="Fill-22" fill="#FFFFFF" points="39.9341784 42.4243034 37.7358491 42.8979592 38.1757956 40.5283068 44.3531661 33.877551 46.1132075 35.7724487"></polygon>
            <path d="M49.1964386,32.769364 L48.0816008,33.877551 L46.1132075,31.9208297 L47.2284021,30.812288 C47.4870445,30.5559688 47.8452909,30.4081633 48.212456,30.4081633 C48.9794644,30.4081633 49.6037736,31.028748 49.6037736,31.7911806 C49.6037736,32.154666 49.455081,32.5114845 49.1964386,32.769364" id="Fill-24" fill="#C7D2DC"></path>
        </g>
    </g>
</svg>