<?xml version="1.0" encoding="UTF-8"?>
<svg width="66px" height="66px" viewBox="0 0 66 66" version="1.1" xmlns="http://www.w3.org/2000/svg" xmlns:xlink="http://www.w3.org/1999/xlink">
    <!-- Generator: Sketch 50 (54983) - http://www.bohemiancoding.com/sketch -->
    <title>Group 25</title>
    <desc>Created with Sketch.</desc>
    <defs></defs>
    <g id="Page-1" stroke="none" stroke-width="1" fill="none" fill-rule="evenodd">
        <g id="Group-25">
            <circle id="Oval-2" fill="#F1F5F8" cx="33" cy="33" r="33"></circle>
            <polygon id="Path-2" fill="#FFFFFF" points="14.954023 30 23.6034483 25.6708861 32.0057471 31.9240506 38.6781609 25.6708861 41.6436782 26.1518987 50.2931034 30 53.2586207 47.3164557 44.1149425 43.7088608 32.7471264 48.278481 22.3678161 43.7088608 11.7413793 48.278481"></polygon>
            <polygon id="Fill-1" fill="#FFFFFF" points="22.8241492 33.4679766 32.4715556 47.7457729 22.050839 43.1897392"></polygon>
            <polygon id="Fill-2" fill="#FFFFFF" points="13.3845684 38.3267756 22.8241032 33.4680214 22.050793 43.189784 11.6303064 47.7455938"></polygon>
            <polygon id="Fill-3" fill="#FFFFFF" points="41.8752417 30.4070958 52.2738834 42.1684157 49.9387765 29.6319342 48.6519957 28.9342439"></polygon>
            <polygon id="Fill-4" fill="#C7D2DC" points="13.3845684 38.3267756 22.8241032 33.4680214 23.0988893 30.0147234 14.0698091 34.6482285"></polygon>
            <polygon id="Fill-5" fill="#C7D2DC" points="32.4739471 31.320967 23.0987973 30.014701 22.8242412 33.467999 32.4714176 47.7455714 32.4714176 42.5538694 26.7147064 33.7198929 32.4739471 34.3911623"></polygon>
            <polygon id="Fill-6" fill="#C7D2DC" points="41.8752417 30.4070958 48.6519957 28.9342439 44.5853914 26.730116 41.6360973 27.4016093"></polygon>
            <polygon id="Fill-7" fill="#C7D2DC" points="42.217816 34.7128029 41.8519711 30.1151227 41.6362813 27.4016093 32.4738321 31.321079 32.4738321 34.3912742 38.4588802 31.8548702"></polygon>
            <polygon id="Fill-8" fill="#C7D2DC" points="42.217816 34.7128029 53.3125059 47.7456833 52.2738374 42.1684157 41.8751957 30.4070958"></polygon>
            <path d="M32.5118882,22.7644545 C30.7086476,22.7644545 29.2466476,21.3410859 29.2466476,19.5849933 C29.2466476,17.8291246 30.7084176,16.4057559 32.5118882,16.4057559 C34.3151289,16.4057559 35.7771289,17.8291246 35.7771289,19.5849933 C35.7771289,21.3410859 34.3151289,22.7644545 32.5118882,22.7644545 M32.5118882,11.6137256 C27.9906797,11.6137256 24.3253321,15.1825589 24.3253321,19.5852172 C24.3253321,26.2894024 32.5118882,32.4577811 32.5118882,32.4577811 C32.5118882,32.4577811 40.6984444,26.2894024 40.6984444,19.5852172 C40.6984444,15.1825589 37.0330968,11.6137256 32.5118882,11.6137256" id="Fill-9" fill="#C7D2DC"></path>
            <polygon id="Fill-11" fill="#C7D2DC" points="32.4714636 42.5539813 36.0625385 46.1756564 32.4714636 47.7456833"></polygon>
            <g id="Group-15" transform="translate(11.000000, 11.191215)" fill="#696969">
                <path d="M3.2361984,26.2270402 L3.62503797,24.1384476 L3.63515561,24.0844864 L11.382284,20.1088163 L11.2227011,22.1161311 L3.2361984,26.2270402 Z M11.7764123,15.1540066 L11.5954444,17.4311278 L11.4974872,18.6623854 L3.92097914,22.5505082 L4.57103797,19.0595941 L11.7764123,15.1540066 Z M16.9354925,17.9622322 C17.3392786,18.4317625 17.741685,18.8681547 18.128915,19.2676025 L12.7730005,18.5213247 L13.050316,15.0355604 L15.6629684,16.361754 C16.0497385,16.891515 16.4735299,17.4250823 16.9354925,17.9622322 Z M21.5118882,1.26020859 C25.6785193,1.26020859 29.068161,4.56080286 29.068161,8.61775067 C29.068161,14.1233685 23.1033481,19.390079 21.5118882,20.6972406 C19.9201984,19.390079 13.9556155,14.1233685 13.9556155,8.61775067 C13.9556155,4.56080286 17.3452572,1.26020859 21.5118882,1.26020859 Z M29.8927492,15.0355604 L29.9732305,16.0476143 L26.4210166,17.5672625 C26.7737545,17.1413938 27.1025781,16.717988 27.4077171,16.2968214 L29.8927492,15.0355604 Z M35.8987225,17.7190705 L31.4474176,18.6865672 L31.3062305,16.9118904 L33.4916422,16.414148 L35.8987225,17.7190705 Z M31.9992893,25.6254056 L40.0963963,35.1366968 L32.4913749,31.8116968 L31.9992893,25.6254056 Z M12.3103481,24.3366042 L19.7555567,35.3554527 L11.7136369,31.8394611 L12.3103481,24.3366042 Z M16.9584872,23.5157658 L20.8411342,23.9685032 L20.8411342,29.4738971 L16.9584872,23.5157658 Z M31.166423,15.1540066 L31.8539631,15.5265857 L31.2078134,15.6739157 L31.166423,15.1540066 Z M31.6594283,21.3503736 L31.6520701,21.2592439 L40.6841396,31.4749426 L41.2633749,34.5843214 L31.8307385,23.5038988 L31.6594283,21.3503736 Z M24.3901289,19.7765402 L30.0764765,17.3442524 L30.4791128,22.4051934 L27.846685,20.4039241 C27.6645674,20.2655503 27.4194444,20.2350992 27.2074337,20.3248854 L22.1042305,22.4875907 L22.1042305,21.8149779 C22.4854818,21.5127052 23.3519203,20.7997894 24.3901289,19.7765402 Z M19.629546,20.7167204 C20.1538241,21.1905049 20.5789952,21.5424847 20.8411342,21.7527322 L20.8411342,22.7320958 L15.789669,22.1432237 C15.5482251,22.1154594 15.3113802,22.2247254 15.1814604,22.4253449 C15.0517706,22.6259645 15.0522305,22.881217 15.1826102,23.0813887 L20.8411342,31.7649005 L20.8411342,34.7289645 L12.4692412,22.3389173 L12.5717973,21.0489965 L12.6755032,19.7476564 L19.629546,20.7167204 Z M22.1017011,35.8301328 L22.1017011,33.1060958 L23.9858829,35.0061598 L22.1017011,35.8301328 Z M25.2082786,34.4719207 L22.1017011,31.3388079 L22.1017011,23.8272187 L27.3663267,21.5962221 L30.6106422,24.0627675 L31.2291984,31.8394611 L25.2082786,34.4719207 Z M42.8805888,37.0416867 C42.922439,36.9299577 42.9272679,36.9104779 42.9309471,36.8907742 C42.9415246,36.7835234 42.9424444,36.7736715 42.9422144,36.7635958 C42.9416012,36.7425487 42.0998437,32.2084577 40.4169417,23.1613231 C40.3548561,22.8277035 40.0269524,22.6062608 39.6843321,22.6669392 C39.3417118,22.7273938 39.1145246,23.0466833 39.1766102,23.3803029 L40.2403428,29.0914662 L32.0393,19.8157237 L37.5552572,18.6169325 L38.3717973,19.0595941 L38.7266048,20.9639123 C38.7886904,21.2973079 39.1165941,21.5187507 39.4592144,21.4582961 C39.8018348,21.3978416 40.0290219,21.0783281 39.9669364,20.7449325 L39.5590112,18.5551345 C39.525439,18.3742187 39.4102358,18.2177086 39.2455941,18.1283702 L30.7532091,13.5250924 C30.6368561,13.4774005 30.6191503,13.471579 30.6009845,13.4671008 C30.4722144,13.4496362 30.4563481,13.4487406 30.4404818,13.4489645 C30.310792,13.4637423 30.2956155,13.4671008 30.280439,13.4711311 C30.1656957,13.5138971 30.1606369,13.5154645 30.156038,13.5177035 L28.7161128,14.2485318 C29.7872037,12.3036867 30.3284979,10.4199678 30.3284979,8.61775067 C30.3284979,3.88393586 26.3731877,0.0327574074 21.5116583,0.0327574074 C16.6498989,0.0327574074 12.6950487,3.88393586 12.6950487,8.61775067 C12.6950487,10.4374325 13.2462305,12.3401833 14.3384765,14.30518 L12.7867973,13.5177035 C12.6847011,13.4774005 12.6736636,13.4740419 12.6626262,13.4711311 C12.5251182,13.4498601 12.5136209,13.4491884 12.5018936,13.4489645 C12.3632358,13.4628466 12.3524283,13.464414 12.3413909,13.4671008 C12.2386048,13.5011345 12.2137706,13.5121059 12.1898561,13.5250924 C12.189243,13.525391 9.35844795,15.0598169 3.69747112,18.1283702 C3.53259947,18.2177086 3.4176262,18.3742187 3.38405401,18.5549106 C3.38405401,18.5550599 2.58682941,22.8354656 0.992380214,31.3961278 C0.930294652,31.7295234 1.15748182,32.0490369 1.50010214,32.1094914 C1.84249251,32.1701699 2.1706262,31.9485032 2.23271176,31.6148837 L2.95014492,27.7625857 L11.1074979,23.5636816 L10.4514604,31.8116968 L1.46400053,35.7412423 L1.78040695,34.0424695 C1.84249251,33.7090739 1.61530535,33.3895604 1.27268503,33.3291059 C0.930524599,33.2688753 0.602390909,33.4900941 0.540075401,33.8234897 L0.0100486631,36.6688837 C-0.0315716578,36.8930133 0.0576475936,37.1213971 0.241834759,37.261786 C0.354738503,37.3477658 0.491786631,37.3920992 0.630214439,37.3920992 C0.717824064,37.3920992 0.805893583,37.3744106 0.888444385,37.3383618 L11.050931,32.8951766 L21.2090487,37.3363466 C21.3417278,37.3786648 21.3548348,37.3809039 21.3681717,37.382919 C21.5010807,37.3918753 21.5263749,37.3898601 21.551669,37.3865015 C21.6820487,37.356946 21.706193,37.3486614 21.7298775,37.3383618 L31.8921342,32.8954005 L42.0546209,37.3383618 C42.1626957,37.3737389 42.1707439,37.3762019 42.1792519,37.3779931 C42.2680112,37.3909796 42.290316,37.3920992 42.3126209,37.3920992 C42.4558775,37.3759779 42.4857706,37.3692608 42.5152037,37.3596328 C42.6104016,37.3182103 42.6255781,37.309254 42.6409845,37.3000739 C42.7405513,37.2270806 42.7490594,37.2203635 42.7571075,37.2127507 C42.8734604,37.057584 42.8766797,37.0495234 42.8805888,37.0416867 Z" id="Fill-13"></path>
            </g>
            <path d="M36.4072743,19.5851724 C36.4072743,17.493669 34.6599107,15.7922094 32.5119802,15.7922094 C32.1638412,15.7922094 31.8814668,16.0667178 31.8814668,16.4057111 C31.8814668,16.7447044 32.1638412,17.0196606 32.5119802,17.0196606 C33.9647824,17.0196606 35.1467075,18.170536 35.1467075,19.5851724 C35.1467075,20.9998088 33.9647824,22.1509081 32.5119802,22.1509081 C31.0589481,22.1509081 29.877023,20.9998088 29.877023,19.5851724 C29.877023,18.9085293 30.1451406,18.2697263 30.6323973,17.7869855 C30.8761406,17.5453912 30.8726914,17.1566909 30.6243492,16.9191269 C30.376007,16.681563 29.9770497,16.6849215 29.7330765,16.9267397 C29.012884,17.6405512 28.6164561,18.5847616 28.6164561,19.5851724 C28.6164561,21.6766758 30.3638198,23.3783593 32.5119802,23.3783593 C34.6599107,23.3783593 36.4072743,21.6766758 36.4072743,19.5851724" id="Fill-16" fill="#696969"></path>
        </g>
    </g>
</svg>