<?xml version="1.0" encoding="UTF-8"?>
<svg width="163px" height="163px" viewBox="0 0 163 163" version="1.1" xmlns="http://www.w3.org/2000/svg" xmlns:xlink="http://www.w3.org/1999/xlink">
    <!-- Generator: Sketch 50.2 (55047) - http://www.bohemiancoding.com/sketch -->
    <title>group copy</title>
    <desc>Created with Sketch.</desc>
    <defs>
        <polygon id="path-1" points="0.00698717949 0.0381538462 24.7980128 0.0381538462 24.7980128 23.8379077 0.00698717949 23.8379077"></polygon>
    </defs>
    <g id="Page-1" stroke="none" stroke-width="1" fill="none" fill-rule="evenodd">
        <g id="Product---Savings-account" transform="translate(-1757.000000, -465.000000)">
            <g id="group-copy" transform="translate(1757.000000, 465.000000)">
                <circle id="Oval-2" fill="#F1F5F8" cx="81.5" cy="81.5" r="81.5"></circle>
                <g id="group_icon" transform="translate(30.000000, 47.000000)">
                    <path d="M51.5003091,6 C57.2994024,6 62,10.7005976 62,16.4996909 C62,22.2987843 57.2994024,27 51.5003091,27 C45.7012157,27 41,22.2987843 41,16.4996909 C41,10.7005976 45.7012157,6 51.5003091,6" id="Fill-1" fill="#FFFFFF"></path>
                    <path d="M50.9982471,7.08168067 C46.1342941,7.08168067 42.0800692,11.1351519 42.0800692,16.0003103 C42.0800692,20.8654686 46.1342941,24.9189399 50.9982471,24.9189399 C55.8622001,24.9189399 59.916425,20.8654686 59.916425,16.0003103 C59.916425,11.1351519 55.8622001,7.08168067 50.9982471,7.08168067 M50.9982471,28 C44.3504103,28 39,22.6489463 39,16.0003103 C39,9.35167421 44.3504103,4 50.9982471,4 C57.6460839,4 62.9964942,9.35167421 62.9964942,16.0003103 C63.1590603,22.6489463 57.6460839,28 50.9982471,28" id="Fill-3" fill="#696969"></path>
                    <path d="M14.5,18 C7.59164149,18 2,23.6668448 2,30.6660519 L2,55 L27,55 L27,30.5002241 C26.8357251,23.6668448 21.2434542,18 14.5,18" id="Fill-5" fill="#FFFFFF"></path>
                    <path d="M24.7438094,53.529302 L3.25556767,53.529302 L3.25556767,31.0497802 C3.25556767,25.0995604 8.13954213,20.1405168 13.9996885,20.1405168 C19.8604579,20.1405168 24.7438094,25.0995604 24.7438094,31.0497802 L24.7438094,53.529302 Z M13.9996885,17 C6.34854384,17 0,23.2810336 0,31.2148708 L0,55.3471963 C0,56.1739144 0.650988943,57 1.62778383,57 L26.3715932,57 C27.1857966,57 28,56.339005 28,55.3471963 L28,31.0497802 C27.8367855,23.2810336 21.6508332,17 13.9996885,17 Z" id="Fill-7" fill="#696969"></path>
                    <path d="M8,48 L8,30.7900075 C8,27.5727896 10.6665958,25 13.9996811,25 C17.3334042,25 20,27.5727896 20,30.7900075 L20,48 L8,48 Z" id="Fill-9" fill="#C7D2DC"></path>
                    <path d="M15.5003091,1 C21.2994024,1 26,5.70107736 26,11.5 C26,17.2989226 21.2994024,22 15.5003091,22 C9.70121574,22 5,17.2989226 5,11.5 C5,5.70107736 9.70121574,1 15.5003091,1" id="Fill-11" fill="#FFFFFF"></path>
                    <g id="Group-15" transform="translate(4.000000, 0.000000)">
                        <mask id="mask-2" fill="white">
                            <use xlink:href="#path-1"></use>
                        </mask>
                        <g id="Clip-14"></g>
                        <path d="M12.4025,3.09329231 C7.37685897,3.09329231 3.18903846,7.1136 3.18903846,11.9382154 C3.18903846,16.7622154 7.37685897,20.7825231 12.4025,20.7825231 C17.4275,20.7825231 21.6153205,16.7622154 21.6153205,11.9382154 C21.6153205,7.1136 17.4275,3.09329231 12.4025,3.09329231 M12.4025,23.8379077 C5.53455128,23.8379077 0.00698717949,18.5314462 0.00698717949,11.9382154 C0.00698717949,5.34498462 5.53455128,0.0379076923 12.4025,0.0379076923 C19.2704487,0.0379076923 24.7980128,5.34498462 24.7980128,11.9382154 C24.7980128,18.5314462 19.2704487,23.8379077 12.4025,23.8379077" id="Fill-13" fill="#696969" mask="url(#mask-2)"></path>
                    </g>
                    <path d="M89.5,18 C96.4083585,18 102,23.6668448 102,30.6660519 L102,55 L77,55 L77,30.5002241 C77,23.6668448 82.5922709,18 89.5,18" id="Fill-16" fill="#FFFFFF"></path>
                    <g id="Group-20" transform="translate(75.000000, 16.000000)" fill="#696969">
                        <path d="M25.4715196,37.317175 L3.89047609,37.317175 L3.89047609,14.5500031 C3.89047609,8.52364375 8.83245435,3.50114375 14.7629543,3.50114375 C20.6940848,3.50114375 25.636063,8.52364375 25.636063,14.5500031 L25.636063,37.317175 L25.4715196,37.317175 Z M14.7629543,0.320440625 C7.01995435,0.320440625 0.595193478,6.68184688 0.595193478,14.7172063 L0.595193478,39.1583313 C0.595193478,39.9956281 1.25399783,40.8322844 2.24251957,40.8322844 L27.1188457,40.8322844 C27.9421935,40.8322844 28.7661717,40.1628313 28.7661717,39.1583313 L28.7661717,14.5500031 C28.7661717,6.68184688 22.5059543,0.320440625 14.7629543,0.320440625 Z" id="Fill-18"></path>
                    </g>
                    <path d="M84,48 L84,30.7900075 C84,27.5727896 86.6667375,25 90,25 C93.3339003,25 96,27.5727896 96,30.7900075 L96,48 L84,48 Z" id="Fill-21" fill="#C7D2DC"></path>
                    <path d="M87.4996909,1 C93.2987843,1 98,5.70107736 98,11.5 C98,17.2989226 93.2987843,22 87.4996909,22 C81.7005976,22 77,17.2989226 77,11.5 C77,5.70107736 81.7005976,1 87.4996909,1" id="Fill-23" fill="#FFFFFF"></path>
                    <g id="Group-27" transform="translate(75.000000, 0.000000)" fill="#696969">
                        <path d="M12.6759375,3.09329231 C7.7765625,3.09329231 3.6934375,7.1136 3.6934375,11.9382154 C3.6934375,16.7622154 7.7765625,20.7825231 12.6759375,20.7825231 C17.5753125,20.7825231 21.6590625,16.7622154 21.6590625,11.9382154 C21.6590625,7.1136 17.7390625,3.09329231 12.6759375,3.09329231 M12.6759375,23.8379077 C5.9796875,23.8379077 0.5903125,18.5314462 0.5903125,11.9382154 C0.5903125,5.34498462 5.9796875,0.0379076923 12.6759375,0.0379076923 C19.3721875,0.0379076923 24.7615625,5.34498462 24.7615625,11.9382154 C24.9253125,18.5314462 19.3721875,23.8379077 12.6759375,23.8379077" id="Fill-25"></path>
                    </g>
                    <path d="M65.8065343,27 C62.6258808,30.4584787 57.938501,32.7647615 52.9160794,32.7647615 C47.727098,32.7647615 43.2069186,30.4584787 40.0262652,27 C36.5112108,28.4824753 34,31.940954 34,36.0587308 L34,55 L72,55 L72,36.0587308 C71.8327995,31.940954 69.3215887,28.4824753 65.8065343,27" id="Fill-28" fill="#FFFFFF"></path>
                    <g id="Group-32" transform="translate(31.000000, 25.000000)" fill="#696969">
                        <path d="M3.81293788,28.655168 L37.5783015,28.655168 L37.5783015,11.261888 C37.5783015,8.251328 36.1172106,5.575488 33.6820591,4.237888 C30.272847,7.750208 25.5653015,9.757248 20.6956197,9.757248 C15.8253167,9.757248 11.2805288,7.750208 7.70855909,4.237888 C5.27402879,5.742528 3.81293788,8.419008 3.81293788,11.261888 L3.81293788,28.655168 Z M39.2015288,32.000448 L2.18971061,32.000448 C1.37778636,32.000448 0.565862121,31.331008 0.565862121,30.327488 L0.565862121,11.261888 C0.565862121,6.579008 3.32590758,2.398528 7.38428636,0.558528 C8.03345303,0.223808 8.6826197,0.391488 9.16965,1.060288 C12.0918318,4.404928 16.1502106,6.411968 20.5334833,6.411968 C24.9161348,6.411968 28.9745136,4.571968 31.8966955,1.060288 C32.3837258,0.558528 33.0328924,0.391488 33.6820591,0.558528 C37.9025742,2.398528 40.4998621,6.579008 40.4998621,11.261888 L40.4998621,30.494528 C40.8247561,31.331008 40.0128318,32.000448 39.2015288,32.000448 Z" id="Fill-30"></path>
                    </g>
                    <path d="M39,50 L39,37.1708459 L39,37 C42.567576,39.3951158 46.7836328,40.5923464 50.9996897,40.5923464 C55.2157466,40.5923464 59.432424,39.3944612 63,37 L63,37.1708459 L63,50 L39,50 Z" id="Fill-33" fill="#C7D2DC"></path>
                    <polygon id="Fill-35" fill="#696969" points="42 46 45 46 45 43 42 43"></polygon>
                    <polygon id="Fill-37" fill="#696969" points="50 46 53 46 53 43 50 43"></polygon>
                    <polygon id="Fill-38" fill="#696969" points="59 46 62 46 62 43 59 43"></polygon>
                    <polygon id="Fill-39" fill="#696969" points="89 31 92 31 92 28 89 28"></polygon>
                    <polygon id="Fill-40" fill="#696969" points="89 38 92 38 92 35 89 35"></polygon>
                    <polygon id="Fill-41" fill="#696969" points="89 46 92 46 92 43 89 43"></polygon>
                    <polygon id="Fill-42" fill="#696969" points="13 31 16 31 16 28 13 28"></polygon>
                    <polygon id="Fill-43" fill="#696969" points="13 38 16 38 16 35 13 35"></polygon>
                    <polygon id="Fill-44" fill="#696969" points="13 46 16 46 16 43 13 43"></polygon>
                </g>
            </g>
        </g>
    </g>
</svg>