<?xml version="1.0" encoding="utf-8"?>
<!-- Generator: Adobe Illustrator 22.1.0, SVG Export Plug-In . SVG Version: 6.00 Build 0)  -->
<svg version="1.1" id="Layer_1" xmlns="http://www.w3.org/2000/svg" xmlns:xlink="http://www.w3.org/1999/xlink" x="0px" y="0px"
	 viewBox="0 0 24 22" style="enable-background:new 0 0 24 22;" xml:space="preserve">
<style type="text/css">
	.st0{fill:#75DEC5;}
	.st1{fill:none;stroke:#696969;stroke-width:2;stroke-linecap:round;stroke-linejoin:round;}
	.st2{fill:none;stroke:#FFFFFF;stroke-width:2;stroke-linecap:round;stroke-linejoin:round;}
</style>
<title>headoffice_green</title>
<desc>Created with Sketch.</desc>
<g id="navigation_x2F_footer" transform="translate(-103.000000, -90.000000)">
	<g id="Group-6" transform="translate(103.000000, 91.000000)">
		<g id="headoffice_green" transform="translate(1.000000, 0.000000)">
			<polygon id="Fill-1" class="st0" points="5.4,17 1.4,16.9 1.4,19.7 5.4,19.7 			"/>
			<polygon id="Fill-2" class="st0" points="9.5,17 9.5,19.7 13.5,19.7 13.6,17 			"/>
			<polygon id="Fill-3" class="st0" points="15,3.5 0.1,3.4 0.1,0.7 15,0.8 			"/>
			<g id="Group-8" transform="translate(0.000000, 0.164681)">
				<polygon id="Stroke-4" class="st1" points="15,3.3 0.1,3.2 0.1,0.5 15,0.6 				"/>
				<path id="Stroke-6" class="st2" d="M0,19.5l21.7,0.2"/>
			</g>
			<polygon id="Fill-9" class="st0" points="9.5,15.6 5.4,15.5 5.4,19.7 9.5,19.7 			"/>
			<path id="Stroke-10" class="st1" d="M4.5,6.8l1.4,0"/>
			<path id="Stroke-11" class="st1" d="M9.2,6.8l1.4,0"/>
			<path id="Stroke-12" class="st1" d="M4.5,10.9l1.4,0"/>
			<path id="Stroke-13" class="st1" d="M9.2,10.9l1.4,0"/>
			<g id="Group-24" transform="translate(1.354839, 2.874358)">
				<path id="Fill-14" class="st0" d="M20.4,9.5c0,1.5-1.2,2.7-2.7,2.7c-1.5,0-2.7-1.2-2.7-2.7c0-1.5,1.2-2.7,2.7-2.7
					C19.2,6.8,20.4,8,20.4,9.5"/>
				<path id="Stroke-16" class="st1" d="M20.4,9.5c0,1.5-1.2,2.7-2.7,2.7c-1.5,0-2.7-1.2-2.7-2.7c0-1.5,1.2-2.7,2.7-2.7
					C19.2,6.8,20.4,8,20.4,9.5z"/>
				<path id="Stroke-18" class="st1" d="M17.6,12.2l0,4.7"/>
				<polyline id="Stroke-20" class="st1" points="0.1,1.9 0.1,0.5 12.3,0.6 12.2,16.9 0,16.8 0.1,5.3 				"/>
				<polygon id="Stroke-22" class="st1" points="8.1,16.8 4.1,16.8 4.1,12.1 8.2,12.1 				"/>
			</g>
		</g>
	</g>
</g>
</svg>
