<?xml version="1.0" encoding="UTF-8"?>
<svg width="25px" height="25px" viewBox="0 0 25 25" version="1.1" xmlns="http://www.w3.org/2000/svg" xmlns:xlink="http://www.w3.org/1999/xlink">
    <!-- Generator: Sketch 51.2 (57519) - http://www.bohemiancoding.com/sketch -->
    <title>icons/social media/whatsapp</title>
    <desc>Created with Sketch.</desc>
    <defs></defs>
    <g id="Symbols" stroke="none" stroke-width="1" fill="none" fill-rule="evenodd">
        <g id="navigation/footer" transform="translate(-225.000000, -423.000000)">
            <g id="Group-10" transform="translate(158.000000, 423.000000)">
                <g id="Icons/whatsapp" transform="translate(67.000000, 0.000000)">
                    <g id="LinkedIn2-01">
                        <ellipse id="back_77_" fill="#0176B2" fill-rule="nonzero" cx="12.0192308" cy="12.5" rx="12.0192308" ry="12.5"></ellipse>
                        <g id="Linkedin_9_" transform="translate(4.807692, 5.000000)" fill="#FFFFFF" fill-rule="nonzero">
                            <path d="M0.673076923,5.1 L3.46153846,5.1 L3.46153846,14.4 L0.673076923,14.4 L0.673076923,5.1 Z M2.01923077,0.5 C2.88461538,0.5 3.65384615,1.3 3.65384615,2.2 C3.65384615,3.1 2.88461538,3.9 2.01923077,3.9 C1.15384615,3.9 0.384615385,3.1 0.384615385,2.2 C0.384615385,1.2 1.15384615,0.5 2.01923077,0.5 Z" id="Shape"></path>
                            <path d="M5.19230769,5.1 L7.88461538,5.1 L7.88461538,6.4 C8.26923077,5.7 9.13461538,4.9 10.5769231,4.9 C13.3653846,4.9 13.9423077,6.8 13.9423077,9.4 L13.9423077,14.5 L11.1538462,14.5 L11.1538462,10 C11.1538462,8.9 11.1538462,7.5 9.71153846,7.5 C8.26923077,7.5 8.07692308,8.7 8.07692308,9.9 L8.07692308,14.5 L5.28846154,14.5 L5.28846154,5.1 L5.19230769,5.1 Z" id="Shape"></path>
                        </g>
                    </g>
                </g>
            </g>
        </g>
    </g>
</svg>