<?xml version="1.0" encoding="utf-8"?>
<!-- Generator: Adobe Illustrator 21.1.0, SVG Export Plug-In . SVG Version: 6.00 Build 0)  -->
<svg version="1.1" id="Layer_1" xmlns="http://www.w3.org/2000/svg" xmlns:xlink="http://www.w3.org/1999/xlink" x="0px" y="0px"
	 viewBox="0 0 163 163" style="enable-background:new 0 0 163 163;" xml:space="preserve">
<style type="text/css">
	.st0{clip-path:url(#SVGID_2_);fill:#F1F5F8;}
	.st1{fill:#FFFFFF;}
	.st2{fill:#696969;}
	.st3{filter:url(#Adobe_OpacityMaskFilter);}
	.st4{mask:url(#mask-2);fill:#696969;}
	.st5{filter:url(#Adobe_OpacityMaskFilter_1_);}
	.st6{mask:url(#mask-4);fill:#C7D2DC;stroke:#696969;stroke-width:7;}
	.st7{fill:#C7D2DC;stroke:#696969;stroke-width:3;}
</style>
<g>
	<defs>
		<circle id="SVGID_1_" cx="81.5" cy="81.5" r="81.5"/>
	</defs>
	<clipPath id="SVGID_2_">
		<use xlink:href="#SVGID_1_"  style="overflow:visible;"/>
	</clipPath>
	<rect x="-5" y="-5" class="st0" width="173" height="173"/>
</g>
<title>loans</title>
<desc>Created with Sketch.</desc>
<g id="Page-1">
	<g id="Landing" transform="translate(-730.000000, -2111.000000)">
		<g id="Group-5" transform="translate(218.000000, 2009.000000)">
			<g id="Group-20" transform="translate(375.666667, 0.000000)">
				<g id="loans" transform="translate(137.000000, 91.000000)">
					<path id="Fill-1" class="st1" d="M51.2,86.8l1.9-0.6c3.2-1,6.5,1.2,8.1,4.1l5.8,8.5c-2.3,1-5.3,1.4-8.6,1.1L51,86.9
						C51.1,86.9,51.2,86.9,51.2,86.8"/>
					<path id="Fill-3" class="st2" d="M59.4,99.6c1.8,0.1,3.4,0,4.8-0.4L59.7,92c-1.3-2.6-3.8-4.2-5.8-3.5l-0.3,0.1L59.4,99.6z
						 M60.6,103c-0.8,0-1.6,0-2.4-0.1l-0.8-0.1l-8.3-16l1.7-0.7C50.8,86,50.9,86,51,86l1.9-0.6c0.7-0.2,1.3-0.3,2-0.3
						c3,0,5.9,2.1,7.6,5.4l6.5,10.4l-1.7,0.8C65.4,102.5,63.1,103,60.6,103z"/>
					<path id="Fill-5" class="st1" d="M103,117H89.9l-30.4-11.4L40,92.1c0.1-0.1,0.1-0.1,0.2-0.2l1.4-1.4c2.3-2.3,6.2-1.8,8.9,0.2
						l11.6,6.7l4.6,2.7h19.5l0-1.8l-12.1,0c-3.1-0.1-5.5-3.6-5.5-6.7c0,0,0.1-0.7,0.1-0.8h21.6l8.4,7.4h4.4"/>
					<g id="Group-9" transform="translate(0.000000, 38.000000)">
						<g id="Clip-8">
						</g>
						<defs>
							<filter id="Adobe_OpacityMaskFilter" filterUnits="userSpaceOnUse" x="38" y="49.3" width="65.6" height="31.3">
								<feColorMatrix  type="matrix" values="1 0 0 0 0  0 1 0 0 0  0 0 1 0 0  0 0 0 1 0"/>
							</filter>
						</defs>
						<mask maskUnits="userSpaceOnUse" x="38" y="49.3" width="65.6" height="31.3" id="mask-2">
							<g class="st3">
								<polygon id="path-1" class="st1" points="38,49.3 103.6,49.3 103.6,80.6 38,80.6 								"/>
							</g>
						</mask>
						<path id="Fill-7" class="st4" d="M103.6,80.6H90.1L59.2,69L38,54.4l1.1-1.4c0.1-0.1,0.2-0.2,0.3-0.3l1.4-1.4c3-3,7.8-2.3,11,0
							l15.8,9.2h3.1c-2-1.6-3.3-4.4-3.2-6.9l0-0.1l0.2-2.3h23.8l8.4,7.4h3.8v3.3h-5l-8.4-7.4H70.7c0.3,2,1.9,4.2,3.8,4.2l13.7,0
							l0,5.1H66.7l-5-2.9L50,54c-2-1.5-5.1-2.1-6.8-0.4l-0.2,0.2l17.8,12.3l30,11.2h12.8V80.6z"/>
					</g>
					<g id="Group-12" transform="translate(67.000000, 45.000000)">
						<g id="Clip-11">
						</g>
						<defs>
							<filter id="Adobe_OpacityMaskFilter_1_" filterUnits="userSpaceOnUse" x="35" y="45.8" width="22.3" height="43.7">
								<feColorMatrix  type="matrix" values="1 0 0 0 0  0 1 0 0 0  0 0 1 0 0  0 0 0 1 0"/>
							</filter>
						</defs>
						<mask maskUnits="userSpaceOnUse" x="35" y="45.8" width="22.3" height="43.7" id="mask-4">
							<g class="st5">
								<polygon id="path-3" class="st1" points="38.5,49.3 57.3,49.3 57.3,86 38.5,86 								"/>
							</g>
						</mask>
						<polyline id="Fill-10" class="st6" points="57.3,49.3 38.5,49.3 38.5,86 57.3,86 						"/>
					</g>
					<path id="Fill-13" class="st1" d="M75,64V54"/>
					<path id="Fill-17" class="st1" d="M59,64V54"/>
					<path id="Fill-21" class="st7" d="M57,72c0,5.5,4.5,10,10,10c5.5,0,10-4.5,10-10c0-5.5-4.5-10-10-10C61.5,62,57,66.5,57,72"/>
					<polygon id="Fill-22" class="st1" points="112,125 115,125 115,122 112,122 					"/>
				</g>
			</g>
		</g>
	</g>
</g>
</svg>
