<?xml version="1.0" encoding="UTF-8"?>
<svg width="18px" height="23px" viewBox="0 0 18 23" version="1.1" xmlns="http://www.w3.org/2000/svg" xmlns:xlink="http://www.w3.org/1999/xlink">
    <!-- Generator: Sketch 50 (54983) - http://www.bohemiancoding.com/sketch -->
    <title>Group 6</title>
    <desc>Created with Sketch.</desc>
    <defs></defs>
    <g id="Page-1" stroke="none" stroke-width="1" fill="none" fill-rule="evenodd">
        <g id="Find-us" transform="translate(-378.000000, -800.000000)">
            <g id="Group-20" transform="translate(338.000000, 524.000000)">
                <g id="Group-19" transform="translate(19.000000, 180.000000)">
                    <g id="Group-16" transform="translate(22.000000, 97.000000)">
                        <g id="Group-6">
                            <path d="M7.8,20.202 C7.8,20.202 0.3,11.844 0.3,7.698 C0.300000062,3.55586442 3.65786442,0.198000112 7.8,0.198000112 C11.9421356,0.198000112 15.2999999,3.55586442 15.3,7.698 C15.3,9.756 13.452,12.858 11.586,15.45" id="Shape" stroke="#696969" stroke-width="2" stroke-linecap="round" stroke-linejoin="round"></path>
                            <path d="M3.48,20.202 L12.12,20.202" id="Shape" stroke="#696969" stroke-width="2" fill="#696969" fill-rule="nonzero" stroke-linecap="round" stroke-linejoin="round"></path>
                            <path d="M7.8,2.7 C5.77498097,2.69757337 3.94812121,3.91586855 3.17205861,5.78627888 C2.395996,7.65668921 2.82373554,9.81045302 4.25564126,11.2423587 C5.68754698,12.6742645 7.84131079,13.102004 9.71172112,12.3259414 C11.5821315,11.5498788 12.8004266,9.72301903 12.798,7.698 C12.798,4.93768082 10.5603192,2.7 7.8,2.7 Z M7.8,10.008 C6.52422223,10.008 5.49,8.97377777 5.49,7.698 C5.49,6.42222223 6.52422223,5.388 7.8,5.388 C9.07577777,5.388 10.11,6.42222223 10.11,7.698 C10.11,8.31065009 9.8666257,8.89820763 9.43341666,9.33141666 C9.00020763,9.7646257 8.41265009,10.008 7.8,10.008 Z" id="Shape" fill="#75DEC5" fill-rule="nonzero"></path>
                            <path d="M7.8,5.4 C8.73485311,5.40000315 9.57754004,5.96346799 9.93472974,6.82739268 C10.2919194,7.69131737 10.0931834,8.68535855 9.43128341,9.34553936 C8.76938339,10.0057202 7.77482869,10.2018702 6.9118359,9.84243485 C6.0488431,9.48299948 5.48757181,8.63884996 5.49,7.704" id="Shape" stroke="#696969" stroke-width="2" stroke-linecap="round" stroke-linejoin="round"></path>
                        </g>
                    </g>
                </g>
            </g>
        </g>
    </g>
</svg>