<?xml version="1.0" encoding="UTF-8"?>
<svg width="21px" height="29px" viewBox="0 0 21 29" version="1.1" xmlns="http://www.w3.org/2000/svg" xmlns:xlink="http://www.w3.org/1999/xlink">
    <!-- Generator: Sketch 50.2 (55047) - http://www.bohemiancoding.com/sketch -->
    <title>Shape</title>
    <desc>Created with Sketch.</desc>
    <defs></defs>
    <g id="Page-1" stroke="none" stroke-width="1" fill="none" fill-rule="evenodd">
        <g id="Find-us" transform="translate(-754.000000, -1047.000000)" fill="#75DEC5" stroke="#FFFFFF">
            <g id="Group-20" transform="translate(338.000000, 524.000000)">
                <g id="Group-8" transform="translate(0.000000, 166.000000)">
                    <g id="path" transform="translate(416.000000, 302.000000)">
                        <g id="marker" transform="translate(0.000000, 55.000000)">
                            <path d="M10.5,0.75 C5.185625,0.75 0.875,5.060625 0.875,10.375 C0.875,17.59375 10.5,28.25 10.5,28.25 C10.5,28.25 20.125,17.59375 20.125,10.375 C20.125,5.060625 15.814375,0.75 10.5,0.75 L10.5,0.75 Z M10.5,13.8125 C8.6025,13.8125 7.0625,12.2725 7.0625,10.375 C7.0625,8.4775 8.6025,6.9375 10.5,6.9375 C12.3975,6.9375 13.9375,8.4775 13.9375,10.375 C13.9375,12.2725 12.3975,13.8125 10.5,13.8125 L10.5,13.8125 Z" id="Shape"></path>
                        </g>
                    </g>
                </g>
            </g>
        </g>
    </g>
</svg>