<?xml version="1.0" encoding="utf-8"?>
<!-- Generator: Adobe Illustrator 21.1.0, SVG Export Plug-In . SVG Version: 6.00 Build 0)  -->
<svg version="1.1" id="Layer_1" xmlns="http://www.w3.org/2000/svg" xmlns:xlink="http://www.w3.org/1999/xlink" x="0px" y="0px"
	 viewBox="0 0 163 163" style="enable-background:new 0 0 163 163;" xml:space="preserve">
<style type="text/css">
	.st0{clip-path:url(#SVGID_2_);fill:#F1F5F8;}
	.st1{fill:#696969;}
	.st2{fill:#FFFFFF;}
	.st3{fill:#C7D2DC;}
</style>
<g>
	<defs>
		<circle id="SVGID_1_" cx="81.5" cy="81.5" r="81.5"/>
	</defs>
	<clipPath id="SVGID_2_">
		<use xlink:href="#SVGID_1_"  style="overflow:visible;"/>
	</clipPath>
	<rect x="-5" y="-5" class="st0" width="173" height="173"/>
</g>
<title>mobile_banking</title>
<desc>Created with Sketch.</desc>
<g id="Page-1">
	<g id="Landing" transform="translate(-1114.000000, -2090.000000)">
		<g id="Group-5" transform="translate(218.000000, 2009.000000)">
			<g id="Group-7" transform="translate(751.333333, 0.000000)">
				<g id="mobile_banking" transform="translate(145.000000, 81.000000)">
					<g id="Group-3">
						<path id="Fill-1" class="st1" d="M79.6,127.5H50.2c-2.6,0-4.7-2.1-4.7-4.7V39.6c0-2.6,2.1-4.7,4.7-4.7h39.7
							c2.6,0,4.7,2.1,4.7,4.7v29h-3.7v-29c0-0.5-0.4-1-1-1H50.2c-0.5,0-1,0.4-1,1v83.2c0,0.5,0.4,1,1,1h29.4V127.5z"/>
					</g>
					<polygon id="Fill-4" class="st1" points="90.5,87.5 94.5,87.5 94.5,79.5 90.5,79.5 					"/>
					<polygon id="Fill-6" class="st2" points="52.5,113.5 87.5,113.5 87.5,49.5 52.5,49.5 					"/>
					<polygon id="Fill-7" class="st1" points="62.5,45.5 77.5,45.5 77.5,41.5 62.5,41.5 					"/>
					<polygon id="Fill-8" class="st1" points="68.5,120.5 72.5,120.5 72.5,116.5 68.5,116.5 					"/>
					<path id="Fill-9" class="st3" d="M71.6,78.8l-5.4-2.2c-2.3-1.5-2.7-3.1-2.7-4.2v-2.3c0-2.9,2.3-5.3,5.2-5.3h2.7
						c2.9,0,5.2,2.4,5.2,5.3v1.1h-3.7v-1.1c0-0.8-0.7-1.5-1.5-1.5h-2.7c-0.8,0-1.5,0.7-1.5,1.5v2.3c0,0.1,0.2,0.5,0.9,0.9l4.9,1.9
						L71.6,78.8z"/>
					<path id="Fill-10" class="st3" d="M71.3,87.5h-2.7c-2.9,0-5.2-2.4-5.2-5.3v-1.1h3.7v1.1c0,0.8,0.7,1.5,1.5,1.5h2.7
						c0.8,0,1.5-0.7,1.5-1.5v-2.3c0-0.1-0.2-0.5-0.9-1l-4.6-1.8l1.3-3.6l5.1,2.1c2.3,1.5,2.8,3.2,2.8,4.3v2.3
						C76.5,85.1,74.2,87.5,71.3,87.5"/>
					<polygon id="Fill-11" class="st3" points="68.5,66.8 72.5,66.8 72.5,61.8 68.5,61.8 					"/>
					<polygon id="Fill-12" class="st3" points="68.5,89.5 72.5,89.5 72.5,84.5 68.5,84.5 					"/>
					<path id="Fill-13" class="st1" d="M93.3,76.2c-5.1,0-9.2,4.8-9.2,10.6v26.4c0,5.1,3.1,7.6,9.2,7.6h3.4c6.1,0,9.2-2.6,9.2-7.6
						V86.8c0-5.9-4.1-10.6-9.2-10.6H93.3z M96.7,124.5h-3.4c-8,0-12.8-4.2-12.8-11.3V86.8c0-7.9,5.7-14.3,12.8-14.3h3.4
						c7.1,0,12.8,6.4,12.8,14.3v26.4C109.5,120.3,104.7,124.5,96.7,124.5z"/>
					<polygon id="Fill-14" class="st3" points="76.5,125.5 114.5,125.5 114.5,92.5 76.5,92.5 					"/>
					<path class="st1" d="M74.5,90.5v37h42v-37H74.5z M112.8,123.8H78.2V94.2h34.5V123.8z"/>
					<path id="Fill-16" class="st1" d="M95.5,101.5c-1.7,0-3,1.6-3,3.5c0,1.3,0.6,2.4,1.5,3l-0.7,8.6h2.2h2.2l-0.7-8.6
						c0.9-0.6,1.5-1.7,1.5-3C98.5,103.1,97.2,101.5,95.5,101.5"/>
				</g>
			</g>
		</g>
	</g>
</g>
</svg>
