<?xml version="1.0" encoding="UTF-8"?>
<svg width="427px" height="70px" viewBox="0 0 427 70" version="1.1" xmlns="http://www.w3.org/2000/svg" xmlns:xlink="http://www.w3.org/1999/xlink">
    <!-- Generator: Sketch 49.3 (51167) - http://www.bohemiancoding.com/sketch -->
    <title>opportunity_logo</title>
    <desc>Created with Sketch.</desc>
    <defs></defs>
    <g id="Symbols" stroke="none" stroke-width="1" fill="none" fill-rule="evenodd">
        <g id="navigation/footer" transform="translate(-1400.000000, -90.000000)">
            <g id="opportunity_logo" transform="translate(1400.000000, 90.000000)">
                <path d="M36.13701,48.9342 C28.29729,48.9342 22.4175,43.47714 22.4175,35.67585 C22.4175,27.87456 28.29729,22.4175 36.13701,22.4175 C43.97673,22.4175 49.81809,27.87456 49.81809,35.67585 C49.81809,43.47714 43.97673,48.9342 36.13701,48.9342 Z M36.13701,43.09284 C40.36431,43.09284 43.09284,39.82629 43.09284,35.67585 C43.09284,31.48698 40.36431,28.25886 36.13701,28.25886 C31.87128,28.25886 29.14275,31.48698 29.14275,35.67585 C29.14275,39.82629 31.87128,43.09284 36.13701,43.09284 Z M59.98496,48.47304 L53.375,48.47304 L53.375,22.84023 L66.21062,22.84023 C71.97512,22.84023 75.12638,26.72166 75.12638,31.37169 C75.12638,35.98329 71.97512,39.86472 66.21062,39.86472 L59.98496,39.86472 L59.98496,48.47304 Z M65.32673,34.10022 C67.09451,34.10022 68.40113,33.10104 68.40113,31.37169 C68.40113,29.60391 67.09451,28.60473 65.32673,28.60473 L59.98496,28.60473 L59.98496,34.10022 L65.32673,34.10022 Z M84.90895,48.47304 L78.29899,48.47304 L78.29899,22.84023 L91.13461,22.84023 C96.89911,22.84023 100.05037,26.72166 100.05037,31.37169 C100.05037,35.98329 96.89911,39.86472 91.13461,39.86472 L84.90895,39.86472 L84.90895,48.47304 Z M90.25072,34.10022 C92.0185,34.10022 93.32512,33.10104 93.32512,31.37169 C93.32512,29.60391 92.0185,28.60473 90.25072,28.60473 L84.90895,28.60473 L84.90895,34.10022 L90.25072,34.10022 Z M115.63587,48.9342 C107.79615,48.9342 101.91636,43.47714 101.91636,35.67585 C101.91636,27.87456 107.79615,22.4175 115.63587,22.4175 C123.47559,22.4175 129.31695,27.87456 129.31695,35.67585 C129.31695,43.47714 123.47559,48.9342 115.63587,48.9342 Z M115.63587,43.09284 C119.86317,43.09284 122.5917,39.82629 122.5917,35.67585 C122.5917,31.48698 119.86317,28.25886 115.63587,28.25886 C111.37014,28.25886 108.64161,31.48698 108.64161,35.67585 C108.64161,39.82629 111.37014,43.09284 115.63587,43.09284 Z M154.74053,48.47304 L147.16982,48.47304 L142.86566,39.86472 L139.48382,39.86472 L139.48382,48.47304 L132.87386,48.47304 L132.87386,22.84023 L145.70948,22.84023 C151.39712,22.84023 154.62524,26.60637 154.62524,31.37169 C154.62524,35.82957 151.89671,38.21223 149.51405,39.05769 L154.74053,48.47304 Z M144.7103,34.10022 C146.43965,34.10022 147.89999,33.13947 147.89999,31.33326 C147.89999,29.60391 146.43965,28.60473 144.7103,28.60473 L139.48382,28.60473 L139.48382,34.10022 L144.7103,34.10022 Z M170.44132,48.47304 L163.83136,48.47304 L163.83136,28.60473 L156.64495,28.60473 L156.64495,22.84023 L177.5893,22.84023 L177.5893,28.60473 L170.44132,28.60473 L170.44132,48.47304 Z M193.09794,48.9342 C184.83549,48.9342 180.95406,44.39946 180.95406,38.09694 L180.95406,22.84023 L187.67931,22.84023 L187.67931,37.86636 C187.67931,40.90233 189.48552,43.09284 193.09794,43.09284 C196.6335,43.09284 198.47814,40.90233 198.47814,37.86636 L198.47814,22.84023 L205.16496,22.84023 L205.16496,38.05851 C205.16496,44.43789 201.28353,48.9342 193.09794,48.9342 Z M233.81666,48.47304 L227.43728,48.47304 L216.60002,33.63906 L216.60002,48.47304 L209.99006,48.47304 L209.99006,22.84023 L216.79217,22.84023 L227.16827,36.94404 L227.16827,22.84023 L233.81666,22.84023 L233.81666,48.47304 Z M245.25172,48.47304 L238.64176,48.47304 L238.64176,22.84023 L245.25172,22.84023 L245.25172,48.47304 Z M262.41285,48.47304 L255.80289,48.47304 L255.80289,28.60473 L248.61648,28.60473 L248.61648,22.84023 L269.56083,22.84023 L269.56083,28.60473 L262.41285,28.60473 L262.41285,48.47304 Z M286.52981,48.47304 L279.91985,48.47304 L279.91985,38.13537 L270.19706,22.84023 L277.65248,22.84023 L283.22483,32.29401 L288.72032,22.84023 L296.21417,22.84023 L286.52981,38.13537 L286.52981,48.47304 Z M320.00661,48.47304 L309.24621,48.47304 L309.24621,22.84023 L319.77603,22.84023 C324.08019,22.84023 326.84715,25.33818 326.84715,29.37333 C326.84715,32.60145 324.65664,34.79196 322.35084,35.25312 C325.07937,35.67585 327.34674,38.51967 327.34674,41.55564 C327.34674,45.82137 324.57978,48.47304 320.00661,48.47304 Z M319.50702,34.3308 C322.812,34.3308 324.54135,32.25558 324.54135,29.60391 C324.54135,26.99067 322.812,24.83859 319.50702,24.83859 L311.43672,24.83859 L311.43672,34.3308 L319.50702,34.3308 Z M319.66074,46.47468 C323.04258,46.47468 325.04094,44.51475 325.04094,41.40192 C325.04094,38.78868 323.23473,36.32916 319.66074,36.32916 L311.43672,36.32916 L311.43672,46.47468 L319.66074,46.47468 Z M354.1538,48.47304 L351.61742,48.47304 L349.08104,42.17052 L335.51525,42.17052 L332.97887,48.47304 L330.44249,48.47304 L340.93388,22.84023 L343.66241,22.84023 L354.1538,48.47304 Z M348.35087,40.17216 L342.27893,25.18446 L336.24542,40.17216 L348.35087,40.17216 Z M378.61663,48.47304 L376.46455,48.47304 L360.32395,26.45265 L360.32395,48.47304 L358.13344,48.47304 L358.13344,22.84023 L360.36238,22.84023 L376.42612,44.55318 L376.42612,22.84023 L378.61663,22.84023 L378.61663,48.47304 Z M403.61748,48.47304 L400.81209,48.47304 L390.24384,36.40602 L387.40002,39.51885 L387.40002,48.47304 L385.20951,48.47304 L385.20951,22.84023 L387.40002,22.84023 L387.40002,36.86718 L399.77448,22.84023 L402.57987,22.84023 L391.66575,35.06097 L403.61748,48.47304 Z" id="OPPORTUNITY-BANK" fill="#FFFFFF"></path>
                <rect id="Rectangle" stroke="#FFFFFF" stroke-width="5" x="2.5" y="2.5" width="421.946638" height="64.1313023"></rect>
            </g>
        </g>
    </g>
</svg>