<?xml version="1.0" encoding="UTF-8"?>
<svg width="163px" height="163px" viewBox="0 0 163 163" version="1.1" xmlns="http://www.w3.org/2000/svg" xmlns:xlink="http://www.w3.org/1999/xlink">
    <!-- Generator: Sketch 50 (54983) - http://www.bohemiancoding.com/sketch -->
    <title>Group 23</title>
    <desc>Created with Sketch.</desc>
    <defs></defs>
    <g id="Page-1" stroke="none" stroke-width="1" fill="none" fill-rule="evenodd">
        <g id="Group-23">
            <circle id="Oval-2" fill="#F1F5F8" cx="81.5" cy="81.5" r="81.5"></circle>
            <polygon id="Fill-1" fill="#FFFFFF" points="64 126 126 126 126 91 64 91"></polygon>
            <path d="M62,128 L128,128 L128,89 L62,89 L62,128 Z M65.7429094,124.243442 L124.258962,124.243442 L124.258962,92.7574969 L65.7429094,92.7574969 L65.7429094,124.243442 Z" id="Fill-2" fill="#696969"></path>
            <path d="M73.6452475,120 C73.083802,118.235518 71.7212132,116.864307 70,116.329154 L70,99.5918108 C71.6898682,99.0652277 73.0413939,97.7225837 73.618512,96 L116.38241,96 C116.959528,97.7225837 118.311054,99.0652277 120,99.5918108 L120,116.331059 C118.278787,116.864307 116.91712,118.235518 116.355674,120 L73.6452475,120 Z" id="Fill-3" fill="#C7D2DC"></path>
            <path d="M101,107.999546 C101,111.313338 98.312429,114 94.9977278,114 C91.6857532,114 89,111.313338 89,107.999546 C89,104.685753 91.6857532,102 94.9977278,102 C98.312429,102 101,104.685753 101,107.999546" id="Fill-5" fill="#FFFFFF"></path>
            <path d="M94.99814,103.720498 C92.6396187,103.720498 90.7200651,105.639344 90.7200651,108 C90.7200651,110.359726 92.6396187,112.279502 94.99814,112.279502 C97.3585213,112.279502 99.2799349,110.359726 99.2799349,108 C99.2799349,105.639344 97.3585213,103.720498 94.99814,103.720498 M94.99814,116 C90.5889328,116 87,112.41065 87,108 C87,103.58842 90.5889328,100 94.99814,100 C99.4101372,100 103,103.58842 103,108 C103,112.41065 99.4101372,116 94.99814,116" id="Fill-7" fill="#696969"></path>
            <path d="M106,108 L116,108" id="Fill-9" fill="#FFFFFF"></path>
            <polygon id="Fill-11" fill="#696969" points="106 110 116 110 116 106 106 106"></polygon>
            <path d="M83,108 L73,108" id="Fill-13" fill="#FFFFFF"></path>
            <polygon id="Fill-14" fill="#696969" points="73 110 83 110 83 106 73 106"></polygon>
            <polygon id="Fill-15" fill="#696969" points="38.6772846 99 36 96.362088 44.5004734 88 53 96.362088 50.3246088 99 44.5004734 93.2711635"></polygon>
            <path d="M57,111 L50.7925367,111 C45.9447251,111 42,106.910253 42,101.883055 L42,93 L45.6525233,93 L45.6525233,101.883055 C45.6525233,104.822295 47.9590917,107.21232 50.7925367,107.21232 L57,107.21232 L57,111 Z" id="Fill-16" fill="#696969"></path>
            <polygon id="Fill-17" fill="#FFFFFF" points="37 80 99 80 99 45 37 45"></polygon>
            <path d="M38.7419739,78.2426841 L97.2580261,78.2426841 L97.2580261,46.7573159 L38.7419739,46.7573159 L38.7419739,78.2426841 Z M35,82 L101,82 L101,43 L35,43 L35,82 Z" id="Fill-18" fill="#696969"></path>
            <polygon id="Fill-19" fill="#C7D2DC" points="56 75 93 75 93 51 56 51"></polygon>
            <path d="M47,52 L43,52" id="Fill-20" fill="#FFFFFF"></path>
            <polygon id="Fill-21" fill="#696969" points="43 55 47 55 47 51 43 51"></polygon>
            <path d="M53,72 L43,72" id="Fill-22" fill="#FFFFFF"></path>
            <polygon id="Fill-23" fill="#696969" points="43 74 53 74 53 70 43 70"></polygon>
            <path d="M67,55 L60,55" id="Fill-24" fill="#FFFFFF"></path>
            <polygon id="Fill-25" fill="#696969" points="60 57 67 57 67 53 60 53"></polygon>
            <path d="M88,81 L88,46" id="Fill-26" fill="#FFFFFF"></path>
            <polygon id="Fill-27" fill="#696969" points="86 81 90 81 90 46 86 46"></polygon>
            <polygon id="Fill-28" fill="#696969" points="118.499527 82 110 73.6372034 112.676338 71 118.499527 76.729322 124.322715 71 127 73.6372034"></polygon>
            <path d="M121,78 L117.347477,78 L117.347477,69.1169446 C117.347477,66.1786522 115.041821,63.7876795 112.207463,63.7876795 L106,63.7876795 L106,60 L112.207463,60 C117.056188,60 121,64.089747 121,69.1169446 L121,78 Z" id="Fill-29" fill="#696969"></path>
        </g>
    </g>
</svg>