<?xml version="1.0" encoding="UTF-8"?>
<svg width="163px" height="163px" viewBox="0 0 163 163" version="1.1" xmlns="http://www.w3.org/2000/svg" xmlns:xlink="http://www.w3.org/1999/xlink">
    <!-- Generator: Sketch 50.2 (55047) - http://www.bohemiancoding.com/sketch -->
    <title>Group 31</title>
    <desc>Created with Sketch.</desc>
    <defs>
        <polygon id="path-1" points="53.7857143 118.250607 113.32556 118.250607 113.32556 37.6409774 53.7857143 37.6409774"></polygon>
    </defs>
    <g id="Page-1" stroke="none" stroke-width="1" fill="none" fill-rule="evenodd">
        <g id="Group-31">
            <circle id="Oval-2" fill="#F1F5F8" cx="81.5" cy="81.5" r="81.5"></circle>
            <path d="M111.743091,115.76647 C111.743091,116.265814 111.341875,116.667821 110.844905,116.667821 L56.2652618,116.667821 C55.7698746,116.667821 55.3686585,116.265814 55.3686585,115.76647 L55.3686585,40.1225825 C55.3686585,39.6264039 55.7698746,39.2236051 56.2652618,39.2236051 L110.844905,39.2236051 C111.341875,39.2236051 111.743091,39.6264039 111.743091,40.1225825 L111.743091,115.76647 Z" id="Fill-1" fill="#FFFFFF"></path>
            <mask id="mask-2" fill="white">
                <use xlink:href="#path-1"></use>
            </mask>
            <g id="Clip-4"></g>
            <path d="M56.9511278,115.085194 L110.160147,115.085194 L110.160147,40.8071823 L56.9511278,40.8071823 L56.9511278,115.085194 Z M110.845459,118.250607 L56.2650244,118.250607 C54.8975658,118.250607 53.7857143,117.13559 53.7857143,115.766549 L53.7857143,40.1226617 C53.7857143,38.7544117 54.8975658,37.6409774 56.2650244,37.6409774 L110.845459,37.6409774 C112.212917,37.6409774 113.32556,38.7544117 113.32556,40.1226617 L113.32556,115.766549 C113.32556,117.13559 112.212917,118.250607 110.845459,118.250607 Z" id="Fill-3" fill="#696969" mask="url(#mask-2)"></path>
            <polygon id="Fill-5" fill="#FFFFFF" mask="url(#mask-2)" points="63.1363459 108.425164 103.957519 108.425164 103.957519 67.6039906 63.1363459 67.6039906"></polygon>
            <path d="M64.7190526,106.842457 L102.374812,106.842457 L102.374812,69.1866974 L64.7190526,69.1866974 L64.7190526,106.842457 Z M61.5536391,110.00787 L105.540226,110.00787 L105.540226,66.0212838 L61.5536391,66.0212838 L61.5536391,110.00787 Z" id="Fill-6" fill="#282D33" mask="url(#mask-2)"></path>
            <polygon id="Fill-7" fill="#C7D2DC" mask="url(#mask-2)" points="61.5061579 62.1104154 105.605117 62.1104154 105.605117 49.1306372 61.5061579 49.1306372"></polygon>
            <polygon id="Fill-8" fill="#FFFFFF" mask="url(#mask-2)" points="63.1363459 108.425164 103.957519 108.425164 103.957519 67.6039906 63.1363459 67.6039906"></polygon>
            <path d="M64.7190526,106.842457 L102.374812,106.842457 L102.374812,69.1866974 L64.7190526,69.1866974 L64.7190526,106.842457 Z M61.5536391,110.00787 L105.540226,110.00787 L105.540226,66.0212838 L61.5536391,66.0212838 L61.5536391,110.00787 Z" id="Fill-9" fill="#696969" mask="url(#mask-2)"></path>
            <polygon id="Fill-10" fill="#C7D2DC" mask="url(#mask-2)" points="83.1844925 108.425164 103.957519 108.425164 103.957519 87.6521372 83.1844925 87.6521372"></polygon>
            <path d="M84.7671992,106.842457 L102.374812,106.842457 L102.374812,89.234844 L84.7671992,89.234844 L84.7671992,106.842457 Z M81.6017857,110.00787 L105.540226,110.00787 L105.540226,86.0694305 L81.6017857,86.0694305 L81.6017857,110.00787 Z" id="Fill-11" fill="#696969" mask="url(#mask-2)"></path>
            <path d="M83.6469594,67.6035949 L83.6469594,108.22693" id="Fill-12" fill="#FFFFFF" mask="url(#mask-2)"></path>
            <polygon id="Fill-13" fill="#696969" mask="url(#mask-2)" points="82.0639361 108.227325 85.2293496 108.227325 85.2293496 67.6039906 82.0639361 67.6039906"></polygon>
            <path d="M103.957835,87.9152622 L63.3345008,87.9152622" id="Fill-14" fill="#FFFFFF" mask="url(#mask-2)"></path>
            <polygon id="Fill-15" fill="#696969" mask="url(#mask-2)" points="63.3341842 89.4983647 103.957519 89.4983647 103.957519 86.3329511 63.3341842 86.3329511"></polygon>
            <path d="M78.3710064,77.8927716 L67.8198917,77.8927716" id="Fill-16" fill="#FFFFFF" mask="url(#mask-2)"></path>
            <polygon id="Fill-17" fill="#696969" mask="url(#mask-2)" points="67.8195752 79.4750827 78.3706898 79.4750827 78.3706898 76.3096692 67.8195752 76.3096692"></polygon>
            <path d="M73.0950534,83.1671419 L73.0950534,72.6160273" id="Fill-18" fill="#FFFFFF" mask="url(#mask-2)"></path>
            <polygon id="Fill-19" fill="#696969" mask="url(#mask-2)" points="71.5120301 83.1675376 74.6774436 83.1675376 74.6774436 72.6164229 71.5120301 72.6164229"></polygon>
            <path d="M99.209715,77.8927716 L88.6593917,77.8927716" id="Fill-20" fill="#FFFFFF" mask="url(#mask-2)"></path>
            <polygon id="Fill-21" fill="#696969" mask="url(#mask-2)" points="88.6590752 79.4750827 99.2093985 79.4750827 99.2093985 76.3096692 88.6590752 76.3096692"></polygon>
            <path d="M76.825335,102.198241 L69.3636639,94.7365701" id="Fill-22" fill="#FFFFFF" mask="url(#mask-2)"></path>
            <polygon id="Fill-23" fill="#696969" mask="url(#mask-2)" points="75.7063613 103.316503 68.2446902 95.8548316 70.4826376 93.6176756 77.9443086 101.078555"></polygon>
            <path d="M69.365484,102.196738 L76.8263637,94.7358579" id="Fill-24" fill="#FFFFFF" mask="url(#mask-2)"></path>
            <polygon id="Fill-25" fill="#696969" mask="url(#mask-2)" points="70.4844577 103.31579 68.2465103 101.077843 75.70739 93.6177547 77.9453374 95.8549107"></polygon>
            <path d="M99.209715,100.84202 L88.6593917,100.84202" id="Fill-26" fill="#FFFFFF" mask="url(#mask-2)"></path>
            <polygon id="Fill-27" fill="#696969" mask="url(#mask-2)" points="88.6590752 102.424331 99.2093985 102.424331 99.2093985 99.2589173 88.6590752 99.2589173"></polygon>
            <path d="M99.209715,96.0938994 L88.6593917,96.0938994" id="Fill-28" fill="#FFFFFF" mask="url(#mask-2)"></path>
            <polygon id="Fill-29" fill="#696969" mask="url(#mask-2)" points="88.6590752 97.6762105 99.2093985 97.6762105 99.2093985 94.510797 88.6590752 94.510797"></polygon>
        </g>
    </g>
</svg>