<?xml version="1.0" encoding="UTF-8"?>
<svg width="163px" height="163px" viewBox="0 0 163 163" version="1.1" xmlns="http://www.w3.org/2000/svg" xmlns:xlink="http://www.w3.org/1999/xlink">
    <!-- Generator: Sketch 49.3 (51167) - http://www.bohemiancoding.com/sketch -->
    <title>Artboard</title>
    <desc>Created with Sketch.</desc>
    <defs>
        <polygon id="path-1" points="0 0 92 0 92 71 0 71"></polygon>
    </defs>
    <g id="Artboard" stroke="none" stroke-width="1" fill="none" fill-rule="evenodd">
        <circle id="Oval-2" fill="#F1F5F8" cx="81.5" cy="81.5" r="81.5"></circle>
        <g id="savings" transform="translate(35.000000, 42.000000)">
            <polygon id="Fill-1" fill="#FFFFFF" points="9 76 23 76 23 67 9 67"></polygon>
            <path d="M8,77 L26,77 L26,65 L8,65 L8,77 Z M11.6991114,73.3179621 L22.3027377,73.3179621 L22.3027377,68.6838794 L11.6991114,68.6838794 L11.6991114,73.3179621 Z" id="Fill-2" fill="#696969"></path>
            <polygon id="Fill-3" fill="#FFFFFF" points="69 74 83 74 83 65 69 65"></polygon>
            <path d="M66,78 L84,78 L84,64 L66,64 L66,78 Z M69.697807,74.1578045 L80.302193,74.1578045 L80.302193,67.8421955 L69.697807,67.8421955 L69.697807,74.1578045 Z" id="Fill-4" fill="#696969"></path>
            <path d="M91,65.956526 C91,67.6372504 89.6414258,69 87.9660665,69 L5.03393348,69 C3.35949774,69 2,67.6372504 2,65.956526 L2,5.04625517 C2,3.36182253 3.35949774,2 5.03393348,2 L87.9660665,2 C89.6414258,2 91,3.36182253 91,5.04625517 L91,65.956526 Z" id="Fill-5" fill="#FFFFFF"></path>
            <mask id="mask-2" fill="white">
                <use xlink:href="#path-1"></use>
            </mask>
            <g id="Clip-8"></g>
            <path d="M4.84451751,3.72346702 C4.19460967,3.72346702 3.66661685,4.261508 3.66661685,4.92056167 L3.66661685,66.0822309 C3.66661685,66.7412846 4.19460967,67.276533 4.84451751,67.276533 L87.1554825,67.276533 C87.8053903,67.276533 88.3333832,66.7412846 88.3333832,66.0822309 L88.3333832,4.92056167 C88.3333832,4.261508 87.8053903,3.72346702 87.1554825,3.72346702 L4.84451751,3.72346702 Z M87.1554825,71 L4.84451751,71 C2.17338714,71 0,68.7938458 0,66.0822309 L0,4.92056167 C0,2.20708508 2.17338714,0 4.84451751,0 L87.1554825,0 C89.8266129,0 92,2.20708508 92,4.92056167 L92,66.0822309 C92,68.7938458 89.8266129,71 87.1554825,71 Z" id="Fill-7" fill="#696969" mask="url(#mask-2)"></path>
            <polygon id="Fill-10" fill="#C7D2DC" mask="url(#mask-2)" points="22 52 73 52 73 18 22 18"></polygon>
            <polygon id="Fill-12" fill="#696969" mask="url(#mask-2)" points="81 60 13 60 13 56.2504543 77.3423654 56.2504543 77.3423654 14.7495457 13 14.7495457 13 11 81 11"></polygon>
            <polygon id="Fill-13" fill="#FFFFFF" mask="url(#mask-2)" points="9 26 17 26 17 16 9 16"></polygon>
            <path d="M11.5478149,25.1285327 L15.4521851,25.1285327 L15.4521851,17.8714673 L11.5478149,17.8714673 L11.5478149,25.1285327 Z M8,29 L19,29 L19,14 L8,14 L8,29 Z" id="Fill-14" fill="#696969" mask="url(#mask-2)"></path>
            <polygon id="Fill-15" fill="#FFFFFF" mask="url(#mask-2)" points="9 54 17 54 17 44 9 44"></polygon>
            <path d="M11.5478149,53.1287825 L15.4521851,53.1287825 L15.4521851,45.8712175 L11.5478149,45.8712175 L11.5478149,53.1287825 Z M8,57 L19,57 L19,42 L8,42 L8,57 Z" id="Fill-16" fill="#696969" mask="url(#mask-2)"></path>
            <path d="M59,35.4995314 C59,42.9554337 53.1798049,49 45.9986463,49 C38.8174876,49 33,42.9554337 33,35.4995314 C33,28.0436292 38.8174876,22 45.9986463,22 C53.1798049,22 59,28.0436292 59,35.4995314" id="Fill-17" fill="#FFFFFF" mask="url(#mask-2)"></path>
            <path d="M46.4983541,24.535292 C40.8700622,24.535292 36.29188,29.4528831 36.29188,35.4991162 C36.29188,41.5453493 40.8700622,46.464708 46.4983541,46.464708 C52.1291149,46.464708 56.70812,41.5453493 56.70812,35.4991162 C56.70812,29.4528831 52.1291149,24.535292 46.4983541,24.535292 M46.4983541,50 C39.0545903,50 33,43.494179 33,35.4991162 C33,27.5040534 39.0545903,21 46.4983541,21 C53.9437637,21 60,27.5040534 60,35.4991162 C60,43.494179 53.9437637,50 46.4983541,50" id="Fill-18" fill="#696969" mask="url(#mask-2)"></path>
            <path d="M52,35.5 C52,38.5382302 49.5380187,41 46.4995275,41 C43.4629264,41 41,38.5382302 41,35.5 C41,32.4636598 43.4629264,30 46.4995275,30 C49.5380187,30 52,32.4636598 52,35.5" id="Fill-19" fill="#FFFFFF" mask="url(#mask-2)"></path>
            <path d="M46.4991687,31.5803337 C44.7492646,31.5803337 43.3252334,33.1145067 43.3252334,34.9995525 C43.3252334,36.8854933 44.7492646,38.4196663 46.4991687,38.4196663 C48.2507354,38.4196663 49.6747666,36.8854933 49.6747666,34.9995525 C49.6747666,33.1145067 48.2507354,31.5803337 46.4991687,31.5803337 M46.4991687,42 C42.9153984,42 40,38.8591522 40,34.9995525 C40,31.1399527 42.9153984,28 46.4991687,28 C50.0837703,28 53,31.1399527 53,34.9995525 C53,38.8591522 50.0837703,42 46.4991687,42" id="Fill-20" fill="#696969" mask="url(#mask-2)"></path>
            <polygon id="Fill-21" fill="#696969" mask="url(#mask-2)" points="13 39 16 39 16 31 13 31"></polygon>
        </g>
    </g>
</svg>