<?xml version="1.0" encoding="UTF-8"?>
<svg width="163px" height="163px" viewBox="0 0 163 163" version="1.1" xmlns="http://www.w3.org/2000/svg" xmlns:xlink="http://www.w3.org/1999/xlink">
    <!-- Generator: Sketch 50.2 (55047) - http://www.bohemiancoding.com/sketch -->
    <title>Group 28</title>
    <desc>Created with Sketch.</desc>
    <defs>
        <polygon id="path-1" points="0.0664220671 0.000306595365 47.0148195 0.000306595365 47.0148195 8.43137255 0.0664220671 8.43137255"></polygon>
        <polygon id="path-3" points="0.0968202614 0.117111765 10.9426033 0.117111765 10.9426033 10.0764429 0.0968202614 10.0764429"></polygon>
    </defs>
    <g id="Page-1" stroke="none" stroke-width="1" fill="none" fill-rule="evenodd">
        <g id="Group-28">
            <circle id="Oval-2" fill="#F1F5F8" cx="81.5" cy="81.5" r="81.5"></circle>
            <g id="Page-1" transform="translate(58.000000, 39.000000)">
                <path d="M31.683833,39.5868855 C31.683833,36.3250074 32.0703251,33.2137415 32.7674632,30.3529412 L29.5561095,30.3529412 L17.6587699,30.3529412 L14.4490299,30.3529412 C15.1453612,33.2137415 15.5302395,36.3250074 15.5302395,39.5868855 C15.5302395,48.4488759 12.6997297,56.2257926 8.43137255,60.7058824 L17.6587699,60.7058824 L29.5561095,60.7058824 L38.7843137,60.7058824 C34.5159566,56.2257926 31.683833,48.4488759 31.683833,39.5868855" id="Fill-3" fill="#C7D2DC"></path>
                <path d="M12.0611065,58.2995344 L35.1545798,58.2995344 C31.8549467,53.410684 29.9486328,46.577829 29.9486328,39.3062935 C29.9486328,36.7887549 30.1750472,34.3118348 30.6231259,31.9161518 L16.593352,31.9161518 C17.0406391,34.3085853 17.2662618,36.7855054 17.2662618,39.3062935 C17.2662618,46.577829 15.3607395,53.410684 12.0611065,58.2995344 Z M38.4985458,61.5490196 L8.71714047,61.5490196 L7.58823529,58.7861448 C11.6652771,54.5268821 14.0996274,47.2455982 14.0996274,39.3062935 C14.0996274,36.3354517 13.7592142,33.4352862 13.0855127,30.6886588 L14.6213304,28.6666667 L32.5943559,28.6666667 L34.1301736,30.6886588 C33.4564721,33.439348 33.1152672,36.3395136 33.1152672,39.3062935 C33.1152672,47.2447858 35.5496175,54.5260698 39.627451,58.7861448 L38.4985458,61.5490196 Z" id="Fill-5" fill="#696969"></path>
                <path d="M34.3065073,61.5490196 L12.0684004,61.5490196 C6.9271552,64.2881867 3.37254902,70.1474539 3.37254902,76.9364561 C3.37254902,77.4344131 3.39928129,77.9234924 3.43780722,78.4117647 L42.9371005,78.4117647 C42.974054,77.9234924 43,77.4344131 43,76.9364561 C43,70.1474539 39.4469663,64.2881867 34.3065073,61.5490196" id="Fill-7"></path>
                <path d="M4.84882966,76.8466061 L41.5237194,76.8466061 C41.4770833,71.0574294 38.5334804,65.7234533 33.9686826,63.1141782 L12.4070282,63.1141782 C7.83985907,65.7234533 4.89625613,71.0574294 4.84882966,76.8466061 Z M44.5028922,80.0980392 L1.87439951,80.0980392 L1.75741422,78.6031928 C1.70840686,77.988672 1.68627451,77.4757584 1.68627451,76.9872306 C1.68627451,69.8056276 5.45272672,63.155634 11.28144,60.0456382 L11.6229105,59.8627451 L34.7520098,59.8627451 L35.0942708,60.0456382 C40.9214032,63.155634 44.6862745,69.8056276 44.6862745,76.9872306 C44.6862745,77.4773841 44.6641422,78.0049291 44.6182966,78.5999414 L44.5028922,80.0980392 Z" id="Fill-9" fill="#696969"></path>
                <path d="M45.5294118,82.627451 C45.5294118,83.5582745 44.8108033,84.3137255 43.925375,84.3137255 L3.29031129,84.3137255 C2.40408097,84.3137255 1.68627451,83.5582745 1.68627451,82.627451 L1.68627451,80.0980392 C1.68627451,79.1672157 2.40408097,78.4117647 3.29031129,78.4117647 L43.925375,78.4117647 C44.8108033,78.4117647 45.5294118,79.1672157 45.5294118,80.0980392 L45.5294118,82.627451 Z" id="Fill-11" fill="#FFFFFF"></path>
                <g id="Group-15" transform="translate(0.000000, 77.568627)">
                    <mask id="mask-2" fill="white">
                        <use xlink:href="#path-1"></use>
                    </mask>
                    <g id="Clip-14"></g>
                    <path d="M3.26748554,3.06626025 L3.26748554,5.36572549 L43.8161569,5.36572549 L43.8137561,3.06626025 L3.26748554,3.06626025 Z M43.8137561,8.43167914 L3.26748554,8.43167914 C1.50209904,8.43167914 0.0664220671,7.05583244 0.0664220671,5.36572549 L0.0664220671,3.06626025 C0.0664220671,1.37538681 1.50209904,0.000306595365 3.26748554,0.000306595365 L43.8137561,0.000306595365 C45.5791426,0.000306595365 47.0148195,1.37538681 47.0148195,3.06626025 L47.0148195,5.36572549 C47.0148195,7.05583244 45.5791426,8.43167914 43.8137561,8.43167914 Z" id="Fill-13" fill="#696969" mask="url(#mask-2)"></path>
                </g>
                <path d="M32.0392157,24.8739661 C32.0392157,25.5697314 31.3868851,26.1372549 30.5837031,26.1372549 L17.474305,26.1372549 C16.6694922,26.1372549 16.0196078,25.5697314 16.0196078,24.8739661 C16.0196078,24.171824 16.6694922,23.6078431 17.474305,23.6078431 L30.5837031,23.6078431 C31.3868851,23.6078431 32.0392157,24.171824 32.0392157,24.8739661" id="Fill-16" fill="#FFFFFF"></path>
                <path d="M31.3295769,27.8235294 L17.5715281,27.8235294 C15.7855576,27.8235294 14.3333333,26.3114513 14.3333333,24.4527625 C14.3333333,22.5914005 15.7855576,21.0784314 17.5715281,21.0784314 L31.3295769,21.0784314 C33.1155475,21.0784314 34.5686275,22.5914005 34.5686275,24.4527625 C34.5686275,26.3114513 33.1155475,27.8235294 31.3295769,27.8235294" id="Fill-18" fill="#282D33"></path>
                <path d="M27.8235294,6.32477679 C27.8235294,8.41954553 26.1229331,10.1176471 24.0298276,10.1176471 C21.9358904,10.1176471 20.2352941,8.41954553 20.2352941,6.32477679 C20.2352941,4.23000806 21.9358904,2.52941176 24.0298276,2.52941176 C26.1229331,2.52941176 27.8235294,4.23000806 27.8235294,6.32477679" id="Fill-20" fill="#FFFFFF"></path>
                <g id="Group-24" transform="translate(18.549020, 0.000000)">
                    <mask id="mask-4" fill="white">
                        <use xlink:href="#path-3"></use>
                    </mask>
                    <g id="Clip-23"></g>
                    <path d="M5.5197118,3.15217824 C4.35199681,3.15217824 3.40162722,4.02482529 3.40162722,5.09780176 C3.40162722,6.17001941 4.35199681,7.04114882 5.5197118,7.04114882 C6.68742678,7.04114882 7.63779637,6.17001941 7.63779637,5.09780176 C7.63779637,4.02482529 6.68742678,3.15217824 5.5197118,3.15217824 M5.5197118,10.0764429 C2.52976642,10.0764429 0.0968202614,7.84398412 0.0968202614,5.09780176 C0.0968202614,2.35161941 2.52976642,0.116884118 5.5197118,0.116884118 C8.51048358,0.116884118 10.9426033,2.35161941 10.9426033,5.09780176 C10.9426033,7.84398412 8.51048358,10.0764429 5.5197118,10.0764429" id="Fill-22" fill="#696969" mask="url(#mask-4)"></path>
                </g>
                <path d="M37.0976772,16.3354048 C37.1520863,18.0523826 31.0662714,19.9754619 23.6082276,20.2352941 C16.1533844,19.9754619 10.0659692,18.0539865 10.1179779,16.3354048 C10.1179779,14.684187 15.7893237,8.63105843 23.6082276,8.43137255 C31.4271315,8.63105843 37.0984773,14.684187 37.0976772,16.3354048" id="Fill-25" fill="#FFFFFF"></path>
                <path d="M11.767067,17.8848497 C12.9000432,18.7505944 17.272623,20.1343266 23.6077943,20.3637327 C29.9421609,20.1343266 34.3147407,18.7505944 35.4485215,17.8848497 C34.5859147,16.3114319 29.9968785,11.8562517 23.6077943,11.675483 C17.2195147,11.8562517 12.6296739,16.3098106 11.767067,17.8848497 Z M23.6077943,23.6078431 L23.552272,23.6070325 C23.3993846,23.6005475 8.28042951,23.0120358 8.43251224,17.9942838 C8.43170757,15.00633 15.4379741,8.6405131 23.5667561,8.43299379 L23.6077943,8.43137255 L23.6488325,8.43299379 C31.7800285,8.6405131 38.7846857,15.00633 38.7830763,18.0437317 C38.9415964,23.0120358 23.8170086,23.6005475 23.6633165,23.6070325 L23.6077943,23.6078431 Z" id="Fill-27" fill="#696969"></path>
                <path d="M37.0833606,18.0664396 C37.0905542,18.6852126 33.5513194,28.28879 23.608212,28.6666667 C13.6659037,28.28879 10.126669,18.6852126 10.132264,18.0664396 C9.77178641,17.3106864 16.1293006,15.6826678 23.608212,15.1764706 C31.086324,15.6826678 37.4446375,17.3106864 37.0833606,18.0664396" id="Fill-29" fill="#F1F5F8"></path>
                <path d="M11.9697786,19.7277607 C12.9571235,22.0677746 16.2962468,28.3591794 23.6080665,28.6874849 C30.9255144,28.3591794 34.2622256,22.0660996 35.2471584,19.7277607 C33.4380981,19.0795249 29.0159507,18.0879084 23.6080665,17.6909267 C18.2001822,18.0879084 13.7788389,19.0795249 11.9697786,19.7277607 Z M23.6080665,32.0392157 L23.5453524,32.0375407 C13.4017503,31.6305089 8.99407538,22.1423134 8.49316669,19.5033069 C8.36854253,19.025924 8.43286468,18.5066653 8.68211299,18.064458 C10.2057438,15.364313 23.3652504,14.3509211 23.4979148,14.340871 L23.6080665,14.3333333 L23.7174141,14.340871 C23.8500786,14.3509211 37.0119973,15.364313 38.533216,18.0652955 C38.7824643,18.5066653 38.8475904,19.0250865 38.7221623,19.5024694 C38.2252737,22.1456634 33.8320713,31.6296714 23.6699765,32.0375407 L23.6080665,32.0392157 Z" id="Fill-31" fill="#696969"></path>
                <path d="M42.1568627,64.0784314 C42.1568627,65.0092549 41.4309102,65.7647059 40.536433,65.7647059 L9.20866503,65.7647059 C8.3133776,65.7647059 7.58823529,65.0092549 7.58823529,64.0784314 L7.58823529,61.5490196 C7.58823529,60.6173529 8.3133776,59.8627451 9.20866503,59.8627451 L40.536433,59.8627451 C41.4309102,59.8627451 42.1568627,60.6173529 42.1568627,61.5490196 L42.1568627,64.0784314 Z" id="Fill-33" fill="#FFFFFF"></path>
                <path d="M8.31097083,61.2424242 L8.31097083,63.5418895 L39.7502918,63.5418895 L39.7478527,61.2424242 L8.31097083,61.2424242 Z M39.7478527,66.6078431 L8.31097083,66.6078431 C6.51741159,66.6078431 5.05882353,65.2312299 5.05882353,63.5418895 L5.05882353,61.2424242 C5.05882353,59.5515508 6.51741159,58.1764706 8.31097083,58.1764706 L39.7478527,58.1764706 C41.5414119,58.1764706 43,59.5515508 43,61.2424242 L43,63.5418895 C43,65.2312299 41.5414119,66.6078431 39.7478527,66.6078431 Z" id="Fill-35" fill="#696969"></path>
                <path d="M33.7254902,32.0392157 C33.7254902,32.9700392 32.9904369,33.7254902 32.0847463,33.7254902 L15.1309399,33.7254902 C14.224429,33.7254902 13.4901961,32.9700392 13.4901961,32.0392157 L13.4901961,29.5098039 C13.4901961,28.5789804 14.224429,27.8235294 15.1309399,27.8235294 L32.0847463,27.8235294 C32.9904369,27.8235294 33.7254902,28.5789804 33.7254902,29.5098039 L33.7254902,32.0392157 Z" id="Fill-37" fill="#FFFFFF"></path>
                <path d="M15.0981158,29.2032086 L15.0981158,31.5026738 L32.1200411,31.5026738 L32.1175704,29.2032086 L15.0981158,29.2032086 Z M32.1175704,34.5686275 L15.0981158,34.5686275 C13.2813677,34.5686275 11.8039216,33.1927807 11.8039216,31.5026738 L11.8039216,29.2032086 C11.8039216,27.5131016 13.2813677,26.1372549 15.0981158,26.1372549 L32.1175704,26.1372549 C33.9343186,26.1372549 35.4117647,27.5131016 35.4117647,29.2032086 L35.4117647,31.5026738 C35.4117647,33.1927807 33.9343186,34.5686275 32.1175704,34.5686275 Z" id="Fill-39" fill="#696969"></path>
            </g>
        </g>
    </g>
</svg>