<?xml version="1.0" encoding="UTF-8"?>
<svg width="163px" height="163px" viewBox="0 0 163 163" version="1.1" xmlns="http://www.w3.org/2000/svg" xmlns:xlink="http://www.w3.org/1999/xlink">
    <!-- Generator: Sketch 49.3 (51167) - http://www.bohemiancoding.com/sketch -->
    <title>services</title>
    <desc>Created with Sketch.</desc>
    <defs></defs>
    <g id="services" stroke="none" stroke-width="1" fill="none" fill-rule="evenodd">
        <circle id="Oval-2" fill="#F1F5F8" cx="81.5" cy="81.5" r="81.5"></circle>
        <g id="other_services" transform="translate(35.000000, 39.000000)">
            <polygon id="Fill-1" fill="#FFFFFF" points="29 83 91 83 91 48 29 48"></polygon>
            <path d="M27,85 L93,85 L93,46 L27,46 L27,85 Z M30.7429094,81.2434424 L89.2589616,81.2434424 L89.2589616,49.7574969 L30.7429094,49.7574969 L30.7429094,81.2434424 Z" id="Fill-2" fill="#696969"></path>
            <path d="M38.6452475,77 C38.083802,75.2355182 36.7212132,73.8643073 35,73.3291541 L35,56.5918108 C36.6898682,56.0652277 38.0413939,54.7225837 38.618512,53 L81.3824099,53 C81.959528,54.7225837 83.3110537,56.0652277 85,56.5918108 L85,73.3310586 C83.2787868,73.8643073 81.9171199,75.2355182 81.3556744,77 L38.6452475,77 Z" id="Fill-3" fill="#C7D2DC"></path>
            <path d="M66,64.9995456 C66,68.3133379 63.312429,71 59.9977278,71 C56.6857532,71 54,68.3133379 54,64.9995456 C54,61.6857532 56.6857532,59 59.9977278,59 C63.312429,59 66,61.6857532 66,64.9995456" id="Fill-5" fill="#FFFFFF"></path>
            <path d="M59.99814,60.7204976 C57.6396187,60.7204976 55.7200651,62.6393443 55.7200651,65 C55.7200651,67.3597256 57.6396187,69.2795024 59.99814,69.2795024 C62.3585213,69.2795024 64.2799349,67.3597256 64.2799349,65 C64.2799349,62.6393443 62.3585213,60.7204976 59.99814,60.7204976 M59.99814,73 C55.5889328,73 52,69.4106499 52,65 C52,60.58842 55.5889328,57 59.99814,57 C64.4101372,57 68,60.58842 68,65 C68,69.4106499 64.4101372,73 59.99814,73" id="Fill-7" fill="#696969"></path>
            <path d="M71,65 L81,65" id="Fill-9" fill="#FFFFFF"></path>
            <polygon id="Fill-11" fill="#696969" points="71 67 81 67 81 63 71 63"></polygon>
            <path d="M48,65 L38,65" id="Fill-13" fill="#FFFFFF"></path>
            <polygon id="Fill-14" fill="#696969" points="38 67 48 67 48 63 38 63"></polygon>
            <polygon id="Fill-15" fill="#696969" points="3.67728462 56 1 53.362088 9.50047335 45 18 53.362088 15.3246088 56 9.50047335 50.2711635"></polygon>
            <path d="M22,68 L15.7925367,68 C10.9447251,68 7,63.910253 7,58.8830554 L7,50 L10.6525233,50 L10.6525233,58.8830554 C10.6525233,61.8222947 12.9590917,64.2123205 15.7925367,64.2123205 L22,64.2123205 L22,68 Z" id="Fill-16" fill="#696969"></path>
            <polygon id="Fill-17" fill="#FFFFFF" points="2 37 64 37 64 2 2 2"></polygon>
            <path d="M3.74197389,35.2426841 L62.2580261,35.2426841 L62.2580261,3.75731593 L3.74197389,3.75731593 L3.74197389,35.2426841 Z M0,39 L66,39 L66,0 L0,0 L0,39 Z" id="Fill-18" fill="#696969"></path>
            <polygon id="Fill-19" fill="#C7D2DC" points="21 32 58 32 58 8 21 8"></polygon>
            <path d="M12,9 L8,9" id="Fill-20" fill="#FFFFFF"></path>
            <polygon id="Fill-21" fill="#696969" points="8 12 12 12 12 8 8 8"></polygon>
            <path d="M18,29 L8,29" id="Fill-22" fill="#FFFFFF"></path>
            <polygon id="Fill-23" fill="#696969" points="8 31 18 31 18 27 8 27"></polygon>
            <path d="M32,12 L25,12" id="Fill-24" fill="#FFFFFF"></path>
            <polygon id="Fill-25" fill="#696969" points="25 14 32 14 32 10 25 10"></polygon>
            <path d="M53,38 L53,3" id="Fill-26" fill="#FFFFFF"></path>
            <polygon id="Fill-27" fill="#696969" points="51 38 55 38 55 3 51 3"></polygon>
            <polygon id="Fill-28" fill="#696969" points="83.4995266 39 75 30.6372034 77.6763379 28 83.4995266 33.729322 89.3227154 28 92 30.6372034"></polygon>
            <path d="M86,35 L82.3474767,35 L82.3474767,26.1169446 C82.3474767,23.1786522 80.0418214,20.7876795 77.2074633,20.7876795 L71,20.7876795 L71,17 L77.2074633,17 C82.056188,17 86,21.089747 86,26.1169446 L86,35 Z" id="Fill-29" fill="#696969"></path>
        </g>
    </g>
</svg>