<?xml version="1.0" encoding="UTF-8"?>
<svg width="163px" height="163px" viewBox="0 0 163 163" version="1.1" xmlns="http://www.w3.org/2000/svg" xmlns:xlink="http://www.w3.org/1999/xlink">
    <!-- Generator: Sketch 50.2 (55047) - http://www.bohemiancoding.com/sketch -->
    <title>Group 36</title>
    <desc>Created with Sketch.</desc>
    <defs></defs>
    <g id="Page-1" stroke="none" stroke-width="1" fill="none" fill-rule="evenodd">
        <g id="Group-36">
            <circle id="Oval-2" fill="#F1F5F8" cx="81.5" cy="81.5" r="81.5"></circle>
            <g id="Group-22" transform="translate(32.000000, 42.000000)">
                <g id="Group-2">
                    <g id="Group">
                        <path d="M4.48190042,52.738757 L14.2440758,4.00083752 L83.7137455,4.00083752 L96.0902561,52.738757 L4.48190042,52.738757 Z M14.2781943,56.3143047 L84.0464015,56.3143047 C54.1244172,75.6804492 24.4881759,62.1583013 14.2781943,56.3143047 Z M88.1960724,3.40631839 C88.1960724,1.76612022 86.5285274,0.425289834 84.464354,0.425289834 L13.4934673,0.425289834 C11.4463532,0.425289834 9.76174885,1.76612022 9.76174885,3.40631839 L-0.000426482103,53.3501419 C-0.000426482103,54.9776907 1.68417782,56.3143047 3.73129192,56.3143047 L9.39497424,56.3143047 C12.0093095,58.106295 28.8724119,68.9636479 50.627264,68.9636479 C62.3555218,68.9636479 75.5167595,65.7844463 88.60976,56.3143047 L96.8238053,56.3143047 C98.8922435,56.3143047 100.572583,54.9776907 100.572583,53.3501419 L88.1960724,3.40631839 Z" id="Fill-1" fill="#696969"></path>
                        <polygon id="Fill-4" fill="#C7D2DC" points="35.535262 7.23771186 18.0159863 7.23771186 14.7765571 18.6572034 35.535262 18.6572034"></polygon>
                        <polygon id="Fill-6" fill="#C7D2DC" points="40.2847244 18.6567797 61.0434293 18.6567797 61.0434293 7.23728814 40.2847244 7.23728814"></polygon>
                        <polygon id="Fill-8" fill="#C7D2DC" points="65.609239 7.23771186 65.609239 18.6572034 85.0755732 18.6572034 81.8361439 7.23771186"></polygon>
                        <polygon id="Fill-9" fill="#C7D2DC" points="11.6221522 33.7847458 35.6372912 33.7847458 35.6372912 22.3652542 14.8615815 22.3652542"></polygon>
                        <polygon id="Fill-10" fill="#C7D2DC" points="40.3697488 33.7838983 61.1284537 33.7838983 61.1284537 22.3644068 40.3697488 22.3644068"></polygon>
                        <polygon id="Fill-11" fill="#C7D2DC" points="65.6946885 33.7847458 88.4132056 33.7847458 85.1567715 22.3652542 65.6946885 22.3652542"></polygon>
                        <polygon id="Fill-12" fill="#C7D2DC" points="9.01700488 49.0292373 35.6381415 49.0292373 35.6381415 37.6097458 12.273439 37.6097458"></polygon>
                        <polygon id="Fill-13" fill="#C7D2DC" points="40.3697488 49.029661 61.1284537 49.029661 61.1284537 37.6101695 40.3697488 37.6101695"></polygon>
                        <polygon id="Fill-14" fill="#C7D2DC" points="65.6946885 37.6105932 65.6946885 49.0300847 91.6483837 49.0300847 88.4132056 37.6105932"></polygon>
                        <path d="M49.3351456,73.3771186 L34.158292,73.3771186 C33.4440871,73.3771186 32.86167,73.9576271 32.86167,74.6694915 L32.86167,85.2966102 C32.86167,86.0084746 33.4440871,86.5847458 34.158292,86.5847458 L69.6474724,86.5847458 C70.3616773,86.5847458 70.9398432,86.0084746 70.9398432,85.2966102 L70.9398432,74.6694915 C70.9398432,73.9576271 70.3616773,73.3771186 69.6474724,73.3771186 L54.0710041,73.3771186 L54.0710041,68.9237288 L49.3351456,68.9237288 L49.3351456,73.3771186 Z" id="Fill-15" fill="#696969"></path>
                    </g>
                </g>
                <rect id="Rectangle-10" stroke="#979797" fill="#FFFFFF" x="36.5" y="76.5" width="32" height="7"></rect>
            </g>
        </g>
    </g>
</svg>