<?xml version="1.0" encoding="UTF-8"?>
<svg width="163px" height="163px" viewBox="0 0 163 163" version="1.1" xmlns="http://www.w3.org/2000/svg" xmlns:xlink="http://www.w3.org/1999/xlink">
    <!-- Generator: Sketch 50.2 (55047) - http://www.bohemiancoding.com/sketch -->
    <title>target</title>
    <desc>Created with Sketch.</desc>
    <defs></defs>
    <g id="Page-1" stroke="none" stroke-width="1" fill="none" fill-rule="evenodd">
        <g id="Product---Savings-account" transform="translate(0.000000, -472.000000)">
            <g id="target" transform="translate(0.000000, 472.000000)">
                <circle id="Oval-2" fill="#F1F5F8" cx="81.5" cy="81.5" r="81.5"></circle>
                <g id="target_icon" transform="translate(37.000000, 36.000000)">
                    <path d="M69.5,44.9182 C69.5,31.3876038 58.5305962,20.4182 45,20.4182 C31.4694038,20.4182 20.5,31.3876038 20.5,44.9182 C20.5,58.4487962 31.4694038,69.4182 45,69.4182 C58.5305962,69.4182 69.5,58.4487962 69.5,44.9182" id="Fill-1" fill="#C7D2DC"></path>
                    <path d="M60.96,41.8684 C60.44,39.7274 59.47,37.6784 58.05,35.8474 L56.49,37.4084 L55.22,38.6784 C56.66,40.6874 57.43,43.0784 57.43,45.5384 C57.45,52.1284 52.13,57.4774 45.55,57.4984 C38.96,57.5174 33.61,52.1984 33.59,45.6184 C33.57,39.0384 38.89,33.6784 45.47,33.6584 C47.89,33.6484 50.26,34.3884 52.25,35.7584 L53.55,34.4684 L55.11,32.9284 C53.3,31.5574 51.3,30.6384 49.23,30.1384 C43.34,28.7274 36.9,30.7484 32.94,35.8384 C27.55,42.7674 28.8,52.7584 35.74,58.1484 C42.67,63.5384 52.66,62.2884 58.05,55.3474 C61.09,51.4374 62.06,46.4584 60.96,41.8684 M60.96,41.8684 C60.44,39.7274 59.47,37.6784 58.05,35.8474 L56.49,37.4084 L55.22,38.6784 C56.66,40.6874 57.43,43.0784 57.43,45.5384 C57.45,52.1284 52.13,57.4774 45.55,57.4984 C38.96,57.5174 33.61,52.1984 33.59,45.6184 C33.57,39.0384 38.89,33.6784 45.47,33.6584 C47.89,33.6484 50.26,34.3884 52.25,35.7584 L53.55,34.4684 L55.11,32.9284 C53.3,31.5574 51.3,30.6384 49.23,30.1384 C43.34,28.7274 36.9,30.7484 32.94,35.8384 C27.55,42.7674 28.8,52.7584 35.74,58.1484 C42.67,63.5384 52.66,62.2884 58.05,55.3474 C61.09,51.4374 62.06,46.4584 60.96,41.8684 M60.96,41.8684 C60.44,39.7274 59.47,37.6784 58.05,35.8474 L56.49,37.4084 L55.22,38.6784 C56.66,40.6874 57.43,43.0784 57.43,45.5384 C57.45,52.1284 52.13,57.4774 45.55,57.4984 C38.96,57.5174 33.61,52.1984 33.59,45.6184 C33.57,39.0384 38.89,33.6784 45.47,33.6584 C47.89,33.6484 50.26,34.3884 52.25,35.7584 L53.55,34.4684 L55.11,32.9284 C53.3,31.5574 51.3,30.6384 49.23,30.1384 C43.34,28.7274 36.9,30.7484 32.94,35.8384 C27.55,42.7674 28.8,52.7584 35.74,58.1484 C42.67,63.5384 52.66,62.2884 58.05,55.3474 C61.09,51.4374 62.06,46.4584 60.96,41.8684" id="Fill-3" fill="#696969"></path>
                    <path d="M91,45.4182 C91,70.5482 70.63,90.9182 45.5,90.9182 C44.4,90.9182 43.3,90.8782 42.22,90.7982 C41.86,90.7782 41.5,90.7482 41.14,90.7082 C40.88,90.6882 40.62,90.6582 40.36,90.6282 C40.14,90.6082 39.92,90.5782 39.71,90.5482 C39.24,90.4982 38.77,90.4282 38.31,90.3582 C38.02,90.3082 37.73,90.2582 37.45,90.2082 C35.95,89.9382 34.48,89.5982 33.05,89.1882 C32.71,89.0982 32.38,88.9982 32.05,88.8882 C30.95,88.5582 29.87,88.1782 28.82,87.7582 C28.47,87.6282 28.13,87.4882 27.79,87.3382 C27.45,87.1982 27.11,87.0482 26.78,86.8982 C26.44,86.7482 26.11,86.5882 25.78,86.4282 C24.72,85.9182 23.68,85.3682 22.67,84.7782 C22.42,84.6382 22.16,84.4882 21.91,84.3282 C21.6,84.1382 21.29,83.9482 20.98,83.7482 C20.36,83.3582 19.75,82.9482 19.16,82.5182 C18.89,82.3282 18.62,82.1282 18.35,81.9282 C17.71,81.4582 17.08,80.9582 16.47,80.4582 C15.95,80.0182 15.43,79.5682 14.93,79.1182 C13.83,78.1182 12.78,77.0682 11.79,75.9682 C11.55,75.7082 11.32,75.4582 11.1,75.1882 C10.81,74.8682 10.53,74.5282 10.26,74.1882 C10.07,73.9682 9.89,73.7382 9.71,73.5082 C9.48,73.2282 9.26,72.9382 9.05,72.6482 C8.83,72.3582 8.61,72.0582 8.4,71.7582 C8.19,71.4682 7.99,71.1782 7.79,70.8882 C7.58,70.5782 7.37,70.2582 7.17,69.9382 C6.97,69.6282 6.78,69.3182 6.59,69.0082 C5.06,66.4982 3.77,63.8282 2.75,61.0282 C2.63,60.7182 2.52,60.3982 2.41,60.0782 C1.99,58.8482 1.62,57.5882 1.31,56.2982 C1.26,56.0982 1.21,55.8982 1.16,55.6882 C1.14,55.5982 1.12,55.4982 1.1,55.3982 C1.04,55.1282 0.98,54.8582 0.92,54.5882 C0.91,54.5182 0.89,54.4382 0.88,54.3682 C0.81,54.0182 0.75,53.6682 0.68,53.3182 C0.66,53.1582 0.63,52.9882 0.6,52.8282 C0.56,52.5782 0.52,52.3282 0.48,52.0682 C0.4,51.5082 0.33,50.9482 0.27,50.3782 C0.22,49.9182 0.17,49.4482 0.14,48.9782 C0.12,48.6782 0.1,48.3682 0.08,48.0582 C0.06,47.8282 0.05,47.5882 0.04,47.3482 C0.01,46.7082 0,46.0682 0,45.4182 C0,45.1882 0,44.9682 0.01,44.7382 C0,44.5782 0.01,44.4082 0.01,44.2482 C0.02,43.8582 0.04,43.4682 0.06,43.0782 C0.08,42.7282 0.1,42.3682 0.12,42.0182 C0.14,41.7982 0.16,41.5882 0.18,41.3782 C0.21,41.0582 0.24,40.7282 0.27,40.4082 C0.31,40.0182 0.36,39.6382 0.42,39.2682 C0.48,38.8082 0.55,38.3482 0.64,37.8882 C0.65,37.7682 0.68,37.6382 0.7,37.5182 C0.77,37.0782 0.86,36.6482 0.95,36.2182 C0.98,36.0982 1,35.9682 1.03,35.8482 C1.1,35.5282 1.17,35.2082 1.25,34.8882 C1.31,34.6282 1.37,34.3582 1.44,34.0982 C1.45,34.0482 1.47,33.9882 1.48,33.9382 C1.59,33.5182 1.71,33.1082 1.83,32.6982 C1.98,32.1782 2.14,31.6582 2.31,31.1382 C2.32,31.1082 2.32,31.0882 2.33,31.0682 C4.3,25.1782 7.51,19.5982 11.98,14.7282 C26.23,-0.7818 48.75,-4.1618 66.57,5.1582 L63.61,8.1182 C57.98,5.3882 51.77,3.9482 45.41,3.9582 C22.48,3.9982 3.92,22.6082 3.96,45.5382 C3.97,59.2582 10.74,72.0782 22.05,79.8282 C22.24,79.9682 22.44,80.0882 22.63,80.2182 C23.62,80.8682 24.62,81.4882 25.66,82.0582 L25.78,82.1282 C26.88,82.7282 28.02,83.2682 29.18,83.7682 C29.36,83.8482 29.54,83.9182 29.72,83.9882 C39.86,88.1882 51.25,88.1882 61.39,83.9882 C61.57,83.9182 61.75,83.8482 61.93,83.7682 C63.09,83.2682 64.23,82.7182 65.33,82.1282 L65.45,82.0582 C66.5,81.4882 67.49,80.8682 68.48,80.2182 C68.67,80.0882 68.86,79.9582 69.06,79.8282 C70.68,78.7182 72.22,77.4982 73.67,76.1682 C87.64,63.3882 90.85,43.2482 82.81,27.1082 L85.74,24.1782 C89.11,30.5182 91,37.7582 91,45.4182" id="Fill-5" fill="#696969"></path>
                    <path d="M72.1699,69.5383 C59.0199,84.2883 36.3899,85.5883 21.6399,72.4373 C6.8899,59.2883 5.5899,36.6583 18.7499,21.9083 C29.1399,10.2483 45.4399,6.9883 59.0999,12.6283 L56.0499,15.6783 C45.4499,11.9183 33.2799,13.9683 24.3899,21.8083 C11.2199,33.4373 9.9699,53.5283 21.5899,66.6983 C33.2199,79.8683 53.3099,81.1283 66.4799,69.4983 C76.6099,60.5583 79.6899,46.5883 75.2799,34.6383 L78.3299,31.5883 C83.6999,44.0383 81.6499,58.9083 72.1699,69.5383" id="Fill-8" fill="#696969"></path>
                    <polygon id="Fill-10" fill="#696969" points="72.4399 21.4582 70.4599 23.4372 77.5599 23.4372 77.5599 27.3982 66.4999 27.3982 48.0199 45.8682 45.1299 42.9782 63.6999 24.5982 63.6999 13.5282 67.6599 13.5282 67.6599 20.6382 69.6399 18.6482 69.6399 7.5882 73.5999 7.5882 73.5999 14.6872 79.7999 8.4982 80.1199 8.1682 82.9199 10.9682 82.5999 11.2982 76.3999 17.4882 83.4999 17.4882 83.4999 21.4582"></polygon>
                </g>
            </g>
        </g>
    </g>
</svg>