<?xml version="1.0" encoding="UTF-8"?>
<svg width="25px" height="25px" viewBox="0 0 25 25" version="1.1" xmlns="http://www.w3.org/2000/svg" xmlns:xlink="http://www.w3.org/1999/xlink">
    <!-- Generator: Sketch 49.3 (51167) - http://www.bohemiancoding.com/sketch -->
    <title>icons/social media/twitter</title>
    <desc>Created with Sketch.</desc>
    <defs>
        <polygon id="path-1" points="0 0 24.3304267 0 24.3304267 24.0383654 0 24.0383654"></polygon>
    </defs>
    <g id="Symbols" stroke="none" stroke-width="1" fill="none" fill-rule="evenodd">
        <g id="navigation/footer" transform="translate(-191.000000, -423.000000)">
            <g id="Group-10" transform="translate(158.000000, 423.000000)">
                <g id="Icons/twitter" transform="translate(33.500000, 0.000000)">
                    <g id="Group" transform="translate(0.085943, 0.000000)">
                        <g id="Group-3">
                            <mask id="mask-2" fill="white">
                                <use xlink:href="#path-1"></use>
                            </mask>
                            <g id="Clip-2"></g>
                            <path d="M12.1652133,-9.61538462e-05 C18.8838173,-9.61538462e-05 24.3304267,5.38115385 24.3304267,12.0191346 C24.3304267,18.6571154 18.8838173,24.0383654 12.1652133,24.0383654 C5.44660931,24.0383654 0,18.6571154 0,12.0191346 C0,5.38115385 5.44660931,-9.61538462e-05 12.1652133,-9.61538462e-05" id="Fill-1" fill="#55ACEE" mask="url(#mask-2)"></path>
                        </g>
                        <path d="M18.9777328,7.84432692 C18.476526,8.06403846 17.9378504,8.21259615 17.3724112,8.27894231 C17.9490424,7.93711538 18.3923427,7.39625 18.6015844,6.75105769 C18.0614489,7.06740385 17.4629204,7.29769231 16.8264365,7.42173077 C16.3164707,6.88471154 15.5899642,6.54961538 14.7860869,6.54961538 C13.2415914,6.54961538 11.9905209,7.78567308 11.9905209,9.31115385 C11.9905209,9.5275 12.0153379,9.73807692 12.0630255,9.94048077 C9.73946979,9.82509615 7.68014248,8.72557692 6.3010939,7.05490385 C6.06070928,7.46259615 5.92251246,7.93711538 5.92251246,8.44336538 C5.92251246,9.40153846 6.41642012,10.2467308 7.16628387,10.7419231 C6.70789863,10.7279808 6.27676347,10.6034615 5.90012846,10.3967308 C5.90012846,10.4082692 5.90012846,10.4193269 5.90012846,10.4313462 C5.90012846,11.7693269 6.86361336,12.8856731 8.14242059,13.1395192 C7.90738866,13.2025 7.66067814,13.2361538 7.40569527,13.2361538 C7.22565011,13.2361538 7.05047104,13.2188462 6.87967144,13.1866346 C7.23586889,14.28375 8.26796559,15.0823077 9.49129944,15.1044231 C8.53462706,15.8457692 7.32929773,16.2871154 6.01934756,16.2871154 C5.7935612,16.2871154 5.5711811,16.2741346 5.35269386,16.2481731 C6.58965276,17.0318269 8.05921053,17.4890385 9.63776861,17.4890385 C14.7792744,17.4890385 17.5908985,13.2808654 17.5908985,9.63134615 C17.5908985,9.51163462 17.5884654,9.39240385 17.5831127,9.27413462 C18.1290875,8.88471154 18.6030442,8.39817308 18.9777328,7.84432692" id="Fill-4" fill="#FFFFFF"></path>
                    </g>
                </g>
            </g>
        </g>
    </g>
</svg>