<?xml version="1.0" encoding="UTF-8"?>
<svg width="163px" height="163px" viewBox="0 0 163 163" version="1.1" xmlns="http://www.w3.org/2000/svg" xmlns:xlink="http://www.w3.org/1999/xlink">
    <!-- Generator: Sketch 50.2 (55047) - http://www.bohemiancoding.com/sketch -->
    <title>Group 25</title>
    <desc>Created with Sketch.</desc>
    <defs></defs>
    <g id="Page-1" stroke="none" stroke-width="1" fill="none" fill-rule="evenodd">
        <g id="Group-25">
            <circle id="Oval-2" fill="#F1F5F8" cx="81.5" cy="81.5" r="81.5"></circle>
            <g id="ordinary_icon" transform="translate(30.000000, 51.000000)">
                <path d="M94.8047,59.3354 L6.5547,59.3164 C4.0377,59.3164 1.9997,61.3564 1.9997,63.8724 L1.9997,6.5564 C1.9997,4.0404 4.0377,2.0004 6.5547,2.0004 L94.8047,2.0004 C97.3207,2.0004 99.3617,4.0404 99.3617,6.5564 L99.3617,22.9724 L99.3617,47.9284 L99.3617,54.7814 C99.3617,57.2964 97.3207,59.3354 94.8047,59.3354" id="Fill-1" fill="#FFFFFF"></path>
                <path d="M6.5547,4.0004 C5.1457,4.0004 3.9997,5.1464 3.9997,6.5564 L3.9997,57.8344 C4.7847,57.5014 5.6487,57.3164 6.5547,57.3164 L94.8047,57.3354 C96.2137,57.3354 97.3617,56.1904 97.3617,54.7814 L97.3617,6.5564 C97.3617,5.1464 96.2137,4.0004 94.8047,4.0004 L6.5547,4.0004 Z M3.9997,63.8724 L-0.0003,63.8724 L-0.0003,6.5564 C-0.0003,2.9404 2.9397,0.000399999999 6.5547,0.000399999999 L94.8047,0.000399999999 C98.4197,0.000399999999 101.3617,2.9404 101.3617,6.5564 L101.3617,54.7814 C101.3617,58.3964 98.4197,61.3354 94.8047,61.3354 L6.5537,61.3164 C5.1457,61.3164 3.9997,62.4634 3.9997,63.8724 Z" id="Fill-3" fill="#696969"></path>
                <polygon id="Fill-6" fill="#C7D2DC" points="9.591 23.2577 87.025 23.2577 87.025 7.6947 9.591 7.6947"></polygon>
                <path d="M94.8047,16.7846 L6.5547,16.8046 C4.0377,16.8046 1.9997,14.7636 1.9997,12.2486 L1.9997,69.5646 C1.9997,72.0806 4.0377,74.1206 6.5547,74.1206 L94.8047,74.1206 C97.3207,74.1206 99.3617,72.0806 99.3617,69.5646 L99.3617,53.1486 L99.3617,28.1926 L99.3617,21.3396 C99.3617,18.8236 97.3207,16.7846 94.8047,16.7846" id="Fill-8" fill="#FFFFFF"></path>
                <path d="M4,18.2846 L4,69.5646 C4,70.9736 5.146,72.1206 6.555,72.1206 L94.805,72.1206 C96.214,72.1206 97.361,70.9736 97.361,69.5646 L97.361,21.3396 C97.361,19.9306 96.214,18.7846 94.805,18.7846 L6.555,18.8046 C5.648,18.8046 4.785,18.6196 4,18.2846 M94.805,76.1206 L6.555,76.1206 C2.939,76.1206 0,73.1806 0,69.5646 L0,12.2486 L4,12.2486 C4,13.6576 5.146,14.8046 6.555,14.8046 L94.804,14.7846 C98.42,14.7846 101.361,17.7256 101.361,21.3396 L101.361,69.5646 C101.361,73.1806 98.42,76.1206 94.805,76.1206" id="Fill-9" fill="#696969"></path>
                <polygon id="Fill-10" fill="#696969" points="89.627 67.0107 93.627 67.0107 93.627 63.0107 89.627 63.0107"></polygon>
                <path d="M16.238,67.0107 L20.316,67.0107 L20.316,63.0107 L16.238,63.0107 L16.238,67.0107 Z M24.393,67.0107 L28.47,67.0107 L28.47,63.0107 L24.393,63.0107 L24.393,67.0107 Z M32.547,67.0107 L36.624,67.0107 L36.624,63.0107 L32.547,63.0107 L32.547,67.0107 Z M40.701,67.0107 L44.778,67.0107 L44.778,63.0107 L40.701,63.0107 L40.701,67.0107 Z M48.856,67.0107 L52.933,67.0107 L52.933,63.0107 L48.856,63.0107 L48.856,67.0107 Z M57.01,67.0107 L61.087,67.0107 L61.087,63.0107 L57.01,63.0107 L57.01,67.0107 Z M65.164,67.0107 L69.24,67.0107 L69.24,63.0107 L65.164,63.0107 L65.164,67.0107 Z M73.319,67.0107 L77.395,67.0107 L77.395,63.0107 L73.319,63.0107 L73.319,67.0107 Z M81.473,67.0107 L85.549,67.0107 L85.549,63.0107 L81.473,63.0107 L81.473,67.0107 Z" id="Fill-11" fill="#696969"></path>
                <polygon id="Fill-12" fill="#696969" points="8.162 67.0107 12.162 67.0107 12.162 63.0107 8.162 63.0107"></polygon>
                <path d="M8.162,35.5667 L12.162,35.5667 L12.162,31.6447 L8.162,31.6447 L8.162,35.5667 Z M8.162,43.4077 L12.162,43.4077 L12.162,39.4867 L8.162,39.4867 L8.162,43.4077 Z M8.162,51.2487 L12.162,51.2487 L12.162,47.3287 L8.162,47.3287 L8.162,51.2487 Z M8.162,59.0897 L12.162,59.0897 L12.162,55.1687 L8.162,55.1687 L8.162,59.0897 Z" id="Fill-13" fill="#696969"></path>
                <polygon id="Fill-14" fill="#696969" points="8.162 27.7237 12.162 27.7237 12.162 23.7237 8.162 23.7237"></polygon>
                <path d="M16.238,27.7237 L20.316,27.7237 L20.316,23.7237 L16.238,23.7237 L16.238,27.7237 Z M24.393,27.7237 L28.471,27.7237 L28.471,23.7237 L24.393,23.7237 L24.393,27.7237 Z M32.547,27.7237 L36.624,27.7237 L36.624,23.7237 L32.547,23.7237 L32.547,27.7237 Z M40.701,27.7237 L44.778,27.7237 L44.778,23.7237 L40.701,23.7237 L40.701,27.7237 Z M48.856,27.7237 L52.933,27.7237 L52.933,23.7237 L48.856,23.7237 L48.856,27.7237 Z M57.01,27.7237 L61.087,27.7237 L61.087,23.7237 L57.01,23.7237 L57.01,27.7237 Z M65.164,27.7237 L69.241,27.7237 L69.241,23.7237 L65.164,23.7237 L65.164,27.7237 Z M73.319,27.7237 L77.395,27.7237 L77.395,23.7237 L73.319,23.7237 L73.319,27.7237 Z M81.473,27.7237 L85.549,27.7237 L85.549,23.7237 L81.473,23.7237 L81.473,27.7237 Z" id="Fill-15" fill="#696969"></path>
                <polygon id="Fill-16" fill="#696969" points="89.627 27.7237 93.627 27.7237 93.627 23.7237 89.627 23.7237"></polygon>
                <path d="M89.627,35.5657 L93.627,35.5657 L93.627,31.6447 L89.627,31.6447 L89.627,35.5657 Z M89.627,43.4077 L93.627,43.4077 L93.627,39.4857 L89.627,39.4857 L89.627,43.4077 Z M89.627,51.2477 L93.627,51.2477 L93.627,47.3267 L89.627,47.3267 L89.627,51.2477 Z M89.627,59.0897 L93.627,59.0897 L93.627,55.1687 L89.627,55.1687 L89.627,59.0897 Z" id="Fill-17" fill="#696969"></path>
                <polygon id="Fill-18" fill="#FFFFFF" points="83.704 51.6307 100.5 51.6307 100.5 38.5347 83.704 38.5347"></polygon>
                <path d="M85.704,49.6307 L98.5,49.6307 L98.5,40.5347 L85.704,40.5347 L85.704,49.6307 Z M81.704,53.6307 L102.5,53.6307 L102.5,36.5347 L81.704,36.5347 L81.704,53.6307 Z" id="Fill-19" fill="#696969"></path>
                <path d="M88.543,45.0825 L92.813,45.0825" id="Fill-20" fill="#FFFFFF"></path>
            </g>
        </g>
    </g>
</svg>