<?xml version="1.0" encoding="UTF-8"?>
<svg width="25px" height="25px" viewBox="0 0 25 25" version="1.1" xmlns="http://www.w3.org/2000/svg" xmlns:xlink="http://www.w3.org/1999/xlink">
    <!-- Generator: Sketch 49.3 (51167) - http://www.bohemiancoding.com/sketch -->
    <title>icons/social media/whatsapp</title>
    <desc>Created with Sketch.</desc>
    <defs>
        <polygon id="path-1" points="0.269972322 0 24.1233318 0 24.1233318 24.0383654 0.269972322 24.0383654"></polygon>
    </defs>
    <g id="Symbols" stroke="none" stroke-width="1" fill="none" fill-rule="evenodd">
        <g id="navigation/footer" transform="translate(-225.000000, -423.000000)">
            <g id="Group-10" transform="translate(158.000000, 423.000000)">
                <g id="Icons/whatsapp" transform="translate(67.000000, 0.000000)">
                    <g id="Group-2" transform="translate(0.171885, 0.000000)">
                        <g id="Group-8">
                            <mask id="mask-2" fill="white">
                                <use xlink:href="#path-1"></use>
                            </mask>
                            <g id="Clip-7"></g>
                            <path d="M12.1966521,-9.61538462e-05 C18.7835187,-9.61538462e-05 24.1233318,5.38115385 24.1233318,12.0191346 C24.1233318,18.6571154 18.7835187,24.0383654 12.1966521,24.0383654 C5.60978537,24.0383654 0.269972322,18.6571154 0.269972322,12.0191346 C0.269972322,5.38115385 5.60978537,-9.61538462e-05 12.1966521,-9.61538462e-05" id="Fill-6" fill="#25D366" mask="url(#mask-2)"></path>
                        </g>
                        <path d="M9.20682427,16.6369231 L9.4086237,16.7575962 C10.2573262,17.2652885 11.2305433,17.5335577 12.222366,17.5345192 L12.2247513,17.5345192 C15.2713024,17.5345192 17.7515747,15.035 17.7530059,11.9628846 C17.753483,10.4749038 17.178617,9.07490385 16.134794,8.02201923 C15.0914481,6.96913462 13.7031825,6.38884615 12.2271367,6.38836538 C9.17724611,6.38836538 6.69745086,8.88692308 6.69649672,11.9590385 C6.69601966,13.0109615 6.98846184,14.0364423 7.54138272,14.9234615 L7.67305326,15.1345192 L7.11488465,17.1898077 L9.20682427,16.6369231 Z M5.5176637,18.7825962 L6.4613026,15.3090385 C5.87928063,14.2926923 5.57300349,13.1398077 5.57348056,11.9585577 C5.57491176,8.26288462 8.55848996,5.25615385 12.2247513,5.25615385 C14.0037349,5.25663462 15.6739471,5.95471154 16.9291109,7.22201923 C18.1852288,8.48884615 18.8764991,10.1725 18.875545,11.9638462 C18.8741138,15.6590385 15.8900585,18.66625 12.2247513,18.66625 C12.2247513,18.66625 12.2247513,18.66625 12.2247513,18.66625 L12.2218889,18.66625 C11.1088912,18.6657692 10.0149761,18.3845192 9.0436673,17.8499038 L5.5176637,18.7825962 Z" id="Fill-9" fill="#FFFFFF"></path>
                        <path d="M15.5754804,13.5574519 C15.5339756,13.4872596 15.423296,13.4459135 15.2572766,13.3612981 C15.0903031,13.2776442 14.2735641,12.8728365 14.1213796,12.8165865 C13.9691952,12.7612981 13.8580385,12.7329327 13.7468819,12.9007212 C13.6366794,13.0685096 13.3179985,13.4459135 13.2211538,13.5574519 C13.1243092,13.6689904 13.0274646,13.6834135 12.8609681,13.5992788 C12.6949487,13.515625 12.1596793,13.3387019 11.5247029,12.7680288 C11.0309384,12.3242788 10.6969913,11.7752404 10.6001467,11.6079327 C10.5033021,11.4401442 10.5896512,11.3497596 10.673138,11.2661058 C10.7475605,11.1911058 10.8391574,11.0704327 10.9226441,10.9728365 C11.0051768,10.8747596 11.0333237,10.8050481 11.0886635,10.6930288 C11.1435262,10.5814904 11.1163334,10.4834135 11.0748286,10.3997596 C11.0333237,10.3161058 10.7008079,9.49158654 10.5624584,9.15649038 C10.4274484,8.83004808 10.290053,8.87427885 10.1884377,8.86899038 C10.0915931,8.86370192 9.98043643,8.86274038 9.86975684,8.86274038 C9.75907725,8.86274038 9.57874586,8.90504808 9.42656142,9.07235577 C9.27437699,9.24014423 8.84501652,9.64543269 8.84501652,10.4699519 C8.84501652,11.2939904 9.44039637,12.090625 9.52340606,12.2021635 C9.60641575,12.3141827 10.6955601,14.0055288 12.3624329,14.7310096 C12.7588757,14.9036058 13.0684923,15.0064904 13.3098883,15.0838942 C13.7077624,15.2112981 14.0703334,15.1935096 14.3565738,15.1502404 C14.6762088,15.1016827 15.3398092,14.7449519 15.4781587,14.3540865 C15.6169853,13.9627404 15.6169853,13.6271635 15.5754804,13.5574519" id="Fill-11" fill="#FFFFFF"></path>
                    </g>
                </g>
            </g>
        </g>
    </g>
</svg>